<?xml version="1.0" standalone="no"?>
<!DOCTYPE svg PUBLIC "-//W3C//DTD SVG 1.1//EN" "http://www.w3.org/Graphics/SVG/1.1/DTD/svg11.dtd" >
<svg>
<metadata>
Created by FontForge 20090622 at Thu Feb 21 20:51:10 2019
 By ffonts
Copyright (c) 2017, Jose Roses
</metadata>
<defs>
<font id="LapsusPro-Bold" horiz-adv-x="1108" >
  <font-face 
    font-family="Lapsus Pro (theguybrush.com)"
    font-weight="700"
    font-stretch="normal"
    units-per-em="2048"
    panose-1="2 0 8 0 0 0 0 0 0 0"
    ascent="1638"
    descent="-410"
    x-height="1021"
    cap-height="1434"
    bbox="-610 -453 5348 1878"
    underline-thickness="150"
    underline-position="-142"
    unicode-range="U+001D-U+F002"
  />
<missing-glyph horiz-adv-x="1024" 
d="M100 0v1434h824v-1434h-824zM150 50h724v1334h-724v-1334zM300 1143q34 31 63 47q62 35 132 35q107 0 168 -52t61 -129q0 -47 -22.5 -96t-87.5 -129q-62 -79 -98.5 -131.5t-36.5 -103.5q0 -38 26 -138h-82q-38 105 -38 154q0 73 81.5 215t81.5 219q0 61 -28 89t-70 28
q-28 0 -50 -12q-24 -13 -100 -79v83zM380 331l58 59q14 12 29 12q14 0 30 -14l56 -60q8 -11 8 -19q0 -10 -10 -21l-56 -62q-17 -17 -28 -17q-17 0 -29 13l-62 71q-7 9 -7 17q0 10 11 21z" />
    <glyph glyph-name=".notdef" horiz-adv-x="1024" 
d="M100 0v1434h824v-1434h-824zM150 50h724v1334h-724v-1334zM300 1143q34 31 63 47q62 35 132 35q107 0 168 -52t61 -129q0 -47 -22.5 -96t-87.5 -129q-62 -79 -98.5 -131.5t-36.5 -103.5q0 -38 26 -138h-82q-38 105 -38 154q0 73 81.5 215t81.5 219q0 61 -28 89t-70 28
q-28 0 -50 -12q-24 -13 -100 -79v83zM380 331l58 59q14 12 29 12q14 0 30 -14l56 -60q8 -11 8 -19q0 -10 -10 -21l-56 -62q-17 -17 -28 -17q-17 0 -29 13l-62 71q-7 9 -7 17q0 10 11 21z" />
    <glyph glyph-name="uni001D" horiz-adv-x="0" 
 />
    <glyph glyph-name="uni001D" horiz-adv-x="0" 
 />
    <glyph glyph-name="glyph2" horiz-adv-x="508" 
 />
    <glyph glyph-name="space" unicode=" " horiz-adv-x="508" 
 />
    <glyph glyph-name="space" unicode="&#xa0;" horiz-adv-x="508" 
 />
    <glyph glyph-name="exclam" unicode="!" horiz-adv-x="475" 
d="M92 1462q340 -111 355 -126q-96 -906 -111 -933q-23 0 -274 -59q0 7 -7 7q7 136 22 1104zM262 292h15q111 -32 111 -104q0 -146 -222 -200h-22q-104 0 -104 104v22q0 144 222 178z" />
    <glyph glyph-name="quotedbl" unicode="&#x22;" horiz-adv-x="732" 
d="M287 1098l-150 10l-53 466l257 14zM600 1098l-151 10l-52 467l256 13z" />
    <glyph glyph-name="numbersign" unicode="#" horiz-adv-x="1492" 
d="M670 801l-63 -182h178l64 182h-179zM575 1434l247 -20l-101 -385h178l112 405l256 -30l-111 -375h259l-41 -223h-269l-61 -182h279l-72 -214h-270l-120 -420l-246 20l109 400h-176l-132 -410l-236 30l110 380h-183l52 214h191l64 182h-205l41 223h215z" />
    <glyph glyph-name="dollar" unicode="$" horiz-adv-x="1053" 
d="M863 1024q-489 115 -479 -41q30 -69 200 -140q520 -187 507 -481q5 -188 -230 -309q-50 -26 -131 -42l3 -105l-277 -15l-11 101q-191 10 -418 68l138 306q457 -85 455 47q-30 107 -392 214q-242 133 -238 374q6 324 378 429v153l295 8l4 -152q186 -16 370 -97z" />
    <glyph glyph-name="percent" unicode="%" horiz-adv-x="1577" 
d="M458 -60l-205 40l838 1464l205 -40zM473 1434q213 0 281 -183q14 -43 12 -110q0 -212 -177 -391q-88 -83 -250 -79q-243 7 -268 299q-13 264 191 398q112 66 211 66zM291 998q14 -93 85 -93q154 28 161 179q6 123 -78 126q-165 -30 -168 -212zM1283 734q213 0 281 -183
q14 -43 12 -110q0 -212 -177 -391q-88 -83 -250 -79q-243 7 -268 299q-13 264 191 398q112 66 211 66zM1128 303q12 -93 72 -93q133 28 139 179q6 122 -67 126q-142 -30 -144 -212z" />
    <glyph glyph-name="ampersand" unicode="&#x26;" horiz-adv-x="1123" 
d="M585 1457q284 -41 319 -364q12 -189 -238 -326q113 -262 172 -372l128 58l199 -102l-236 -182l32 -62l-224 -176l-50 104q-83 -32 -157 -39q-447 -86 -525 300q-61 374 270 548q-130 221 -66 419q74 204 376 194zM547 982q107 47 101 133q-19 108 -108 74q-81 -69 7 -207
zM294 350q30 -116 278 -61l-167 357q-168 -111 -111 -296z" />
    <glyph glyph-name="quotesingle" unicode="'" horiz-adv-x="300" 
d="M217 1098h-130l-53 486l237 4z" />
    <glyph glyph-name="parenleft" unicode="(" horiz-adv-x="864" 
d="M202 601q2 208 56 397q55 197 169 375q69 109 125 172l35 38h219q-8 -15 -27 -37q-31 -34 -44 -52q-111 -169 -165 -370t-54 -444q0 -40 1 -79q-1 -38 -1 -79q0 -244 54 -443t165 -367q13 -18 44 -53q19 -22 27 -39h-219l-35 39q-56 64 -125 171q-114 178 -170 375
q-53 188 -55 396z" />
    <glyph glyph-name="parenright" unicode=")" horiz-adv-x="864" 
d="M607 204q-56 -196 -170 -374q-69 -108 -125 -171l-35 -39h-219q8 16 27 38q31 35 44 53q111 168 165 367.5t54 442.5q0 41 -1 80q1 39 1 79q0 243 -54 443.5t-165 370.5q-12 17 -44 51q-19 23 -27 38h219l35 -38q56 -64 125 -172q114 -178 169 -375q54 -189 56 -397
q-2 -208 -55 -397z" />
    <glyph glyph-name="asterisk" unicode="*" horiz-adv-x="1092" 
d="M841 1552l136 -218l-292 -112l231 -161l-196 -196l-166 231l-159 -222l-221 176l219 167l-225 72l72 225l215 -114l-34 259l229 -18l-31 -239z" />
    <glyph glyph-name="plus" unicode="+" 
d="M442 617l-222 10l10 180h222l10 260l214 20v-280h232l20 -210l-252 10v-240l-244 -10z" />
    <glyph glyph-name="comma" unicode="," horiz-adv-x="397" 
d="M97 207l282 -7l-25 -200q-111 -230 -293 -309l-34 67q49 146 54 248z" />
    <glyph glyph-name="hyphen" unicode="-" horiz-adv-x="774" 
d="M78 339l11 270l616 30l-29 -310z" />
    <glyph glyph-name="hyphen" unicode="&#xad;" horiz-adv-x="774" 
d="M78 339l11 270l616 30l-29 -310z" />
    <glyph glyph-name="period" unicode="." horiz-adv-x="397" 
d="M57 227l302 -7l-28 -232l-290 18z" />
    <glyph glyph-name="slash" unicode="/" horiz-adv-x="641" 
d="M158 -60l-205 40l548 1464l205 -40z" />
    <glyph glyph-name="zero" unicode="0" horiz-adv-x="1133" 
d="M672 1447q321 0 439 -313q23 -130 23 -289q0 -470 -300 -738q-157 -120 -408 -120q-323 3 -407 465q-53 529 254 810q226 185 399 185zM372 593q19 -187 170 -187q157 0 232 232q96 387 -98 427q-278 -13 -304 -472z" />
    <glyph glyph-name="one" unicode="1" horiz-adv-x="580" 
d="M585 1455l-72 -1472l-426 66l82 996l-183 -12l49 385z" />
    <glyph glyph-name="two" unicode="2" horiz-adv-x="1024" 
d="M593 1439q340 -14 377 -319q25 -257 -442 -741l509 25l-41 -380l-951 -37l14 343q413 442 548 646q26 108 -95 113q-108 -10 -311 -255l-213 221q229 384 605 384z" />
    <glyph glyph-name="three" unicode="3" horiz-adv-x="1003" 
d="M519 1429q256 0 390 -183q55 -108 55 -230q0 -149 -111 -302q159 -108 159 -310q0 -413 -493 -413q-279 0 -532 191l143 290q257 -151 403 -151q133 15 133 107q0 101 -196 101l-133 3l8 283l156 12q110 45 110 149q0 91 -133 107q-132 0 -316 -131l-143 279
q227 198 500 198z" />
    <glyph glyph-name="four" unicode="4" horiz-adv-x="1008" 
d="M922 1428l-38 -708l138 2l-49 -312h-97l-31 -433l-353 65l24 368l-502 -4l-8 306l569 722zM559 985l-185 -265h183l22 265h-20z" />
    <glyph glyph-name="five" unicode="5" horiz-adv-x="1024" 
d="M945 1443l-31 -310q-465 -23 -521 -39l6 -161q149 16 251 12q194 -19 295 -204q79 -142 79 -307q0 -305 -300 -410q-114 -24 -197 -24q-232 0 -536 189l142 300q172 -174 394 -174q150 17 150 142q0 162 -189 182h-119q-104 0 -268 -18v785z" />
    <glyph glyph-name="six" unicode="6" horiz-adv-x="1058" 
d="M884 1439l117 4l-52 -329q-440 -15 -592 -272q146 83 302 88q253 9 351 -191q42 -78 45 -178q6 -178 -151 -389q-165 -170 -455 -180q-289 -10 -421 392q-17 62 -21 179q-16 453 389 734q230 133 488 142zM376 449q5 -141 156 -155q196 49 187 266q-3 82 -124 94
q-180 -7 -219 -205z" />
    <glyph glyph-name="seven" unicode="7" horiz-adv-x="1087" 
d="M145 1434h962l-24 -347l-735 -1095l-354 145l606 932h-568z" />
    <glyph glyph-name="eight" unicode="8" horiz-adv-x="954" 
d="M597 1464q275 15 381 -264q12 -41 20 -118q25 -234 -131 -350q107 -113 111 -301q23 -213 -168 -378q-122 -69 -280 -85q-507 -54 -545 311q-23 224 178 443q-79 66 -91 182q-18 216 120 382q126 165 405 178zM399 987q10 -95 145 -81q116 12 133 182q-29 109 -123 99
q-154 -25 -155 -200zM317 322q9 -83 153 -81q133 15 155 201q-10 95 -147 105q-177 -75 -161 -225z" />
    <glyph glyph-name="nine" unicode="9" horiz-adv-x="1049" 
d="M612 1455q435 -24 449 -595q14 -399 -275 -676q-288 -209 -745 -199l73 323q421 15 592 278q-159 -77 -291 -81q-305 -11 -389 256q-70 355 217 594q141 93 369 100zM338 911q14 -139 190 -115q161 53 170 187q-6 160 -152 171q-201 -22 -208 -243z" />
    <glyph glyph-name="colon" unicode=":" horiz-adv-x="387" 
d="M57 227l302 -7l-28 -232l-290 18zM57 854l302 -7l-28 -232l-290 18z" />
    <glyph glyph-name="semicolon" unicode=";" horiz-adv-x="397" 
d="M77 207l282 -7l-25 -200q-111 -230 -293 -309l-34 67q49 146 54 248zM67 854l302 -7l-28 -232l-290 18z" />
    <glyph glyph-name="semicolon" unicode="&#x37e;" horiz-adv-x="397" 
d="M77 207l282 -7l-25 -200q-111 -230 -293 -309l-34 67q49 146 54 248zM67 854l302 -7l-28 -232l-290 18z" />
    <glyph glyph-name="less" unicode="&#x3c;" 
d="M1028 965l-637 -250l637 -247l-100 -306l-848 421v265l848 424z" />
    <glyph glyph-name="equal" unicode="=" 
d="M80 611h918l-10 -250l-918 20zM100 963l908 30l-10 -250l-908 -10z" />
    <glyph glyph-name="greater" unicode="&#x3e;" 
d="M180 1272l848 -424v-265l-848 -421l-100 306l637 247l-637 250z" />
    <glyph glyph-name="question" unicode="?" horiz-adv-x="881" 
d="M535 1448q-340 0 -552 -363l189 -197h8q170 235 257 235q97 0 113 -91v-8q0 -41 -68 -113q-272 -279 -272 -446q0 -98 15 -137l280 84q14 100 53 136q333 370 333 582v31l-8 45q-82 242 -318 242h-30zM475 298q-193 0 -235 -189q14 -121 99 -121h30q227 53 227 197v15
q0 66 -114 98h-7z" />
    <glyph glyph-name="at" unicode="@" horiz-adv-x="1834" 
d="M730 327q16 -78 260 -31l-6 124q-264 24 -254 -93zM1426 210q228 95 226 443q-14 330 -248 498q-198 129 -472 121q-264 0 -503 -191.5t-239 -553.5t261.5 -574t531.5 -212q281 0 595 151v-54v-66q-315 -199 -617 -199q-260 0 -493.5 130.5t-356 349.5t-122.5 455
t124.5 459t358.5 349.5t489 126.5q391 0 646.5 -238t255.5 -567q0 -263 -183 -474q-132 -151 -319 -160q-129 19 -205 110q-141 -120 -385 -99q-253 49 -274 309q-14 171 138 276q148 81 332 26q-9 216 -93 205q-124 -20 -228 -191l-213 130q272 394 585 295
q174 -39 225 -323l34 -462q33 -85 149 -70z" />
    <glyph glyph-name="A" unicode="A" horiz-adv-x="1173" 
d="M387 1434h407l418 -1194l-415 -242l-57 198h-322l-78 -190l-390 194zM491 460l225 8l-76 254h-62z" />
    <glyph glyph-name="B" unicode="B" horiz-adv-x="1174" 
d="M662 1408q296 -90 277 -348q-28 -116 -155 -222l82 -19q311 -110 331 -352q10 -160 -68 -287q-203 -233 -974 -184l-176 1303q372 172 683 109zM456 1102l14 -138q146 39 159 131q-4 26 -35 36q-58 13 -138 -29zM518 335q259 23 265 112q11 49 -46 63q-108 25 -227 -17z
" />
    <glyph glyph-name="C" unicode="C" horiz-adv-x="1116" 
d="M610 1433q338 47 517 -249l-296 -245q-94 89 -188 75q-248 -49 -250 -331q46 -228 224 -206q80 12 185 128l342 -147q-128 -406 -570 -461q-319 -33 -512 335q-59 126 -68 244q-74 522 445 807q56 34 171 50z" />
    <glyph glyph-name="D" unicode="D" horiz-adv-x="1245" 
d="M777 1405q441 -145 486 -517q11 -114 -21 -235q-74 -333 -504 -581q-282 -110 -547 -103l-204 1373q376 144 790 63zM522 1052l69 -632q228 98 282 342q27 162 -110 255q-129 63 -241 35z" />
    <glyph glyph-name="E" unicode="E" horiz-adv-x="1128" 
d="M1140 1434l-47 -407l-605 -56l19 -131l420 13l-32 -275l-361 -29l15 -156l600 39l-61 -397q-3 -19 -957 -37l-133 1351z" />
    <glyph glyph-name="F" unicode="F" horiz-adv-x="1115" 
d="M1133 1440l-47 -405l-591 -56l9 -130l417 13l-31 -273l-359 -29l55 -499l-442 -59l-166 1353z" />
    <glyph glyph-name="G" unicode="G" horiz-adv-x="1112" 
d="M666 1443q324 0 467 -237l-303 -254q-91 57 -197 57q-255 -5 -291 -290q9 -242 233 -252q78 10 124 67l-156 33l26 180l482 66q24 -129 24 -238q0 -452 -466 -573q-50 -10 -165 -8q-280 0 -426 409q-32 101 -32 262q8 512 417 729q175 49 263 49z" />
    <glyph glyph-name="H" unicode="H" horiz-adv-x="1218" 
d="M760 1400l374 -86l90 -1140l-408 -160l-16 396h-375l-25 -404l-402 146l87 1180l395 94l-23 -604h315z" />
    <glyph glyph-name="I" unicode="I" horiz-adv-x="843" 
d="M759 1434l35 -404q-107 8 -208 8l31 -659l208 -23l-41 -364h-777l-23 354l198 33v668l-181 -10l49 372z" />
    <glyph glyph-name="J" unicode="J" horiz-adv-x="949" 
d="M977 1466q-24 -843 -80 -1011q-127 -425 -488 -460q-367 -4 -419 350q-18 213 104 422l256 -192q4 -95 74 -93q130 12 110 863z" />
    <glyph glyph-name="K" unicode="K" 
d="M765 1436l196 -275l-282 -336l462 -455l-360 -329l-337 423l-24 -472l-431 149l94 1216q27 0 337 63l24 -360z" />
    <glyph glyph-name="L" unicode="L" horiz-adv-x="1012" 
d="M480 1436l-76 -1013l625 8q-16 -306 -16 -387l-1020 -46l54 1382z" />
    <glyph glyph-name="M" unicode="M" horiz-adv-x="1507" 
d="M297 1433h263l174 -323l146 323h279l380 -1105l-452 -295l-213 601l-131 -189l-140 173l-156 -616l-459 246z" />
    <glyph glyph-name="N" unicode="N" horiz-adv-x="1158" 
d="M1180 1434q-137 -1371 -162 -1436h-266l-324 568l-58 -568h-360q-4 537 52 1381h349l229 -454l133 478z" />
    <glyph glyph-name="O" unicode="O" horiz-adv-x="1216" 
d="M710 1434q352 -8 492 -314q41 -123 34 -271q0 -346 -246 -652q-199 -195 -508 -195q-360 29 -468 394q-33 118 -32 267q41 542 499 732q121 39 229 39zM380 629q22 -195 178 -195q143 0 288 204q48 89 42 220q0 195 -169 195q-175 0 -314 -255q-31 -86 -25 -169z" />
    <glyph glyph-name="P" unicode="P" horiz-adv-x="1141" 
d="M714 1422q312 -45 439 -316q25 -66 13 -155q-36 -254 -365 -364q-140 -36 -243 -34l24 -512l-449 -49l-155 1381q538 77 736 49zM520 1025l12 -157q243 20 252 86q10 67 -72 89q-93 12 -192 -18z" />
    <glyph glyph-name="Q" unicode="Q" horiz-adv-x="1220" 
d="M751 1434q346 -20 457 -314q34 -133 34 -271q8 -321 -173 -571l76 -85l-216 -191l-94 76q-162 -76 -330 -76q-375 22 -492 449q-25 109 -25 212q0 532 559 746q93 30 204 25zM386 629q22 -195 178 -195q44 4 85 17l-51 195l119 93l110 -135q68 117 68 254q0 195 -170 195
q-174 0 -313 -255q-30 -79 -26 -169z" />
    <glyph glyph-name="R" unicode="R" horiz-adv-x="1224" 
d="M684 1425q294 -19 460 -282q30 -71 25 -160q-9 -182 -243 -346q42 -37 329 -409l-337 -224l-326 468l20 -410l-436 -60l-207 1344q123 43 611 84zM538 1025l16 -152q235 19 239 97q3 49 -63 61q-77 8 -192 -6z" />
    <glyph glyph-name="S" unicode="S" horiz-adv-x="1053" 
d="M1037 1242l-174 -318q-489 215 -479 59q30 -69 204 -114q516 -213 503 -507q5 -188 -230 -309q-94 -49 -298 -63q-236 -7 -536 170l138 306q457 -185 455 -53q-17 64 -392 214q-242 133 -238 374q-21 247 295 405q379 99 752 -164z" />
    <glyph glyph-name="T" unicode="T" horiz-adv-x="1070" 
d="M1023 1439q45 -238 72 -425q-189 8 -345 8q17 -590 0 -1020h-370q-32 258 -24 867l-2 150q-176 0 -367 -15q27 264 64 427q409 8 972 8z" />
    <glyph glyph-name="U" unicode="U" horiz-adv-x="1053" 
d="M-4 1434l414 -57q-13 -395 3 -809q29 -83 107 -63q165 -6 92 832l445 81q12 -508 -122 -1044q-123 -351 -462 -372q-464 0 -464 671z" />
    <glyph glyph-name="V" unicode="V" horiz-adv-x="1145" 
d="M731 1434l451 -238l-375 -1196l-404 -2l-423 1182q79 48 451 214q16 -30 166 -585z" />
    <glyph glyph-name="W" unicode="W" horiz-adv-x="1474" 
d="M443 1434l244 -699l147 154l113 -187l147 642l414 -227l-308 -1118h-325l-64 223l-131 -224h-276l-424 1216z" />
    <glyph glyph-name="X" unicode="X" horiz-adv-x="1436" 
d="M1267 1434l205 -332l-332 -356l261 -356l-380 -356l-292 379q-221 -276 -356 -411q-311 190 -406 239l524 536l-332 428l411 221l277 -356z" />
    <glyph glyph-name="Y" unicode="Y" horiz-adv-x="1046" 
d="M261 1414l308 -407l200 422l321 -261l-580 -1176l-394 282l255 426l-400 462z" />
    <glyph glyph-name="Z" unicode="Z" horiz-adv-x="1149" 
d="M100 1430h954l7 -200l-522 -837q209 17 627 78l-61 -453l-1089 -26l-9 218l532 854h-552z" />
    <glyph glyph-name="bracketleft" unicode="[" 
d="M498 -248l-20 1833l516 -10l-10 -122l-233 -1l-3 -1578l236 10l10 -122z" />
    <glyph glyph-name="backslash" unicode="\" horiz-adv-x="641" 
d="M678 50l-205 -90l-502 1394l205 80z" />
    <glyph glyph-name="bracketright" unicode="]" horiz-adv-x="4760" 
d="M4266 -248l-496 10l10 132l236 -10l-3 1568l-233 1l-10 122l516 10z" />
    <glyph glyph-name="asciicircum" unicode="^" horiz-adv-x="1014" 
d="M775 462l-250 637l-247 -637l-306 100l421 848h265l424 -848z" />
    <glyph glyph-name="underscore" unicode="_" horiz-adv-x="1024" 
d="M10 0h1024l-10 -220h-1024z" />
    <glyph glyph-name="grave" unicode="`" horiz-adv-x="1024" 
d="M743 1150l-70 -102l-378 201l22 57l209 129z" />
    <glyph glyph-name="a" unicode="a" horiz-adv-x="880" 
d="M529 1039q253 11 311 -367q47 -338 66 -589l-329 -96l-11 63q-138 -54 -294 -53q-253 45 -272 305q0 219 287 254q124 16 235 1q-8 173 -61 180q-94 3 -247 -169l-216 171q207 307 531 300zM302 284q16 -34 91 -35q62 2 149 19l-10 98l-87 -1q-150 -1 -143 -81z" />
    <glyph glyph-name="b" unicode="b" horiz-adv-x="988" 
d="M376 1446l8 -529q130 79 313 79q189 0 271 -229q45 -217 14 -496q-55 -267 -396 -274q-105 0 -238 64l-6 -80l-348 57l24 495q-1 365 -8 825zM376 301q241 -23 273 90q31 290 -135 318q-64 4 -127 -13z" />
    <glyph glyph-name="c" unicode="c" horiz-adv-x="839" 
d="M458 1028q267 11 430 -161l-203 -211q-78 68 -169 67q-146 -4 -168 -177q-11 -167 127 -194q89 -16 195 84l177 -169q-176 -273 -490 -270q-210 0 -304 203q-51 113 -51 262q4 342 169 473q99 93 287 93z" />
    <glyph glyph-name="d" unicode="d" horiz-adv-x="1021" 
d="M649 1452q359 -76 371 -99q-70 -839 -16 -1327l-347 -58l-8 82q-118 -57 -223 -57h-49q-263 0 -346 248q-17 68 -25 183l-6 93q-4 257 119.5 360.5t284.5 94.5q107 -4 198 -79q-3 128 30 551zM343 533l1 -50q8 -193 157 -193l108 6l-10 334q-59 34 -165 22
q-93 -24 -91 -119z" />
    <glyph glyph-name="e" unicode="e" horiz-adv-x="955" 
d="M792 942q159 -129 163 -345l-574 -261q38 -44 172.5 -47t334.5 169l76 -256q-292 -292 -636 -214q-283 113 -329 449q-7 213 60 355q152 230 397 227q199 13 336 -77zM299 580l337 149q-84 100 -242 50q-109 -59 -95 -199z" />
    <glyph glyph-name="f" unicode="f" horiz-adv-x="727" 
d="M924 1398l-117 -274q-87 25 -175 25q-233 0 -233 -198l275 -9l-67 -296l-218 -1q-11 -296 -6 -587l-392 -83q33 738 100 1140q107 325 416 325q280 4 417 -42z" />
    <glyph glyph-name="g" unicode="g" horiz-adv-x="962" 
d="M966 1043q-22 -506 -26 -789.5t-48 -488t-360 -202.5q-248 13 -406 204l145 191q96 -59 229 -63q108 9 103 242q-124 -83 -316 -79q-195 0 -272 238q-28 96 -22 292q6 206 117 323q106 81 296 81q98 0 221 -63l9 76zM345 578q-15 -183 134 -210q92 0 132 38v278
q-71 16 -124 14q-129 2 -142 -120z" />
    <glyph glyph-name="h" unicode="h" horiz-adv-x="881" 
d="M328 1448l-7 -523q252 97 394 37q197 -66 173 -397q-6 -172 -17 -566l-297 1q6 153 -1 495q-16 90 -93 80q-110 0 -130 -118l-14 -458h-306l-8 709l-8 676z" />
    <glyph glyph-name="i" unicode="i" horiz-adv-x="570" 
d="M379 1390q117 -3 134 -96q11 -251 -278 -256q-106 7 -118 123q-18 197 262 229zM425 882q-84 -254 -68 -434q21 -127 129 -52l130 -271q-102 -106 -281 -119q-311 -16 -330 352q-28 254 73 602z" />
    <glyph glyph-name="j" unicode="j" horiz-adv-x="453" 
d="M443 1013q18 -176 16 -356q7 -922 -215 -1047q-49 -38 -208 -41q-234 0 -319 145l184 216q51 -46 132 1t77 356t-24 668zM323 1371q116 -9 129 -103q3 -198 -257 -241h-35q-105 12 -111 129q-8 198 274 215z" />
    <glyph glyph-name="k" unicode="k" horiz-adv-x="900" 
d="M512 1315q-49 -330 -61 -544l375 184l86 -258l-293 -181q130 -111 282 -290l-236 -221l-275 286q-32 -160 -56 -293h-327l141 1444z" />
    <glyph glyph-name="l" unicode="l" horiz-adv-x="580" 
d="M506 1454q-178 -764 -178 -977q0 -138 71 -138q52 3 87 49l151 -204q-95 -189 -333 -184q-214 0 -265 153q-40 101 -40 267q-10 436 145 1010z" />
    <glyph glyph-name="m" unicode="m" horiz-adv-x="1420" 
d="M315 1044l9 -67q148 36 238 26q121 -10 213 -68q94 102 323 102q181 0 289 -187q34 -100 34 -204q0 -416 -24 -647h-304q1 194 0 565q-9 91 -100 99q-122 -2 -110 -180l2 -484h-296l-3 197l-2 322q-7 72 -90 84q-123 -1 -125 -124l-7 -479h-344l3 477q-1 296 -29 510z
" />
    <glyph glyph-name="n" unicode="n" horiz-adv-x="938" 
d="M315 1059l9 -77q156 46 274 47q183 -10 284 -139q62 -107 59 -265l-23 -627h-318l6 522q3 144 -90 153q-111 9 -146 -93q-20 -107 -18 -582h-336l-7 650q0 147 -19 343z" />
    <glyph glyph-name="o" unicode="o" horiz-adv-x="945" 
d="M550 1034q290 0 383 -250q19 -58 16 -149q0 -289 -241 -533q-120 -114 -341 -108q-332 9 -366 408q-18 360 261 542q152 90 288 90zM330 446q17 -105 105 -105q192 32 201 202q7 138 -97 142q-205 -34 -209 -239z" />
    <glyph glyph-name="p" unicode="p" horiz-adv-x="996" 
d="M360 1047q8 -8 16 -97q153 65 260 65q253 0 342 -230q38 -138 23 -332q0 -191 -195 -325q-179 -108 -390 8q-23 -551 -56 -551q-354 75 -366 97q56 566 54 902l-5 414q43 17 317 49zM400 722l8 -261v-73l98 -16q162 0 168 177l1 68q-7 124 -153 121z" />
    <glyph glyph-name="q" unicode="q" horiz-adv-x="970" 
d="M639 1022l330 -49q-40 -550 8 -1348l-375 -74l-9 524q-86 -11 -228 -8q-269 6 -359 277q-30 159 -16 271q8 319 391 366q162 8 253 -41zM332 576q4 -201 159 -228q58 -5 111 12l3 328q-80 24 -134 24q-136 -7 -139 -136z" />
    <glyph glyph-name="r" unicode="r" horiz-adv-x="791" 
d="M392 1040l-10 -263q183 178 297 187l144 -271q-310 -81 -432 -314l11 -381h-404l37 966z" />
    <glyph glyph-name="s" unicode="s" horiz-adv-x="782" 
d="M380 1039q207 5 407 -231l-177 -178q-175 135 -262 135q-58 -10 -59 -49q14 -47 270 -150q243 -146 226 -351q-44 -195 -258 -219q-79 -16 -204 -7q-208 31 -363 219l160 203q167 -127 237 -127q45 0 59 34q0 54 -213 126q-209 104 -209 304q9 274 386 291z" />
    <glyph glyph-name="t" unicode="t" horiz-adv-x="674" 
d="M577 1446l-48 -357l118 -9l27 -260l-207 -7q-117 -449 13 -484q47 -4 81 24l152 -225q-137 -137 -329 -137q-221 0 -273 177q-58 245 8 648l-167 6l45 264l170 11l38 311z" />
    <glyph glyph-name="u" unicode="u" horiz-adv-x="845" 
d="M347 1040l-29 -405q-2 -260 104 -251q98 -19 85 369l-14 270l338 -76q45 -640 -53 -758q-127 -183 -389 -194q-171 0 -295 143q-93 154 -93 363q-7 183 17 488z" />
    <glyph glyph-name="v" unicode="v" horiz-adv-x="817" 
d="M324 1047l78 -545q50 358 92 520l324 -137q-213 -828 -239 -886h-349q-35 31 -230 988z" />
    <glyph glyph-name="w" unicode="w" horiz-adv-x="1158" 
d="M327 1066q37 -118 93 -583l142 110l128 -110q76 363 127 524q326 -131 354 -161l-188 -846h-278l-133 162l-137 -162h-220l-133 517l-93 380z" />
    <glyph glyph-name="x" unicode="x" horiz-adv-x="1066" 
d="M817 1049l244 -226l-285 -289l309 -285l-269 -269l-285 293l-306 -293l-230 230l322 324l-231 287l235 190l230 -238z" />
    <glyph glyph-name="y" unicode="y" horiz-adv-x="902" 
d="M891 979l35 -322q4 -542 -242.5 -796t-424.5 -291l-200 281q285 152 449 361h-138q-320 -1 -362 322q-10 206 3 407l289 72v-80q0 -360 89 -410q115 -42 179 1q4 267 -36 515z" />
    <glyph glyph-name="z" unicode="z" horiz-adv-x="874" 
d="M837 1021l8 -17v-184q-57 -74 -386 -454v-8l17 8q355 17 394 17q0 8 9 8l8 -16q-42 -352 -59 -378q-667 -17 -806 -17l-8 17v159q0 49 -9 135l353 386h-344q-17 0 -17 17q79 272 101 302q68 8 739 25z" />
    <glyph glyph-name="braceleft" unicode="{" 
d="M340 723q83 5 128.5 13.5t45.5 85.5v758l476 5v-102h-238l-6 -749l-113 -65v-2l114 -64l5 -749h238v-102l-476 -3v766q0 76 -45.5 84.5t-128.5 13.5v110z" />
    <glyph glyph-name="bar" unicode="|" 
d="M426 1563l256 20v-1987l-256 -20v1987z" />
    <glyph glyph-name="braceright" unicode="}" 
d="M768 613q-83 -5 -128.5 -13.5t-45.5 -84.5v-766l-476 3v102l244 -1l-1 750l115 64v2l-114 65l-4 746l-240 3v102l476 5v-768q0 -77 45.5 -85.5t128.5 -13.5v-110z" />
    <glyph glyph-name="asciitilde" unicode="~" 
d="M948 878l120 -163q-103 -113 -180 -139.5t-138 -26.5q-63 0 -200 48.5t-193 48.5q-47 0 -100.5 -26.5t-116.5 -113.5l-110 153q124 153 196 180.5t131 27.5q67 0 204 -49.5t189 -49.5q48 0 101.5 26.5t96.5 83.5z" />
    <glyph glyph-name="exclamdown" unicode="&#xa1;" horiz-adv-x="393" 
d="M315 -450q-340 111 -355 126q96 906 111 933q23 0 274 59q0 -7 7 -7q-7 -136 -22 -1104zM145 720h-15q-111 32 -111 104q0 146 222 200h22q104 0 104 -104v-22q0 -144 -222 -178z" />
    <glyph glyph-name="cent" unicode="&#xa2;" horiz-adv-x="839" 
d="M685 656q-78 68 -169 67q-146 -4 -168 -177q-11 -167 127 -194q89 -16 195 84l177 -169q-115 -252 -393 -267l-24 -106l-263 36l17 112q-81 51 -131 158q-51 113 -51 262q4 342 169 473q83 78 227 90l20 113l216 -37l-10 -86q155 -33 264 -148z" />
    <glyph glyph-name="sterling" unicode="&#xa3;" horiz-adv-x="1028" 
d="M530 1429q273 0 500 -198l-143 -279q-184 131 -316 131q-216 -6 -147 -275l280 7l8 -283l-253 -3q3 -120 -53 -208q256 0 543 31l113 -350q-253 -11 -1002 -11q-21 76 -13 238q101 208 96 288l-146 11q11 190 7 278l133 7q-54 91 -52 203q0 122 55 230q134 183 390 183z
" />
    <glyph glyph-name="currency" unicode="&#xa4;" 
d="M463 609q27 -23 61 -32q18 -4 34 -4q17 0 35 4q33 9 60 32q31 27 45 69q7 22 7 43t-7 42q-14 42 -45 69q-27 23 -61 32q-18 4 -34 4q-18 0 -35 -5q-34 -9 -60 -31q-30 -26 -44 -68q-8 -22 -8 -44q0 -20 7 -41q14 -43 45 -70zM252 904l-117 117l114 115l125 -125
q11 8 74 26q54 17 108 17q50 0 101 -14q65 -20 78 -28l124 124l114 -115l-116 -116q35 -52 52 -107q11 -40 11 -81q0 -40 -11 -81q-17 -55 -52 -107l116 -116l-114 -115l-124 124q-13 -9 -78 -28q-51 -14 -102 -14t-103 14q-66 19 -79 28l-124 -124l-114 115l117 116
q-36 52 -52 108q-11 40 -11 80q0 42 12 83q16 54 51 104z" />
    <glyph glyph-name="yen" unicode="&#xa5;" horiz-adv-x="1162" 
d="M281 1434l308 -377l300 362l301 -201l-450 -436l-1 -171l160 -5l-11 -181l-150 -1l-1 -69l150 -2l9 -179l-160 -1l-1 -180l-319 1l-8 175l-171 -5l14 186l149 -1l-2 72l-152 -2l-5 191l149 1l-9 199l-400 462z" />
    <glyph glyph-name="brokenbar" unicode="&#xa6;" 
d="M426 371h256v-789h-256v789zM426 1434h256v-789h-256v789z" />
    <glyph glyph-name="section" unicode="&#xa7;" 
d="M599 332q122 74 122 206v6q-1 91 -67 137t-138 46q-54 0 -94 -38t-40 -118q0 -128 217 -239zM513 -339q88 4 148 57q71 63 71 170q0 130 -306 276q-132 69 -185 142.5t-53 171.5q0 141 89 230q76 74 177 91q-155 68 -215 150.5t-60 180.5q0 141 91.5 235t268.5 95
q135 0 218 -19t83 -45v-200h-77q-5 94 -65 137t-178 46q-67 0 -107 -38t-40 -118q0 -137 276 -269q158 -71 214.5 -148.5t56.5 -182.5q0 -164 -101 -275q-52 -44 -109 -71q117 -61 168 -131t51 -174q0 -164 -120 -278.5t-334 -115.5q-111 0 -193.5 19.5t-82.5 44.5v200h87
q5 -93 64 -135.5t163 -45.5z" />
    <glyph glyph-name="dieresis" unicode="&#xa8;" horiz-adv-x="1024" 
d="M207 1367l282 13l-28 -232l-270 18zM594 1365l282 13l-28 -232l-270 18z" />
    <glyph glyph-name="copyright" unicode="&#xa9;" horiz-adv-x="1674" 
d="M840 1462q152 0 291 -60.5t243 -169.5q99 -102 152.5 -237.5t53.5 -276.5q0 -142 -53.5 -275.5t-156.5 -239.5q-105 -110 -243 -168.5t-294 -58.5q-153 0 -289 59.5t-242 169.5q-103 105 -155.5 237t-52.5 276q0 143 52.5 276.5t153.5 237.5q102 109 242.5 169.5
t297.5 60.5zM369 1180q-83 -81 -135.5 -201.5t-52.5 -257.5q0 -138 52.5 -257t149.5 -212q94 -88 206.5 -133.5t236.5 -45.5q125 0 239 45t207 132q97 94 150.5 214.5t53.5 256.5q0 135 -53.5 257.5t-146.5 212.5q-92 88 -207.5 134t-238.5 46q-125 0 -241.5 -46
t-219.5 -145zM826 1321q275 39 422 -208l-205 -118q-95 85 -210 73q-244 -42 -250 -374q31 -293 239 -298q103 10 188 107l251 3q-104 -339 -464 -385q-261 -28 -418 279q-48 106 -55 205q-61 436 284 640q124 63 218 76z" />
    <glyph glyph-name="ordfeminine" unicode="&#xaa;" horiz-adv-x="654" 
d="M386 1439q184 8 227 -268q34 -247 48 -430l-240 -70l-8 46q-101 -39 -215 -39q-185 33 -199 223q0 160 210 185q91 12 172 1q-6 127 -45 132q-69 2 -180 -124l-158 125q151 224 388 219zM220 888q12 -25 66 -26q46 2 109 14l-7 72l-64 -1q-109 -1 -104 -59z" />
    <glyph glyph-name="guillemotleft" unicode="&#xab;" horiz-adv-x="987" 
d="M174 479l253 313l148 -147l-205 -166l205 -166l-148 -147zM485 479l253 313l148 -147l-205 -166l205 -166l-148 -147z" />
    <glyph glyph-name="logicalnot" unicode="&#xac;" 
d="M106 813l896 10l-10 -533l-1 -1l-214 -20l10 352l-701 -10z" />
    <glyph glyph-name="registered" unicode="&#xae;" horiz-adv-x="1674" 
d="M840 1462q152 0 291 -60.5t243 -169.5q99 -102 152.5 -237.5t53.5 -276.5q0 -142 -53.5 -275.5t-156.5 -239.5q-105 -110 -243 -168.5t-294 -58.5q-153 0 -289 59.5t-242 169.5q-103 105 -155.5 237t-52.5 276q0 143 52.5 276.5t153.5 237.5q102 109 242.5 169.5
t297.5 60.5zM381 1171q-80 -80 -132 -198.5t-52 -252.5q0 -135 52 -252t146 -208q93 -87 203.5 -131.5t231.5 -44.5q122 0 234 44t204 130q94 92 147 210.5t53 251.5q0 132 -53 252.5t-143 208.5q-91 87 -204.5 132t-233.5 45q-122 0 -236.5 -45t-216.5 -142zM890 1290
q242 -15 378 -232q25 -58 21 -131q-7 -179 -270 -285q35 -30 345 -220l-258 -237l-379 415l14 -411l-269 -69q-15 116 -162 1105q101 36 494 69zM687 1027l19 -191q290 23 294 116q4 68 -75 82q-91 10 -238 -7z" />
    <glyph glyph-name="macron" unicode="&#xaf;" horiz-adv-x="774" 
d="M78 1169l11 270l616 30l-29 -310z" />
    <glyph glyph-name="degree" unicode="&#xb0;" horiz-adv-x="685" 
d="M403 1434q213 0 281 -183q14 -43 12 -110q0 -212 -177 -391q-88 -83 -250 -79q-243 7 -268 299q-13 264 191 398q112 66 211 66zM191 986q18 -109 110 -109q200 33 209 210q8 144 -101 148q-214 -35 -218 -249z" />
    <glyph glyph-name="plusminus" unicode="&#xb1;" 
d="M442 617l-222 10l10 180h222l10 260l214 20v-280h232l20 -210l-252 10v-240l-244 -10zM150 0l20 200h808l-20 -200h-808z" />
    <glyph glyph-name="uni00B2" unicode="&#xb2;" horiz-adv-x="525" 
d="M302 1439q176 -7 195 -165q13 -134 -229 -385l264 13l-21 -197l-493 -19l7 178q214 229 284 335q13 56 -49 58q-56 -5 -162 -132l-110 115q119 199 314 199z" />
    <glyph glyph-name="uni00B3" unicode="&#xb3;" horiz-adv-x="507" 
d="M262 1439q132 0 201 -94q28 -56 28 -119q0 -77 -57 -156q82 -56 82 -160q0 -213 -254 -213q-144 0 -275 98l74 150q132 -78 208 -78q68 8 68 55q0 53 -101 53l-68 1l4 146l80 6q57 24 57 77q0 47 -69 55q-68 0 -163 -67l-73 144q117 102 258 102z" />
    <glyph glyph-name="acute" unicode="&#xb4;" horiz-adv-x="1024" 
d="M537 1414l66 7l103 -226l-399 -137l-95 80z" />
    <glyph glyph-name="uni00B5" unicode="&#xb5;" horiz-adv-x="867" 
d="M347 1040l-29 -405q-2 -260 104 -251q98 -19 85 369l-14 270l328 -76q43 -438 -2 -630q25 -26 78 -28q-39 -199 -79 -299q-127 -5 -174 62q-139 -82 -299 -31l-3 -423l-327 6l6 897l-3 488z" />
    <glyph glyph-name="paragraph" unicode="&#xb6;" horiz-adv-x="1172" 
d="M1190 1441l-20 -312h-67v-1145l-248 10v1115l-130 -10v-1105l-250 -20v700q-161 7 -269 117.5t-108 254.5q0 170 114.5 272.5t316.5 102.5z" />
    <glyph glyph-name="periodcentered" unicode="&#xb7;" horiz-adv-x="553" 
d="M147 717q0 54 38 92t92 38t92 -38t38 -92t-38 -92t-92 -38t-92 38t-38 92z" />
    <glyph glyph-name="periodcentered" unicode="&#x2219;" horiz-adv-x="553" 
d="M147 717q0 54 38 92t92 38t92 -38t38 -92t-38 -92t-92 -38t-92 38t-38 92z" />
    <glyph glyph-name="cedilla" unicode="&#xb8;" horiz-adv-x="1068" 
d="M385 -247q86 -61 144 -61q55 0 78 17t23 41q0 31 -41 47q-30 11 -103 11q-24 0 -54 -2l54 194h137l-35 -87q2 1 34 2q78 0 131.5 -45t53.5 -119q0 -78 -64 -126.5t-177 -48.5q-115 0 -221 58z" />
    <glyph glyph-name="uni00B9" unicode="&#xb9;" horiz-adv-x="312" 
d="M311 1455l-38 -775l-224 35l43 524l-96 -6l26 203z" />
    <glyph glyph-name="ordmasculine" unicode="&#xba;" horiz-adv-x="685" 
d="M403 1434q213 0 281 -183q14 -43 12 -110q0 -212 -177 -391q-88 -83 -250 -79q-243 7 -268 299q-13 264 191 398q112 66 211 66zM242 1003q13 -77 77 -77q141 23 148 148q5 101 -72 104q-150 -25 -153 -175z" />
    <glyph glyph-name="guillemotright" unicode="&#xbb;" horiz-adv-x="987" 
d="M560 166l-148 147l205 166l-205 166l148 147l253 -313zM249 166l-148 147l205 166l-205 166l148 147l253 -313z" />
    <glyph glyph-name="onequarter" unicode="&#xbc;" horiz-adv-x="1155" 
d="M311 1455l-38 -775l-224 35l43 524l-96 -6l26 203zM158 -60l-205 40l948 1464l205 -40zM1117 661l-21 -378l77 1l-27 -166h-54l-18 -231l-197 34l14 197l-281 -2l-4 163l318 385zM915 424l-104 -141h102l13 141h-11z" />
    <glyph glyph-name="onehalf" unicode="&#xbd;" horiz-adv-x="1152" 
d="M311 1455l-38 -775l-224 35l43 524l-96 -6l26 203zM158 -60l-205 40l948 1464l205 -40zM939 719q172 -7 191 -161q13 -131 -224 -376l258 13l-21 -192l-481 -19l7 174q209 223 277 327q13 54 -48 57q-54 -5 -157 -129l-108 112q116 194 306 194z" />
    <glyph glyph-name="threequarters" unicode="&#xbe;" horiz-adv-x="1283" 
d="M278 -60l-205 40l948 1464l205 -40zM1237 661l-21 -378l77 1l-27 -166h-54l-18 -231l-197 34l14 197l-281 -2l-4 163l318 385zM1035 424l-104 -141h102l13 141h-11zM262 1439q132 0 201 -94q28 -56 28 -119q0 -77 -57 -156q82 -56 82 -160q0 -213 -254 -213
q-144 0 -275 98l74 150q132 -78 208 -78q68 8 68 55q0 53 -101 53l-68 1l4 146l80 6q57 24 57 77q0 47 -69 55q-68 0 -163 -67l-73 144q117 102 258 102z" />
    <glyph glyph-name="questiondown" unicode="&#xbf;" horiz-adv-x="926" 
d="M359 -436q340 0 552 363l-189 197h-8q-170 -235 -257 -235q-97 0 -113 91v8q0 41 68 113q272 279 272 446q0 98 -15 137l-280 -84q-14 -100 -53 -136q-333 -370 -333 -582v-31l8 -45q82 -242 318 -242h30zM419 714q193 0 235 189q-14 121 -99 121h-30q-227 -53 -227 -197
v-15q0 -66 114 -98h7z" />
    <glyph glyph-name="Agrave" unicode="&#xc0;" horiz-adv-x="1173" 
d="M387 1434h407l418 -1194l-415 -242l-57 198h-322l-78 -190l-390 194zM491 460l225 8l-76 254h-62zM737 1560l-70 -102l-378 201l22 57l209 129z" />
    <glyph glyph-name="Aacute" unicode="&#xc1;" horiz-adv-x="1173" 
d="M387 1434h407l418 -1194l-415 -242l-57 198h-322l-78 -190l-390 194zM491 460l225 8l-76 254h-62zM759 1824l66 7l103 -226l-399 -137l-95 80z" />
    <glyph glyph-name="Acircumflex" unicode="&#xc2;" horiz-adv-x="1173" 
d="M387 1434h407l418 -1194l-415 -242l-57 198h-322l-78 -190l-390 194zM491 460l225 8l-76 254h-62zM282 1519l245 328h149l245 -328l-249 -30l-70 116l-81 -116z" />
    <glyph glyph-name="Atilde" unicode="&#xc3;" horiz-adv-x="1173" 
d="M387 1434h407l418 -1194l-415 -242l-57 198h-322l-78 -190l-390 194zM491 460l225 8l-76 254h-62zM952 1801l9 -78q-2 -232 -243 -232q-103 4 -175.5 72t-122.5 53q-60 -10 -110 -86l-105 97q125 165 272 165q46 0 126.5 -58t157.5 -58q58 11 52 99z" />
    <glyph glyph-name="Adieresis" unicode="&#xc4;" horiz-adv-x="1173" 
d="M387 1434h407l418 -1194l-415 -242l-57 198h-322l-78 -190l-390 194zM491 460l225 8l-76 254h-62zM268 1777l282 13l-28 -232l-270 18zM655 1775l282 13l-28 -232l-270 18z" />
    <glyph glyph-name="Aring" unicode="&#xc5;" horiz-adv-x="1173" 
d="M387 1434h407l418 -1194l-415 -242l-57 198h-322l-78 -190l-390 194zM491 460l225 8l-76 254h-62zM514 1684q0 -39 27 -63t60 -24q32 0 59 24t27 63q0 38 -27.5 62t-58.5 24q-32 0 -59.5 -24t-27.5 -62zM402 1684q0 78 55.5 136t142.5 58q89 0 145 -58.5t56 -135.5
q0 -79 -56 -137t-145 -58q-87 0 -142.5 58t-55.5 137z" />
    <glyph glyph-name="AE" unicode="&#xc6;" horiz-adv-x="1791" 
d="M387 1434h407l418 -1194l-415 -242l-57 198h-322l-78 -190l-390 194zM491 460l225 8l-76 254h-62zM1844 1434l-47 -407l-605 -56l19 -131l420 13l-32 -275l-361 -29l15 -156l600 39l-61 -397q-3 -19 -957 -37l-133 1351z" />
    <glyph glyph-name="Ccedilla" unicode="&#xc7;" horiz-adv-x="1116" 
d="M610 1433q338 47 517 -249l-296 -245q-94 89 -188 75q-248 -49 -250 -331q46 -228 224 -206q80 12 185 128l342 -147q-128 -406 -570 -461q-319 -33 -512 335q-59 126 -68 244q-74 522 445 807q56 34 171 50zM368 -247q86 -61 144 -61q55 0 78 17t23 41q0 31 -41 47
q-30 11 -103 11q-24 0 -54 -2l54 194h137l-35 -87q2 1 34 2q78 0 131.5 -45t53.5 -119q0 -78 -64 -126.5t-177 -48.5q-115 0 -221 58z" />
    <glyph glyph-name="Egrave" unicode="&#xc8;" horiz-adv-x="1128" 
d="M1140 1434l-47 -407l-605 -56l19 -131l420 13l-32 -275l-361 -29l15 -156l600 39l-61 -397q-3 -19 -957 -37l-133 1351zM707 1560l-70 -102l-378 201l22 57l209 129z" />
    <glyph glyph-name="Eacute" unicode="&#xc9;" horiz-adv-x="1128" 
d="M1140 1434l-47 -407l-605 -56l19 -131l420 13l-32 -275l-361 -29l15 -156l600 39l-61 -397q-3 -19 -957 -37l-133 1351zM730 1824l66 7l103 -226l-399 -137l-95 80z" />
    <glyph glyph-name="Ecircumflex" unicode="&#xca;" horiz-adv-x="1128" 
d="M1140 1434l-47 -407l-605 -56l19 -131l420 13l-32 -275l-361 -29l15 -156l600 39l-61 -397q-3 -19 -957 -37l-133 1351zM252 1519l245 328h149l245 -328l-249 -30l-70 116l-81 -116z" />
    <glyph glyph-name="Edieresis" unicode="&#xcb;" horiz-adv-x="1128" 
d="M1140 1434l-47 -407l-605 -56l19 -131l420 13l-32 -275l-361 -29l15 -156l600 39l-61 -397q-3 -19 -957 -37l-133 1351zM239 1777l282 13l-28 -232l-270 18zM626 1775l282 13l-28 -232l-270 18z" />
    <glyph glyph-name="Igrave" unicode="&#xcc;" horiz-adv-x="843" 
d="M759 1434l35 -404q-107 8 -208 8l31 -659l208 -23l-41 -364h-777l-23 354l198 33v668l-181 -10l49 372zM540 1560l-70 -102l-378 201l22 57l209 129z" />
    <glyph glyph-name="Iacute" unicode="&#xcd;" horiz-adv-x="843" 
d="M759 1434l35 -404q-107 8 -208 8l31 -659l208 -23l-41 -364h-777l-23 354l198 33v668l-181 -10l49 372zM563 1824l66 7l103 -226l-399 -137l-95 80z" />
    <glyph glyph-name="Icircumflex" unicode="&#xce;" horiz-adv-x="843" 
d="M759 1434l35 -404q-107 8 -208 8l31 -659l208 -23l-41 -364h-777l-23 354l198 33v668l-181 -10l49 372zM85 1519l245 328h149l245 -328l-249 -30l-70 116l-81 -116z" />
    <glyph glyph-name="Idieresis" unicode="&#xcf;" horiz-adv-x="843" 
d="M759 1434l35 -404q-107 8 -208 8l31 -659l208 -23l-41 -364h-777l-23 354l198 33v668l-181 -10l49 372zM72 1777l282 13l-28 -232l-270 18zM459 1775l282 13l-28 -232l-270 18z" />
    <glyph glyph-name="Eth" unicode="&#xd0;" horiz-adv-x="1289" 
d="M594 573l17 -153q228 98 282 342q27 162 -110 255q-129 63 -241 35l21 -190l126 17l21 -275zM118 798l-81 544q376 144 790 63q441 -145 486 -517q11 -114 -21 -235q-74 -333 -504 -581q-282 -110 -547 -103l-72 483l-129 -34l-82 359z" />
    <glyph glyph-name="Ntilde" unicode="&#xd1;" horiz-adv-x="1158" 
d="M1180 1434q-137 -1371 -162 -1436h-266l-324 568l-58 -568h-360q-4 537 52 1381h349l229 -454l133 478zM942 1801l9 -78q-2 -232 -243 -232q-103 4 -175.5 72t-122.5 53q-60 -10 -110 -86l-105 97q125 165 272 165q46 0 126.5 -58t157.5 -58q58 11 52 99z" />
    <glyph glyph-name="Ograve" unicode="&#xd2;" horiz-adv-x="1216" 
d="M710 1434q352 -8 492 -314q41 -123 34 -271q0 -346 -246 -652q-199 -195 -508 -195q-360 29 -468 394q-33 118 -32 267q41 542 499 732q121 39 229 39zM380 629q22 -195 178 -195q143 0 288 204q48 89 42 220q0 195 -169 195q-175 0 -314 -255q-31 -86 -25 -169z
M745 1560l-70 -102l-378 201l22 57l209 129z" />
    <glyph glyph-name="Oacute" unicode="&#xd3;" horiz-adv-x="1216" 
d="M710 1434q352 -8 492 -314q41 -123 34 -271q0 -346 -246 -652q-199 -195 -508 -195q-360 29 -468 394q-33 118 -32 267q41 542 499 732q121 39 229 39zM380 629q22 -195 178 -195q143 0 288 204q48 89 42 220q0 195 -169 195q-175 0 -314 -255q-31 -86 -25 -169z
M767 1824l66 7l103 -226l-399 -137l-95 80z" />
    <glyph glyph-name="Ocircumflex" unicode="&#xd4;" horiz-adv-x="1216" 
d="M710 1434q352 -8 492 -314q41 -123 34 -271q0 -346 -246 -652q-199 -195 -508 -195q-360 29 -468 394q-33 118 -32 267q41 542 499 732q121 39 229 39zM380 629q22 -195 178 -195q143 0 288 204q48 89 42 220q0 195 -169 195q-175 0 -314 -255q-31 -86 -25 -169z
M290 1519l245 328h149l245 -328l-249 -30l-70 116l-81 -116z" />
    <glyph glyph-name="Otilde" unicode="&#xd5;" horiz-adv-x="1216" 
d="M710 1434q352 -8 492 -314q41 -123 34 -271q0 -346 -246 -652q-199 -195 -508 -195q-360 29 -468 394q-33 118 -32 267q41 542 499 732q121 39 229 39zM380 629q22 -195 178 -195q143 0 288 204q48 89 42 220q0 195 -169 195q-175 0 -314 -255q-31 -86 -25 -169z
M960 1801l9 -78q-2 -232 -243 -232q-103 4 -175.5 72t-122.5 53q-60 -10 -110 -86l-105 97q125 165 272 165q46 0 126.5 -58t157.5 -58q58 11 52 99z" />
    <glyph glyph-name="Odieresis" unicode="&#xd6;" horiz-adv-x="1216" 
d="M710 1434q352 -8 492 -314q41 -123 34 -271q0 -346 -246 -652q-199 -195 -508 -195q-360 29 -468 394q-33 118 -32 267q41 542 499 732q121 39 229 39zM380 629q22 -195 178 -195q143 0 288 204q48 89 42 220q0 195 -169 195q-175 0 -314 -255q-31 -86 -25 -169z
M276 1777l282 13l-28 -232l-270 18zM663 1775l282 13l-28 -232l-270 18z" />
    <glyph glyph-name="multiply" unicode="&#xd7;" 
d="M544 554l-240 -240l-143 193l220 210l-220 200l153 213l240 -240l240 240l123 -213l-200 -190l220 -210l-143 -213z" />
    <glyph glyph-name="Oslash" unicode="&#xd8;" horiz-adv-x="1216" 
d="M710 1434q138 -3 264 -67l131 107l245 -257l-127 -112q20 -108 13 -256q0 -346 -246 -652q-199 -195 -508 -195q-158 13 -267 90l-119 -103l-217 252l135 155q-33 118 -32 267q41 542 499 732q121 39 229 39zM380 629q22 -195 178 -195q143 0 288 204q48 89 42 220
q0 195 -169 195q-175 0 -314 -255q-31 -86 -25 -169z" />
    <glyph glyph-name="Ugrave" unicode="&#xd9;" horiz-adv-x="1053" 
d="M-4 1434l414 -57q-13 -395 3 -809q29 -83 107 -63q165 -6 92 832l445 81q12 -508 -122 -1044q-123 -351 -462 -372q-464 0 -464 671zM673 1560l-70 -102l-378 201l22 57l209 129z" />
    <glyph glyph-name="Uacute" unicode="&#xda;" horiz-adv-x="1053" 
d="M-4 1434l414 -57q-13 -395 3 -809q29 -83 107 -63q165 -6 92 832l445 81q12 -508 -122 -1044q-123 -351 -462 -372q-464 0 -464 671zM695 1824l66 7l103 -226l-399 -137l-95 80z" />
    <glyph glyph-name="Ucircumflex" unicode="&#xdb;" horiz-adv-x="1053" 
d="M-4 1434l414 -57q-13 -395 3 -809q29 -83 107 -63q165 -6 92 832l445 81q12 -508 -122 -1044q-123 -351 -462 -372q-464 0 -464 671zM218 1519l245 328h149l245 -328l-249 -30l-70 116l-81 -116z" />
    <glyph glyph-name="Udieresis" unicode="&#xdc;" horiz-adv-x="1053" 
d="M-4 1434l414 -57q-13 -395 3 -809q29 -83 107 -63q165 -6 92 832l445 81q12 -508 -122 -1044q-123 -351 -462 -372q-464 0 -464 671zM204 1777l282 13l-28 -232l-270 18zM591 1775l282 13l-28 -232l-270 18z" />
    <glyph glyph-name="Yacute" unicode="&#xdd;" horiz-adv-x="1046" 
d="M261 1414l308 -407l200 422l321 -261l-580 -1176l-394 282l255 426l-400 462zM744 1824l66 7l103 -226l-399 -137l-95 80z" />
    <glyph glyph-name="Thorn" unicode="&#xde;" horiz-adv-x="1135" 
d="M640 1384q458 -96 503 -496q11 -114 -21 -235q-74 -333 -504 -561q-65 -44 -135 -55l7 -103l-444 -47l-49 1620l341 50l14 -132q125 -4 288 -41zM399 1078l52 -658q248 98 302 342q49 212 -143 298q-85 19 -211 18z" />
    <glyph glyph-name="germandbls" unicode="&#xdf;" horiz-adv-x="1252" 
d="M722 1408q296 -90 277 -348q-28 -116 -155 -232l82 -19q311 -110 331 -362q17 -184 -68 -307q-110 -126 -498 -179q-33 90 -48 315q283 39 288 120q-36 176 -311 144q-27 176 -53 302q62 79 81 124q75 153 -170 103q34 -1378 13 -1379q-228 -7 -401 3q39 528 40 1320
l-52 -5l-99 291q432 172 743 109z" />
    <glyph glyph-name="agrave" unicode="&#xe0;" horiz-adv-x="880" 
d="M529 1039q253 11 311 -367q47 -338 66 -589l-329 -96l-11 63q-138 -54 -294 -53q-253 45 -272 305q0 219 287 254q124 16 235 1q-8 173 -61 180q-94 3 -247 -169l-216 171q207 307 531 300zM302 284q16 -34 91 -35q62 2 149 19l-10 98l-87 -1q-150 -1 -143 -81zM589 1150
l-70 -102l-378 201l22 57l209 129z" />
    <glyph glyph-name="aacute" unicode="&#xe1;" horiz-adv-x="880" 
d="M529 1039q253 11 311 -367q47 -338 66 -589l-329 -96l-11 63q-138 -54 -294 -53q-253 45 -272 305q0 219 287 254q124 16 235 1q-8 173 -61 180q-94 3 -247 -169l-216 171q207 307 531 300zM302 284q16 -34 91 -35q62 2 149 19l-10 98l-87 -1q-150 -1 -143 -81zM611 1414
l66 7l103 -226l-399 -137l-95 80z" />
    <glyph glyph-name="acircumflex" unicode="&#xe2;" horiz-adv-x="880" 
d="M529 1039q253 11 311 -367q47 -338 66 -589l-329 -96l-11 63q-138 -54 -294 -53q-253 45 -272 305q0 219 287 254q124 16 235 1q-8 173 -61 180q-94 3 -247 -169l-216 171q207 307 531 300zM302 284q16 -34 91 -35q62 2 149 19l-10 98l-87 -1q-150 -1 -143 -81zM134 1109
l245 328h149l245 -328l-249 -30l-70 116l-81 -116z" />
    <glyph glyph-name="atilde" unicode="&#xe3;" horiz-adv-x="880" 
d="M529 1039q253 11 311 -367q47 -338 66 -589l-329 -96l-11 63q-138 -54 -294 -53q-253 45 -272 305q0 219 287 254q124 16 235 1q-8 173 -61 180q-94 3 -247 -169l-216 171q207 307 531 300zM302 284q16 -34 91 -35q62 2 149 19l-10 98l-87 -1q-150 -1 -143 -81zM804 1391
l9 -78q-2 -232 -243 -232q-103 4 -175.5 72t-122.5 53q-60 -10 -110 -86l-105 97q125 165 272 165q46 0 126.5 -58t157.5 -58q58 11 52 99z" />
    <glyph glyph-name="adieresis" unicode="&#xe4;" horiz-adv-x="880" 
d="M529 1039q253 11 311 -367q47 -338 66 -589l-329 -96l-11 63q-138 -54 -294 -53q-253 45 -272 305q0 219 287 254q124 16 235 1q-8 173 -61 180q-94 3 -247 -169l-216 171q207 307 531 300zM302 284q16 -34 91 -35q62 2 149 19l-10 98l-87 -1q-150 -1 -143 -81zM120 1367
l282 13l-28 -232l-270 18zM507 1365l282 13l-28 -232l-270 18z" />
    <glyph glyph-name="aring" unicode="&#xe5;" horiz-adv-x="880" 
d="M529 1039q253 11 311 -367q47 -338 66 -589l-329 -96l-11 63q-138 -54 -294 -53q-253 45 -272 305q0 219 287 254q124 16 235 1q-8 173 -61 180q-94 3 -247 -169l-216 171q207 307 531 300zM302 284q16 -34 91 -35q62 2 149 19l-10 98l-87 -1q-150 -1 -143 -81zM366 1274
q0 -39 27 -63t60 -24q32 0 59 24t27 63q0 38 -27.5 62t-58.5 24q-32 0 -59.5 -24t-27.5 -62zM254 1274q0 78 55.5 136t142.5 58q89 0 145 -58.5t56 -135.5q0 -79 -56 -137t-145 -58q-87 0 -142.5 58t-55.5 137z" />
    <glyph glyph-name="ae" unicode="&#xe6;" horiz-adv-x="1525" 
d="M529 1039q253 11 311 -367q47 -338 66 -589l-329 -96l-11 63q-138 -54 -294 -53q-253 45 -272 305q0 219 287 254q124 16 235 1q-8 173 -61 180q-94 3 -247 -169l-216 171q207 307 531 300zM302 284q16 -34 91 -35q62 2 149 19l-10 98l-87 -1q-150 -1 -143 -81zM1362 942
q159 -129 163 -345l-574 -261q38 -44 172.5 -47t334.5 169l76 -256q-292 -292 -636 -214q-283 113 -329 449q-7 213 60 355q152 230 397 227q199 13 336 -77zM869 580l337 149q-84 100 -242 50q-109 -59 -95 -199z" />
    <glyph glyph-name="ccedilla" unicode="&#xe7;" horiz-adv-x="839" 
d="M458 1028q267 11 430 -161l-203 -211q-78 68 -169 67q-146 -4 -168 -177q-11 -167 127 -194q89 -16 195 84l177 -169q-176 -273 -490 -270q-210 0 -304 203q-51 113 -51 262q4 342 169 473q99 93 287 93zM254 -247q86 -61 144 -61q55 0 78 17t23 41q0 31 -41 47
q-30 11 -103 11q-24 0 -54 -2l54 194h137l-35 -87q2 1 34 2q78 0 131.5 -45t53.5 -119q0 -78 -64 -126.5t-177 -48.5q-115 0 -221 58z" />
    <glyph glyph-name="egrave" unicode="&#xe8;" horiz-adv-x="955" 
d="M792 942q159 -129 163 -345l-574 -261q38 -44 172.5 -47t334.5 169l76 -256q-292 -292 -636 -214q-283 113 -329 449q-7 213 60 355q152 230 397 227q199 13 336 -77zM299 580l337 149q-84 100 -242 50q-109 -59 -95 -199zM639 1150l-70 -102l-378 201l22 57l209 129z
" />
    <glyph glyph-name="eacute" unicode="&#xe9;" horiz-adv-x="955" 
d="M792 942q159 -129 163 -345l-574 -261q38 -44 172.5 -47t334.5 169l76 -256q-292 -292 -636 -214q-283 113 -329 449q-7 213 60 355q152 230 397 227q199 13 336 -77zM299 580l337 149q-84 100 -242 50q-109 -59 -95 -199zM661 1414l66 7l103 -226l-399 -137l-95 80z" />
    <glyph glyph-name="ecircumflex" unicode="&#xea;" horiz-adv-x="955" 
d="M792 942q159 -129 163 -345l-574 -261q38 -44 172.5 -47t334.5 169l76 -256q-292 -292 -636 -214q-283 113 -329 449q-7 213 60 355q152 230 397 227q199 13 336 -77zM299 580l337 149q-84 100 -242 50q-109 -59 -95 -199zM184 1109l245 328h149l245 -328l-249 -30
l-70 116l-81 -116z" />
    <glyph glyph-name="edieresis" unicode="&#xeb;" horiz-adv-x="955" 
d="M792 942q159 -129 163 -345l-574 -261q38 -44 172.5 -47t334.5 169l76 -256q-292 -292 -636 -214q-283 113 -329 449q-7 213 60 355q152 230 397 227q199 13 336 -77zM299 580l337 149q-84 100 -242 50q-109 -59 -95 -199zM170 1367l282 13l-28 -232l-270 18zM557 1365
l282 13l-28 -232l-270 18z" />
    <glyph glyph-name="igrave" unicode="&#xec;" horiz-adv-x="595" 
d="M422 863q-63 -153 -82 -387q-8 -122 40 -138t91 25l155 -226q-63 -141 -320 -146q-301 0 -301 369q0 325 105 597zM478 1150l-70 -102l-378 201l22 57l209 129z" />
    <glyph glyph-name="iacute" unicode="&#xed;" horiz-adv-x="595" 
d="M422 863q-63 -153 -82 -387q-8 -122 40 -138t91 25l155 -226q-63 -141 -320 -146q-301 0 -301 369q0 325 105 597zM463 1414l66 7l103 -226l-399 -137l-95 80z" />
    <glyph glyph-name="icircumflex" unicode="&#xee;" horiz-adv-x="595" 
d="M422 863q-63 -153 -82 -387q-8 -122 40 -138t91 25l155 -226q-63 -141 -320 -146q-301 0 -301 369q0 325 105 597zM-4 1109l245 328h149l245 -328l-249 -30l-70 116l-81 -116z" />
    <glyph glyph-name="idieresis" unicode="&#xef;" horiz-adv-x="595" 
d="M422 863q-63 -153 -82 -387q-8 -122 40 -138t91 25l155 -226q-63 -141 -320 -146q-301 0 -301 369q0 325 105 597zM-17 1367l282 13l-28 -232l-270 18zM370 1365l282 13l-28 -232l-270 18z" />
    <glyph glyph-name="eth" unicode="&#xf0;" horiz-adv-x="1019" 
d="M1025 433q-96 -412 -385 -428q-296 -39 -493 98q-176 188 -160 416q12 321 362 402q186 9 309 -61q-5 91 -55 142l-224 -22q-31 39 -119 108l169 42l-97 56l149 209q122 5 295 -156l169 32l81 -215l-111 -3q101 -155 116 -440q6 -117 -6 -180zM332 437q17 -140 169 -141
q191 66 163 282q-10 81 -132 82q-179 -22 -200 -223z" />
    <glyph glyph-name="ntilde" unicode="&#xf1;" horiz-adv-x="938" 
d="M315 1059l9 -77q156 46 274 47q183 -10 284 -139q62 -107 59 -265l-23 -627h-318l6 522q3 144 -90 153q-111 9 -146 -93q-20 -107 -18 -582h-336l-7 650q0 147 -19 343zM832 1391l9 -78q-2 -232 -243 -232q-103 4 -175.5 72t-122.5 53q-60 -10 -110 -86l-105 97
q125 165 272 165q46 0 126.5 -58t157.5 -58q58 11 52 99z" />
    <glyph glyph-name="ograve" unicode="&#xf2;" horiz-adv-x="945" 
d="M550 1034q290 0 383 -250q19 -58 16 -149q0 -289 -241 -533q-120 -114 -341 -108q-332 9 -366 408q-18 360 261 542q152 90 288 90zM330 446q17 -105 105 -105q192 32 201 202q7 138 -97 142q-205 -34 -209 -239zM611 1150l-70 -102l-378 201l22 57l209 129z" />
    <glyph glyph-name="oacute" unicode="&#xf3;" horiz-adv-x="945" 
d="M550 1034q290 0 383 -250q19 -58 16 -149q0 -289 -241 -533q-120 -114 -341 -108q-332 9 -366 408q-18 360 261 542q152 90 288 90zM330 446q17 -105 105 -105q192 32 201 202q7 138 -97 142q-205 -34 -209 -239zM633 1414l66 7l103 -226l-399 -137l-95 80z" />
    <glyph glyph-name="ocircumflex" unicode="&#xf4;" horiz-adv-x="945" 
d="M550 1034q290 0 383 -250q19 -58 16 -149q0 -289 -241 -533q-120 -114 -341 -108q-332 9 -366 408q-18 360 261 542q152 90 288 90zM330 446q17 -105 105 -105q192 32 201 202q7 138 -97 142q-205 -34 -209 -239zM156 1109l245 328h149l245 -328l-249 -30l-70 116
l-81 -116z" />
    <glyph glyph-name="otilde" unicode="&#xf5;" horiz-adv-x="945" 
d="M550 1034q290 0 383 -250q19 -58 16 -149q0 -289 -241 -533q-120 -114 -341 -108q-332 9 -366 408q-18 360 261 542q152 90 288 90zM330 446q17 -105 105 -105q192 32 201 202q7 138 -97 142q-205 -34 -209 -239zM826 1391l9 -78q-2 -232 -243 -232q-103 4 -175.5 72
t-122.5 53q-60 -10 -110 -86l-105 97q125 165 272 165q46 0 126.5 -58t157.5 -58q58 11 52 99z" />
    <glyph glyph-name="odieresis" unicode="&#xf6;" horiz-adv-x="945" 
d="M550 1034q290 0 383 -250q19 -58 16 -149q0 -289 -241 -533q-120 -114 -341 -108q-332 9 -366 408q-18 360 261 542q152 90 288 90zM330 446q17 -105 105 -105q192 32 201 202q7 138 -97 142q-205 -34 -209 -239zM142 1367l282 13l-28 -232l-270 18zM529 1365l282 13
l-28 -232l-270 18z" />
    <glyph glyph-name="divide" unicode="&#xf7;" 
d="M150 597l20 200h808l-20 -200h-808zM371 513l302 -7l-28 -232l-290 18zM371 1140l302 -7l-28 -232l-290 18z" />
    <glyph glyph-name="oslash" unicode="&#xf8;" horiz-adv-x="945" 
d="M550 1034q97 0 172 -28l88 43q98 -50 152 -157l-41 -81q31 -85 28 -176q0 -289 -241 -533q-120 -114 -341 -108q-27 1 -113 -56q-157 21 -236 144q52 72 45 86q-50 92 -62 234q-18 360 261 542q152 90 288 90zM330 446q17 -105 105 -105q192 32 201 202q7 138 -97 142
q-205 -34 -209 -239z" />
    <glyph glyph-name="ugrave" unicode="&#xf9;" horiz-adv-x="845" 
d="M347 1040l-29 -405q-2 -260 104 -251q98 -19 85 369l-14 270l338 -76q45 -640 -53 -758q-127 -183 -389 -194q-171 0 -295 143q-93 154 -93 363q-7 183 17 488zM547 1150l-70 -102l-378 201l22 57l209 129z" />
    <glyph glyph-name="uacute" unicode="&#xfa;" horiz-adv-x="845" 
d="M347 1040l-29 -405q-2 -260 104 -251q98 -19 85 369l-14 270l338 -76q45 -640 -53 -758q-127 -183 -389 -194q-171 0 -295 143q-93 154 -93 363q-7 183 17 488zM569 1414l66 7l103 -226l-399 -137l-95 80z" />
    <glyph glyph-name="ucircumflex" unicode="&#xfb;" horiz-adv-x="845" 
d="M347 1040l-29 -405q-2 -260 104 -251q98 -19 85 369l-14 270l338 -76q45 -640 -53 -758q-127 -183 -389 -194q-171 0 -295 143q-93 154 -93 363q-7 183 17 488zM92 1109l245 328h149l245 -328l-249 -30l-70 116l-81 -116z" />
    <glyph glyph-name="udieresis" unicode="&#xfc;" horiz-adv-x="845" 
d="M347 1040l-29 -405q-2 -260 104 -251q98 -19 85 369l-14 270l338 -76q45 -640 -53 -758q-127 -183 -389 -194q-171 0 -295 143q-93 154 -93 363q-7 183 17 488zM78 1367l282 13l-28 -232l-270 18zM465 1365l282 13l-28 -232l-270 18z" />
    <glyph glyph-name="yacute" unicode="&#xfd;" horiz-adv-x="902" 
d="M891 979l35 -322q4 -542 -242.5 -796t-424.5 -291l-200 281q285 152 449 361h-138q-320 -1 -362 322q-10 206 3 407l289 72v-80q0 -360 89 -410q115 -42 179 1q4 267 -36 515zM642 1414l66 7l103 -226l-399 -137l-95 80z" />
    <glyph glyph-name="thorn" unicode="&#xfe;" horiz-adv-x="1135" 
d="M759 1388q339 -100 384 -500q11 -114 -9 -256q-50 -278 -282 -424q-259 -77 -389 20l37 -294l-454 -47l-49 1620l341 50l17 -274q122 148 404 105zM402 886l19 -235q235 -182 345 57q57 269 -156 312q-131 19 -208 -134z" />
    <glyph glyph-name="ydieresis" unicode="&#xff;" horiz-adv-x="902" 
d="M891 979l35 -322q4 -542 -242.5 -796t-424.5 -291l-200 281q285 152 449 361h-138q-320 -1 -362 322q-10 206 3 407l289 72v-80q0 -360 89 -410q115 -42 179 1q4 267 -36 515zM151 1367l282 13l-28 -232l-270 18zM538 1365l282 13l-28 -232l-270 18z" />
    <glyph glyph-name="dotlessi" unicode="&#x131;" horiz-adv-x="595" 
d="M422 863q-63 -153 -82 -387q-8 -122 40 -138t91 25l155 -226q-63 -141 -320 -146q-301 0 -301 369q0 325 105 597z" />
    <glyph glyph-name="circumflex" unicode="&#x2c6;" horiz-adv-x="902" 
d="M111 1109l245 328h149l245 -328l-249 -30l-70 116l-81 -116z" />
    <glyph glyph-name="caron" unicode="&#x2c7;" horiz-adv-x="1081" 
d="M221 1397l259 40l61 -113l60 113l259 -40l-245 -318h-149z" />
    <glyph glyph-name="uni02C9" unicode="&#x2c9;" horiz-adv-x="1068" 
d="M254 1145v195h560v-195h-560z" />
    <glyph glyph-name="breve" unicode="&#x2d8;" horiz-adv-x="1071" 
d="M219 1349l194 20q19 -80 71 -110q59 -20 103 9q50 30 69 111l194 -30q-22 -124 -100.5 -197t-213.5 -73q-134 0 -214 73.5t-103 196.5z" />
    <glyph glyph-name="dotaccent" unicode="&#x2d9;" horiz-adv-x="1068" 
d="M434 1292l69 72q9 8 21 13.5t26 5.5q13 0 24.5 -5.5t20.5 -14.5l70 -75q7 -5 9.5 -12t2.5 -15q-1 -9 -3 -15.5t-10 -14.5l-71 -76q-14 -13 -22.5 -18t-20.5 -5q-16 0 -28.5 5t-19.5 14l-74 86q-6 6 -8 12t-2 14q0 6 3.5 13.5t12.5 15.5z" />
    <glyph glyph-name="ring" unicode="&#x2da;" horiz-adv-x="1068" 
d="M447 1274q0 -39 27 -63t60 -24q32 0 59 24t27 63q0 38 -27.5 62t-58.5 24q-32 0 -59.5 -24t-27.5 -62zM335 1274q0 78 55.5 136t142.5 58q89 0 145 -58.5t56 -135.5q0 -79 -56 -137t-145 -58q-87 0 -142.5 58t-55.5 137z" />
    <glyph glyph-name="ogonek" unicode="&#x2db;" horiz-adv-x="1069" 
d="M697 0q-75 -67 -105 -108t-37 -94q0 -47 14.5 -63.5t47.5 -16.5q62 6 113 54l59 -44q-39 -68 -99 -105t-134 -37q-81 0 -130.5 39.5t-49.5 96.5q0 76 58.5 151.5t170.5 126.5h92z" />
    <glyph glyph-name="tilde" unicode="&#x2dc;" horiz-adv-x="1072" 
d="M896 1391l9 -78q-2 -232 -243 -232q-103 4 -175.5 72t-122.5 53q-60 -10 -110 -86l-105 97q125 165 272 165q46 0 126.5 -58t157.5 -58q58 11 52 99z" />
    <glyph glyph-name="hungarumlaut" unicode="&#x2dd;" horiz-adv-x="1073" 
d="M224 1079l139 351l201 -61l-202 -290h-138zM549 1079l139 351l201 -61l-202 -290h-138z" />
    <glyph glyph-name="endash" unicode="&#x2013;" 
d="M56 359l20 200h996l-20 -200h-996z" />
    <glyph glyph-name="emdash" unicode="&#x2014;" horiz-adv-x="2048" 
d="M0 359l20 200h2048l-20 -200h-2048z" />
    <glyph glyph-name="quoteleft" unicode="&#x2018;" horiz-adv-x="625" 
d="M369 989q-368 244 19 588l100 -45q-87 -188 62 -370z" />
    <glyph glyph-name="quoteright" unicode="&#x2019;" horiz-adv-x="625" 
d="M274 1587q302 -224 -27 -581l-110 55q87 188 -63 369z" />
    <glyph glyph-name="quotesinglbase" unicode="&#x201a;" horiz-adv-x="625" 
d="M274 291q302 -224 -27 -581l-110 55q87 188 -63 369z" />
    <glyph glyph-name="quotedblleft" unicode="&#x201c;" horiz-adv-x="1073" 
d="M369 989q-368 244 19 588l100 -45q-87 -188 62 -370zM717 989q-368 244 19 588l100 -45q-87 -188 62 -370z" />
    <glyph glyph-name="quotedblright" unicode="&#x201d;" horiz-adv-x="1074" 
d="M374 1587q302 -224 -27 -581l-110 55q87 188 -63 369zM723 1587q302 -224 -27 -581l-110 55q87 188 -63 369z" />
    <glyph glyph-name="quotedblbase" unicode="&#x201e;" horiz-adv-x="1074" 
d="M374 291q302 -224 -27 -581l-110 55q87 188 -63 369zM723 291q302 -224 -27 -581l-110 55q87 188 -63 369z" />
    <glyph glyph-name="dagger" unicode="&#x2020;" 
d="M520 -268l-197 909l98 193l-218 -87l-131 218l129 219l220 -87l-87 220l217 131l217 -131l-87 -220l220 87l129 -219l-131 -218l-218 87l98 -193l-197 -908z" />
    <glyph glyph-name="daggerdbl" unicode="&#x2021;" 
d="M681 346l218 87l131 -218l-129 -219l-220 87l87 -220l-217 -131l-217 131l87 220l-220 -87l-129 219l131 218l218 -87l-98 244l98 244l-218 -77l-131 208l129 219l220 -87l-87 220l217 131l217 -131l-87 -220l220 87l129 -219l-131 -218l-218 87l98 -244z" />
    <glyph glyph-name="bullet" unicode="&#x2022;" 
d="M220 718q0 129 93.5 231t241.5 102q147 0 240 -103t93 -230t-94 -231t-241 -104q-148 0 -240.5 103.5t-92.5 231.5z" />
    <glyph glyph-name="ellipsis" unicode="&#x2026;" horiz-adv-x="1699" 
d="M57 227l302 -7l-28 -232l-290 18zM640 227l302 -7l-28 -232l-290 18zM1223 227l302 -7l-28 -232l-290 18z" />
    <glyph glyph-name="guilsinglleft" unicode="&#x2039;" horiz-adv-x="676" 
d="M174 479l353 313l48 -227l-125 -86l125 -86l-48 -227z" />
    <glyph glyph-name="guilsinglright" unicode="&#x203a;" horiz-adv-x="676" 
d="M149 166l-48 227l125 86l-125 86l48 227l353 -313z" />
    <glyph glyph-name="fraction" unicode="&#x2044;" horiz-adv-x="342" 
d="M-234 60l692 1394l184 -140l-578 -1334z" />
    <glyph glyph-name="fraction" unicode="&#x2215;" horiz-adv-x="342" 
d="M-234 60l692 1394l184 -140l-578 -1334z" />
    <glyph glyph-name="franc" unicode="&#x20a3;" horiz-adv-x="1133" 
d="M95 400l-117 955l1155 85l-47 -405l-591 -56l9 -130l417 13l-31 -273l-359 -29l11 -99l142 19l-4 -291l-107 -11l13 -117l-442 -59l-16 129l-96 -10l-54 263z" />
    <glyph glyph-name="lira" unicode="&#x20a4;" 
d="M142 574q2 36 1 73l-146 11q11 100 7 188l106 5q-27 53 -25 165q0 122 55 230q134 183 390 183q273 0 500 -198l-143 -279q-184 131 -316 131q-216 -6 -147 -235l280 7l8 -193l-253 -3q0 -39 -1 -74l249 8l-25 -207h-248q-12 -39 -28 -65q256 0 543 31l113 -350
q-253 -11 -1002 -11q-21 76 -13 238q38 78 61 156h-119l8 184z" />
    <glyph glyph-name="peseta" unicode="&#x20a7;" horiz-adv-x="2236" 
d="M640.617 1422q280.808 -45 395.111 -316q22.5 -66 11.7002 -155q-32.4014 -254 -328.509 -364q-126.004 -36 -218.706 -34l21.6006 -512l-404.111 -49l-139.504 1381q484.213 77 662.418 49zM466.013 1025l10.7998 -157q218.706 20 226.807 86q9 67 -64.8018 89
q-83.7021 12 -172.805 -18zM1485 1446l-48 -357l118 -9l27 -260l-207 -7q-117 -449 13 -484q47 -4 81 24l152 -225q-137 -137 -329 -137q-221 0 -273 177q-58 245 8 648l-167 6l45 264l170 11l38 311zM1834 1039q207 5 407 -231l-177 -178q-175 135 -262 135
q-58 -10 -59 -49q14 -47 270 -150q243 -146 226 -351q-44 -195 -258 -219q-79 -16 -204 -7q-208 31 -363 219l160 203q167 -127 237 -127q45 0 59 34q0 54 -213 126q-209 104 -209 304q9 274 386 291z" />
    <glyph glyph-name="Euro" unicode="&#x20ac;" horiz-adv-x="1115" 
d="M1191 1307l-246 -230q-330 126 -490 -125l427 -7l-50 -173l-404 1q-10 -37 0 -102l389 -5l-52 -178l-314 -20q154 -272 487 -74l240 -163q-246 -269 -550 -251q-393 31 -556 454l-65 -1q-15 115 -25 219l58 1q-5 77 -2 121l-59 1q9 112 31 191h67q65 256 275 386
q416 204 839 -45z" />
    <glyph glyph-name="afii61352" unicode="&#x2116;" horiz-adv-x="1842" 
d="M1180 1434q-137 -1371 -162 -1436h-266l-324 568l-58 -568h-360q-4 537 52 1381h349l229 -454l133 478zM1561 1434q213 0 281 -183q14 -43 12 -110q0 -212 -177 -391q-88 -83 -250 -79q-243 7 -268 299q-13 264 191 398q112 66 211 66zM1400 1003q13 -77 77 -77
q141 23 148 148q5 101 -72 104q-150 -25 -153 -175z" />
    <glyph glyph-name="trademark" unicode="&#x2122;" horiz-adv-x="1326" 
d="M548 1439q23 -122 37 -258q-97 4 -177 4q9 -262 0 -483h-230q-16 133 -12 425l-1 57q-70 0 -178 -8q14 175 33 259q229 4 528 4zM662 1433h132l136 -174l109 174h141l153 -596l-234 -159l-73 324l-92 -102l-96 93l-42 -332l-238 133z" />
    <glyph glyph-name="partialdiff" unicode="&#x2202;" 
d="M427 433q9 -75 38 -140.5t65 -93.5q31 -25 56 -25q24 2 54.5 36t44.5 104q10 45 10 93l-3 53q-9 75 -38.5 141t-65.5 94q-32 25 -57 25q-21 -2 -51 -35.5t-46 -103.5q-10 -53 -10 -98zM1036 480q0 -124 -56 -241t-172.5 -190t-253.5 -73t-253.5 73t-172.5 190t-56 241
t57.5 241.5t155.5 186t233 72.5q109 1 164 -31q-75 121 -177.5 183t-266.5 87l-30 240q397 0 612.5 -290t215.5 -689z" />
    <glyph glyph-name="uni2206" unicode="&#x2206;" horiz-adv-x="1235" 
d="M599 1470l577 -1470h-1170zM403 302h328l-159 515z" />
    <glyph glyph-name="product" unicode="&#x220f;" horiz-adv-x="1673" 
d="M566 1205v-1414h179l10 -201l-668 -10l10 211h159v1404h-159l-42 219l1549 40l-46 -215l-123 -14v-1424h169l10 -210l-668 10l10 200h179v1414z" />
    <glyph glyph-name="summation" unicode="&#x2211;" horiz-adv-x="1285" 
d="M1061 639l-607 -800l426 -20l63 131l283 -20l-111 -370l-993 20l-10 239l116 23l473 650l-473 648l-126 34l10 240l1003 30l111 -361l-273 -30l-73 131l-236 -30z" />
    <glyph glyph-name="minus" unicode="&#x2212;" 
d="M150 597l20 200h808l-20 -200h-808z" />
    <glyph glyph-name="radical" unicode="&#x221a;" horiz-adv-x="1208" 
d="M427 -26l-485 581l282 308l177 -171l448 967h406l-40 -380h-93z" />
    <glyph glyph-name="infinity" unicode="&#x221e;" 
d="M429 713q-6 39 -39 55q-25 13 -48 13q-6 0 -13 -1q-29 -7 -53.5 -26.5t-34.5 -42.5q-9 -21 -9 -36v-4q0 -17 12.5 -36.5t38.5 -29.5q18 -7 37 -7q9 0 19 2q29 7 52 25t38 88zM538 714q5 -38 62 -74q47 -30 88 -30q9 0 17 1q46 9 85.5 34.5t57.5 58.5q16 30 16 54v3
q-1 26 -22.5 53.5t-63.5 41.5q-28 8 -57 8q-16 0 -31 -3q-51 -6 -92.5 -39t-59.5 -108zM489 862q7 23 22 62q40 95 109 144.5t139 49.5q71 0 139 -48.5t110 -145t42 -207.5q0 -110 -42 -207t-110 -145.5t-139 -48.5q-70 0 -139 49t-109 145q-15 39 -22 63q-2 -11 -12 -33
q-32 -81 -85 -122t-108 -41q-53 0 -107.5 41.5t-86.5 124t-32 174.5q0 91 32 174t86.5 124.5t107.5 41.5q55 0 108 -41t85 -120q11 -25 12 -34z" />
    <glyph glyph-name="integral" unicode="&#x222b;" horiz-adv-x="678" 
d="M75 -286q-94 -6 -146 43l49 164q32 -20 58 -33.5t53 -9.5q57 0 98.5 132t49.5 287l70 733l8 62q26 234 138 432t269 198q69 0 113 -28l-74 -177q-17 12 -35 21.5t-38 9.5q-56 0 -94.5 -120.5t-53.5 -342.5l-62 -755q-20 -226 -134 -421t-269 -195z" />
    <glyph glyph-name="approxequal" unicode="&#x2248;" 
d="M942 1150l113 -154q-50 -150 -129 -206t-176 -47q-63 0 -200 63t-193 63q-47 0 -103 -35q-61 -41 -174 -185l-114 136q64 187 161 265t230 78q67 0 204 -64t189 -64q48 0 101.5 34.5t90.5 115.5zM1011 750l82 -180q-53 -148 -150 -211t-193 -46q-63 0 -200 64t-193 64
q-47 0 -91.5 -32.5t-95.5 -133.5l-127 154q82 167 163.5 226.5t150.5 51.5q67 0 204 -65.5t189 -65.5q92 0 139 31.5t122 142.5z" />
    <glyph glyph-name="lessequal" unicode="&#x2264;" 
d="M1028 1043l-637 -250l637 -247l-100 -306l-848 421v265l848 424zM150 -40l20 200h808l-20 -200h-808z" />
    <glyph glyph-name="greaterequal" unicode="&#x2265;" 
d="M180 1350l848 -424v-265l-848 -421l-100 306l637 247l-637 250zM150 -40l20 200h808l-20 -200h-808z" />
    <glyph glyph-name="uniF001" unicode="&#xf001;" horiz-adv-x="1073" 
 />
    <glyph glyph-name="uniF001" unicode="&#xfb01;" horiz-adv-x="1073" 
 />
    <glyph glyph-name="uniF002" unicode="&#xf002;" horiz-adv-x="1081" 
 />
    <glyph glyph-name="uniF002" unicode="&#xfb02;" horiz-adv-x="1081" 
 />
    <glyph glyph-name="afii10051" unicode="&#x402;" horiz-adv-x="1619" 
d="M1609 632q-46 -577 -590 -556l37 338q202 15 190 200q-42 384 -599 167l18 -788l-352 85l34 1263l-360 -3l16 295h1038l4 -279l-400 1l3 -212q957 195 961 -511z" />
    <glyph glyph-name="afii10052" unicode="&#x403;" horiz-adv-x="976" 
d="M1007 1420q-27 -138 -55 -311q-474 -40 -562 -81q69 -641 72 -1022q-170 -40 -365 -13l-97 1319q309 137 1007 108zM651 1824l66 7l103 -226l-399 -137l-95 80z" />
    <glyph glyph-name="afii10053" unicode="&#x404;" horiz-adv-x="1131" 
d="M620 1433v0v0q338 47 517 -249l-276 -175q-74 89 -208 75q-189 -32 -262 -213q184 1 332 -20q-16 -48 -19 -228q-230 -7 -301 -30q-24 -188 233 -182q131 18 206 134l312 -87q-128 -406 -570 -461q-319 -33 -512 335q-59 126 -68 244q-74 522 445 807q56 34 171 50z" />
    <glyph glyph-name="afii10054" unicode="&#x405;" horiz-adv-x="1077" 
d="M1037 1242l-174 -318q-489 215 -479 59q30 -69 204 -114q516 -213 503 -507q5 -188 -230 -309q-94 -49 -298 -63q-236 -7 -536 170l138 306q457 -185 455 -53q-17 64 -392 214q-242 133 -238 374q-21 247 295 405q379 99 752 -164z" />
    <glyph glyph-name="afii10055" unicode="&#x406;" horiz-adv-x="472" 
d="M439 1434l12.5 -725.5t2.5 -716.5h-417q-15 387 -10 721t13 696z" />
    <glyph glyph-name="afii10056" unicode="&#x407;" horiz-adv-x="819" 
d="M599 1434l12.5 -725.5t2.5 -716.5h-417q-15 387 -10 721t13 696zM77 1687l282 13l-28 -232l-270 18zM464 1685l282 13l-28 -232l-270 18z" />
    <glyph glyph-name="afii10057" unicode="&#x408;" horiz-adv-x="963" 
d="M967 1466q-24 -843 -80 -1011q-127 -425 -448 -460q-212 -38 -325 68q-161 188 -88 479l324 3q7 -134 110 -96q124 45 104 896z" />
    <glyph glyph-name="afii10058" unicode="&#x409;" horiz-adv-x="1948" 
d="M256 1319q524 17 954 -31q4 -356 21 -480q219 34 385 11q311 -110 331 -352q10 -160 -68 -287q-203 -233 -962 -187l-87 1059q-119 -1 -254 0l-20 -834q-22 -191 -343 -213q-155 10 -225 97q43 97 107 280q102 -59 124 12zM1268 335q259 23 265 112q11 49 -46 63
q-108 25 -227 -17z" />
    <glyph glyph-name="afii10059" unicode="&#x40a;" horiz-adv-x="1745" 
d="M46 1339l317 14l2 -560q133 0 288 -6l4 528l343 -27q4 -356 21 -480q219 34 385 11q311 -110 331 -352q10 -160 -68 -287q-203 -233 -1002 -187l-21 462q-135 -4 -280 -3l-10 -464l-347 26zM1058 335q259 23 265 112q11 49 -46 63q-108 25 -227 -17z" />
    <glyph glyph-name="afii10060" unicode="&#x40b;" horiz-adv-x="1584" 
d="M1599 632l-35 -598l-329 -62l11 582q-72 444 -569 227l18 -788l-422 85l34 1253l-330 -3l16 305h1038l4 -289l-360 1l3 -202q917 195 921 -511z" />
    <glyph glyph-name="afii10061" unicode="&#x40c;" horiz-adv-x="1116" 
d="M911 1419l168 -293q-131 -23 -229 -132l-161 -179l355 -349l107 -106l-360 -329l-118 148l-219 285l-24 -472l-431 149l94 1216q27 0 337 63l24 -360l148 177q100 148 309 182zM712 1824l66 7l103 -226l-399 -137l-95 80z" />
    <glyph glyph-name="uni040D" unicode="&#x40d;" horiz-adv-x="1181" 
d="M30 1434l377 -31l33 -558l409 534h339q-34 -844 -78 -1381h-350l-18 608l-434 -608h-286q-27 583 8 1436zM728 1560l-70 -102l-378 201l22 57l209 129z" />
    <glyph glyph-name="afii10062" unicode="&#x40e;" horiz-adv-x="1166" 
d="M281 1434l308 -417l300 402l301 -221l-400 -549l-10 -637l-374 -28l-15 706l-410 542zM270 1759l194 20q19 -80 71 -110q59 -20 103 9q50 30 69 111l194 -30q-22 -124 -100.5 -197t-213.5 -73q-134 0 -214 73.5t-103 196.5z" />
    <glyph glyph-name="afii10145" unicode="&#x40f;" horiz-adv-x="1311" 
d="M57 2l-69 1335l379 96l56 -1096l532 17l-18 1058l392 -85l-57 -1325l-412 -2l-1 -298h-308l-7 300h-487z" />
    <glyph glyph-name="afii10017" unicode="&#x410;" horiz-adv-x="1216" 
d="M457 1434h337l448 -1194l-435 -242l-57 198h-302l-88 -190l-380 194zM501 460l245 8l-76 254h-72z" />
    <glyph glyph-name="afii10018" unicode="&#x411;" horiz-adv-x="1110" 
d="M1007 1420q-47 -138 -75 -251q-454 -40 -542 -81q4 -156 21 -280q219 34 385 11q311 -110 331 -352q10 -160 -68 -287q-203 -233 -962 -187l-97 1319q309 137 1007 108zM448 335q259 23 265 112q11 49 -46 63q-108 25 -227 -17z" />
    <glyph glyph-name="afii10019" unicode="&#x412;" horiz-adv-x="1119" 
d="M652 1408q296 -90 277 -348q-28 -116 -215 -222l82 -19q311 -110 331 -352q10 -160 -68 -287q-203 -233 -960 -177l-107 1318q289 150 660 87zM396 1082l4 -96q186 25 202 91q-5 19 -42 26q-69 9 -164 -21zM458 335q259 23 265 112q11 49 -46 63q-108 25 -227 -17z" />
    <glyph glyph-name="afii10020" unicode="&#x413;" horiz-adv-x="976" 
d="M1007 1420q-27 -138 -55 -311q-474 -40 -562 -81q69 -641 72 -1022q-170 -40 -365 -13l-97 1319q309 137 1007 108z" />
    <glyph glyph-name="afii10021" unicode="&#x414;" horiz-adv-x="1445" 
d="M1284 1444l22 -1175l112 -1l34 -438l-365 -32l-17 198h-672l-18 -190l-380 24l14 419q65 -1 108 5q178 648 151 1167zM501 260l445 8l-26 904h-322q8 -386 -97 -912z" />
    <glyph glyph-name="afii10022" unicode="&#x415;" horiz-adv-x="1039" 
d="M1060 1434l-67 -307l-585 -56l30 -231l409 13l-32 -275l-348 -29l22 -236l580 39l-61 -317q-3 -19 -895 -37l-135 1351z" />
    <glyph glyph-name="afii10024" unicode="&#x416;" horiz-adv-x="1772" 
d="M1602 1408l97 -322q-131 -23 -246 -190q-97 -161 -263 -169q416 -97 597 -628l-412 -58q-94 347 -301 413l-4 -462l-396 30l-3 383q-227 -25 -308 -381l-374 104q177 497 546 592q-151 40 -253 167q-111 162 -297 97l96 341q325 86 375 -111q92 -187 231 -272l-2 473
l365 34l-5 -477q128 55 212 287q72 151 345 149z" />
    <glyph glyph-name="afii10025" unicode="&#x417;" horiz-adv-x="1016" 
d="M529 1429q256 0 390 -183q55 -108 55 -230q0 -149 -111 -302q159 -108 159 -310q0 -413 -493 -413q-279 0 -532 191l143 320q257 -161 403 -151q133 15 133 97q0 81 -156 91l-73 3l8 303l96 12q70 35 70 119q0 61 -133 77q-132 10 -326 -81l-143 279q237 188 510 178z
" />
    <glyph glyph-name="afii10026" unicode="&#x418;" horiz-adv-x="1181" 
d="M30 1434l377 -31l33 -558l409 534h339q-34 -844 -78 -1381h-350l-18 608l-434 -608h-286q-27 583 8 1436z" />
    <glyph glyph-name="afii10027" unicode="&#x419;" horiz-adv-x="1181" 
d="M30 1434l377 -31l33 -558l409 534h339q-34 -844 -78 -1381h-350l-18 608l-434 -608h-286q-27 583 8 1436zM250 1759l194 20q19 -80 71 -110q59 -20 103 9q50 30 69 111l194 -30q-22 -124 -100.5 -197t-213.5 -73q-134 0 -214 73.5t-103 196.5z" />
    <glyph glyph-name="afii10028" unicode="&#x41a;" horiz-adv-x="1116" 
d="M911 1419l168 -293q-131 -23 -229 -132l-161 -179l355 -349l107 -106l-360 -329l-118 148l-219 285l-24 -472l-431 149l94 1216q27 0 337 63l24 -360l148 177q100 148 309 182z" />
    <glyph glyph-name="afii10029" unicode="&#x41b;" horiz-adv-x="1533" 
d="M277 1423l1192 10l70 -1355l-412 -65l-22 1008l-462 17l-28 -799q-4 -244 -306 -246q-106 -16 -313 78l82 320q169 -98 167 57z" />
    <glyph glyph-name="afii10030" unicode="&#x41c;" horiz-adv-x="1726" 
d="M297 1433h263l285 -514l235 514h279l380 -1105l-409 -261l-192 597l-214 -594l-224 8l-158 582l-168 -643l-386 231z" />
    <glyph glyph-name="afii10031" unicode="&#x41d;" horiz-adv-x="1213" 
d="M770 1440l324 -56l130 -1180l-398 -190l-26 396h-385l-35 -404q-367 137 -392 166l107 1190l365 54l-3 -594h325z" />
    <glyph glyph-name="afii10032" unicode="&#x41e;" horiz-adv-x="1240" 
d="M720 1434q352 -8 492 -314q41 -123 34 -271q0 -346 -246 -652q-199 -195 -508 -195q-360 29 -468 394q-33 118 -32 267q41 542 499 732q121 39 229 39zM390 629q22 -195 178 -195q143 0 288 204q48 89 42 220q0 195 -169 195q-175 0 -314 -255q-31 -86 -25 -169z" />
    <glyph glyph-name="afii10033" unicode="&#x41f;" horiz-adv-x="1320" 
d="M47 1413l1212 20l70 -1355l-402 -65l-22 1008l-492 17l-36 -1036l-379 96z" />
    <glyph glyph-name="afii10034" unicode="&#x420;" horiz-adv-x="1106" 
d="M1103 1106q25 -66 13 -155q-36 -254 -365 -364q-140 -36 -243 -34l14 -512l-369 -49l-155 1381q253 42 427 53q12 0 24 1q131 7 215 -5q312 -45 439 -316zM470 1071l12 -203q243 26 252 111q10 87 -72 115q-93 16 -192 -23z" />
    <glyph glyph-name="afii10035" unicode="&#x421;" horiz-adv-x="1130" 
d="M620 1433q338 47 517 -249l-296 -245q-94 89 -188 75q-248 -49 -250 -331q46 -228 224 -206q80 12 185 128l342 -147q-128 -406 -570 -461q-319 -33 -512 335q-59 126 -68 244q-74 522 445 807q56 34 171 50z" />
    <glyph glyph-name="afii10036" unicode="&#x422;" horiz-adv-x="1083" 
d="M1023 1439q45 -238 72 -425q-189 8 -345 8q17 -590 0 -1020h-370q-32 258 -24 867l-2 150q-176 0 -367 -15q27 264 64 427q409 8 972 8z" />
    <glyph glyph-name="afii10037" unicode="&#x423;" horiz-adv-x="1166" 
d="M281 1434l308 -417l300 402l301 -221l-400 -549l-10 -637l-374 -28l-15 706l-410 542z" />
    <glyph glyph-name="afii10038" unicode="&#x424;" horiz-adv-x="1970" 
d="M1968 845q47 -501 -313 -695q-128 -80 -427 -52l-1 -148q-176 -41 -386 -44l-18 139q-186 -43 -301 -43q-350 2 -478 394q-42 168 -41 317q-12 423 286 598q223 91 462 35l7 181q162 16 393 29l6 -200q766 97 811 -511zM789 456l-27 492q-301 79 -370 -187
q-39 -386 397 -305zM1218 478q389 -25 393 273q-25 330 -420 208z" />
    <glyph glyph-name="afii10039" unicode="&#x425;" horiz-adv-x="1461" 
d="M1277 1434l205 -332l-332 -356l261 -356l-380 -356l-292 379q-221 -276 -356 -411q-311 190 -406 239l524 536l-332 428l411 221l277 -356z" />
    <glyph glyph-name="afii10040" unicode="&#x426;" horiz-adv-x="1447" 
d="M67 2l-69 1335l389 96l56 -1066l472 17l-18 1018l412 -85l-51 -925l198 1l-27 -581h-288l-7 190h-1067z" />
    <glyph glyph-name="afii10041" unicode="&#x427;" horiz-adv-x="1295" 
d="M3 513l35 858l349 62l19 -832q32 -404 499 -197l-18 1008l412 -85l-40 -1615h-348l-7 290q-897 -195 -901 511z" />
    <glyph glyph-name="afii10042" unicode="&#x428;" horiz-adv-x="1578" 
d="M67 2l-69 1335l389 96l56 -1056l207 -3l-66 1016l391 -18l34 -982l196 4l-18 1008l402 -85l-70 -1315h-1452z" />
    <glyph glyph-name="afii10043" unicode="&#x429;" horiz-adv-x="1720" 
d="M67 2l-69 1335l389 96l56 -1056l207 -3l-66 1016l391 -18l34 -982l196 4l-18 1008l392 -85l-51 -935l198 1l-27 -571h-318l-7 190h-1307z" />
    <glyph glyph-name="afii10044" unicode="&#x42a;" horiz-adv-x="1460" 
d="M-11 1014l57 305q254 17 684 -31q4 -356 21 -480q219 34 385 11q311 -110 331 -352q10 -160 -68 -287q-203 -233 -982 -187l-87 1019q-170 -8 -341 2zM788 335q259 23 265 112q11 49 -46 63q-108 25 -227 -17z" />
    <glyph glyph-name="afii10045" unicode="&#x42b;" horiz-adv-x="1532" 
d="M370 1419q4 -487 21 -611q219 34 385 11q311 -110 331 -352q10 -160 -68 -287q-203 -233 -942 -187l-97 1359q180 85 370 67zM428 335q259 23 265 112q11 49 -46 63q-108 25 -227 -17zM1490 1419q4 -487 27 -1102l16 -315q-128 -17 -336 1l-97 1359q210 75 390 57z" />
    <glyph glyph-name="afii10046" unicode="&#x42c;" horiz-adv-x="1138" 
d="M410 1419q4 -487 21 -611q219 34 385 11q311 -110 331 -352q10 -160 -68 -287q-203 -233 -982 -187l-97 1359q200 85 410 67zM468 335q259 23 265 112q11 49 -46 63q-108 25 -227 -17z" />
    <glyph glyph-name="afii10047" unicode="&#x42d;" horiz-adv-x="1174" 
d="M942 1263q284 -244 217 -704q-9 -119 -68 -244q-146 -306 -512 -335q-446 2 -590 461l312 87q75 -116 226 -134q214 -16 276 182q-114 22 -344 30q-4 179 -19 227q148 21 351 18q-54 206 -249 231q-166 -2 -240 -90l-276 175q204 258 517 249q255 -1 399 -153z" />
    <glyph glyph-name="afii10048" unicode="&#x42e;" horiz-adv-x="1687" 
d="M1160 1434q352 -8 492 -314q41 -123 34 -271q0 -346 -246 -652q-199 -195 -508 -195q-360 29 -468 394q-5 16 -99 23l3 -416q-202 6 -336 12q-21 529 -20 1388q145 25 354 30l1 -599l89 -4q91 406 475 565q121 39 229 39zM820 629q22 -195 178 -195q143 0 288 204
q48 89 42 220q0 195 -169 195q-175 0 -314 -255q-31 -86 -25 -169z" />
    <glyph glyph-name="afii10049" unicode="&#x42f;" horiz-adv-x="1147" 
d="M411 1414l101 23q311 20 512 13l125 -1446l-391 -9l-51 497l-280 -518l-331 149l247 463q-290 71 -333 309q-20 87 -3 162q118 288 404 357zM663 1125q-166 -9 -248 -41q-69 -35 -56 -107q19 -114 316 -81z" />
    <glyph glyph-name="afii10065" unicode="&#x430;" horiz-adv-x="888" 
d="M529 1039q243 11 301 -367q47 -338 66 -589l-319 -96l-11 63q-138 -54 -294 -53q-253 45 -272 305q0 219 287 254q124 16 235 1q-8 183 -61 190q-94 3 -247 -169l-216 161q207 307 531 300zM273 274q18 -39 102 -40q70 2 167 22l-11 112l-98 -1q-168 -1 -160 -93z" />
    <glyph glyph-name="afii10066" unicode="&#x431;" horiz-adv-x="957" 
d="M408 -11q-393 21 -405 537q-13 360 173 554q185 163 385 193q136 29 216 93l114 -276q-96 -109 -255 -117q-287 -30 -352 -254q134 121 282 127q296 10 371 -231q88 -336 -165 -561q-140 -84 -364 -65zM674 480q-12 125 -171 104q-145 -48 -154 -169q6 -145 138 -155
q181 20 187 220z" />
    <glyph glyph-name="afii10067" unicode="&#x432;" horiz-adv-x="819" 
d="M474 1027q216 -66 203 -255q-21 -84 -157 -162l59 -14q228 -80 242 -257q8 -117 -49 -210q-149 -170 -702 -129l-78 963q211 110 482 64zM267 811l3 -105q152 28 165 100q-4 21 -34 28q-57 10 -134 -23zM322 243q199 21 204 104q8 46 -35 59q-83 23 -175 -16z" />
    <glyph glyph-name="afii10068" unicode="&#x433;" horiz-adv-x="694" 
d="M707 1020l-34 -237q-328 -29 -391 -58q49 -450 52 -726q-123 -29 -264 -9l-70 952q223 99 707 78z" />
    <glyph glyph-name="afii10069" unicode="&#x434;" horiz-adv-x="1184" 
d="M1056 1033l19 -789l94 -1l28 -398l-297 -27l-14 176l-565 -10l-15 -159l-309 20l12 362l80 4q150 366 119 803zM398 226l394 17l-22 551h-291q7 -314 -81 -568z" />
    <glyph glyph-name="afii10070" unicode="&#x435;" horiz-adv-x="958" 
d="M782 942q159 -129 169 -289l-590 -297q48 -74 182.5 -77t334.5 169l76 -246q-166 -243 -613 -198q-286 97 -332 433q-14 222 69 381q123 204 368 201q199 13 336 -77zM289 555l337 166q-84 112 -242 56q-109 -66 -95 -222z" />
    <glyph glyph-name="afii10072" unicode="&#x436;" horiz-adv-x="1239" 
d="M1132 1014l70 -233q-95 -16 -178 -137q-70 -116 -190 -122q300 -70 431 -453l-297 -42q-68 250 -217 298l-3 -333l-286 22l-2 276q-164 -18 -222 -275l-270 75q127 359 394 427q-109 29 -183 120q-80 118 -214 71l69 246q234 62 271 -81q66 -134 167 -196l-2 342l263 24
l-3 -344q92 40 153 207q51 109 249 108z" />
    <glyph glyph-name="afii10073" unicode="&#x437;" horiz-adv-x="819" 
d="M371 1028q184 0 281 -132q39 -78 39 -166q0 -107 -80 -218q115 -78 115 -223q0 -298 -355 -298q-202 0 -384 138l103 230q185 -116 291 -108q96 10 96 69t-113 66l-53 2l6 219l69 8q51 26 51 86q0 44 -96 56q-95 7 -235 -59l-103 201q171 136 368 129z" />
    <glyph glyph-name="afii10074" unicode="&#x438;" horiz-adv-x="851" 
d="M32 1028l270 -22l31 -365l286 348h236q-31 -606 -70 -991h-244l-20 407l-311 -407h-191q-19 418 13 1030z" />
    <glyph glyph-name="afii10075" unicode="&#x439;" horiz-adv-x="851" 
d="M32 1028l270 -22l31 -365l286 348h236q-31 -606 -70 -991h-244l-20 407l-311 -407h-191q-19 418 13 1030zM98 1349l194 20q19 -80 71 -110q59 -20 103 9q50 30 69 111l194 -30q-22 -124 -100.5 -197t-213.5 -73q-134 0 -214 73.5t-103 196.5z" />
    <glyph glyph-name="afii10076" unicode="&#x43a;" horiz-adv-x="819" 
d="M663 1046l124 -216q-97 -17 -170 -98l-118 -125l262 -258l79 -78l-266 -243l-87 110l-162 203l-18 -349l-318 110l69 898q20 0 249 47l18 -266l110 131q73 109 228 134z" />
    <glyph glyph-name="afii10077" unicode="&#x43b;" horiz-adv-x="1071" 
d="M187 1014l839 10l50 -971l-295 -46l-16 722l-315 12l-20 -572q-3 -175 -220 -177q-76 -11 -224 56l59 230q121 -71 120 41z" />
    <glyph glyph-name="afii10078" unicode="&#x43c;" horiz-adv-x="1276" 
d="M219 1025h186l203 -424l205 424h199l283 -825l-295 -195l-143 446l-170 -444l-167 6l-128 435l-126 -480l-278 172z" />
    <glyph glyph-name="afii10079" unicode="&#x43d;" horiz-adv-x="879" 
d="M562 1059l238 -41l96 -867l-292 -139l-19 291h-283l-26 -297q-270 101 -288 122l79 874l268 40l-2 -437h238z" />
    <glyph glyph-name="afii10080" unicode="&#x43e;" horiz-adv-x="882" 
d="M506 1032q253 -5 354 -226q29 -88 24 -195q0 -249 -177 -469q-143 -140 -365 -140q-259 21 -337 283q-24 85 -23 193q29 390 359 526q87 28 165 28zM268 453q16 -140 128 -140q103 0 208 147q34 64 30 158q0 140 -122 140q-126 0 -226 -183q-22 -62 -18 -122z" />
    <glyph glyph-name="afii10081" unicode="&#x43f;" horiz-adv-x="913" 
d="M33 1012l843 20l50 -975l-289 -47l-16 725l-324 13l-26 -746l-273 69z" />
    <glyph glyph-name="afii10082" unicode="&#x440;" horiz-adv-x="926" 
d="M327 1024l8 -94q152 72 243 77q212 5 320 -226q29 -78 28 -190q9 -293 -171 -429q-47 -45 -160 -51q-103 -6 -188 13l35 -556l-318 33l-80 945l-37 412q42 20 320 66zM361 702l18 -260l4 -73l107 -13q153 11 150 188q-15 199 -180 181z" />
    <glyph glyph-name="afii10083" unicode="&#x441;" horiz-adv-x="825" 
d="M451 1022q242 34 370 -178l-212 -175q-67 64 -134 54q-177 -35 -179 -237q33 -163 160 -147q58 9 133 92l244 -105q-92 -290 -407 -330q-228 -23 -366 240q-42 90 -49 174q-53 373 318 576q40 25 122 36z" />
    <glyph glyph-name="afii10084" unicode="&#x442;" horiz-adv-x="775" 
d="M734 1024q32 -169 51 -302q-134 5 -245 5q12 -419 0 -725h-263q-23 183 -18 617l-1 106q-125 0 -261 -10q19 187 46 303q290 6 691 6z" />
    <glyph glyph-name="afii10085" unicode="&#x443;" horiz-adv-x="871" 
d="M841 989l28 -376q11 -488 -240.5 -722t-429.5 -271l-140 231q285 152 449 361h-138q-320 -1 -362 322q-10 206 3 407l249 72v-80q-25 -360 99 -428q145 -24 209 19q4 267 -36 515z" />
    <glyph glyph-name="afii10086" unicode="&#x444;" horiz-adv-x="1416" 
d="M1424 593q34 -364 -227 -504q-93 -58 -320 -30l-5 -191q-128 -30 -280 -32l-9 185q-108 -43 -250 -43q-237 24 -313 292q-105 404 127 612q181 127 382 80l2 206q118 12 286 21l6 -220q534 134 601 -376zM559 280l-23 414q-204 54 -255 -151q-29 -298 278 -263zM870 302
q283 -14 292 212q-14 252 -296 184z" />
    <glyph glyph-name="afii10087" unicode="&#x445;" horiz-adv-x="1044" 
d="M902 1023l149 -241l-251 -269l189 -259l-216 -239l-222 286q-191 -211 -289 -309q-216 128 -285 164l381 389l-241 311l258 151l202 -259z" />
    <glyph glyph-name="afii10088" unicode="&#x446;" horiz-adv-x="1076" 
d="M50 -34l-52 1009l294 73l43 -806l319 13l-13 770l319 -65l-39 -695l150 2l-21 -445h-218l-5 144h-777z" />
    <glyph glyph-name="afii10089" unicode="&#x447;" horiz-adv-x="922" 
d="M38 994l249 44l3 -373q-16 -338 336 -140l-13 498l313 -61l-28 -970h-268l-5 217q-340 -168 -526 27q-94 126 -96 367z" />
    <glyph glyph-name="afii10090" unicode="&#x448;" horiz-adv-x="1123" 
d="M48 2l-50 968l270 70l41 -766l162 -2l-48 737l265 -13l25 -712l168 2l-13 731l265 -61l-51 -934z" />
    <glyph glyph-name="afii10091" unicode="&#x449;" horiz-adv-x="1276" 
d="M50 -4l-52 971l282 73l42 -760l170 -2l-50 729l276 -13l26 -704l176 3l-14 724l277 -65l-39 -668l130 1l-20 -433h-231l-5 154z" />
    <glyph glyph-name="afii10092" unicode="&#x44a;" horiz-adv-x="1136" 
d="M-11 793l75 229q167 13 501 -24q3 -277 16 -373q171 26 300 9q242 -86 257 -274q8 -125 -53 -223q-157 -181 -763 -146l-68 800q-132 -6 -265 2zM610 257q202 18 206 87q9 38 -35 49q-84 20 -177 -13z" />
    <glyph glyph-name="afii10093" unicode="&#x44b;" horiz-adv-x="1110" 
d="M267 1021q3 -352 15 -441q158 24 279 8q224 -80 239 -255q7 -115 -49 -207q-147 -168 -681 -135l-70 982q130 61 267 48zM289 238q187 17 192 81q8 35 -34 45q-78 18 -164 -12zM1069 1021q3 -352 20 -796l11 -228q-92 -12 -248 1l-70 982q144 54 287 41z" />
    <glyph glyph-name="afii10094" unicode="&#x44c;" horiz-adv-x="819" 
d="M279 1030q3 -355 15 -445q159 25 281 8q226 -80 241 -257q7 -116 -50 -209q-148 -170 -715 -136l-71 990q146 62 299 49zM321 240q189 17 193 82q8 35 -33 46q-79 18 -166 -13z" />
    <glyph glyph-name="afii10095" unicode="&#x44d;" horiz-adv-x="865" 
d="M692 926q209 -180 160 -519q-7 -87 -50 -180q-108 -226 -378 -247q-329 1 -435 340l230 64q55 -86 167 -99q157 -11 203 134q-84 17 -254 23q-2 132 -13 167q109 16 258 13q-40 152 -183 170q-123 0 -177 -66l-204 129q151 191 381 184q188 -1 295 -113z" />
    <glyph glyph-name="afii10096" unicode="&#x44e;" horiz-adv-x="1210" 
d="M827 1031q253 -5 354 -225q29 -89 24 -195q0 -249 -177 -469q-143 -140 -365 -140q-258 21 -336 283q-3 12 -71 17l2 -299q-146 4 -242 8q-15 381 -14 998q104 18 254 22l1 -431l64 -3q66 292 342 406q87 28 164 28zM583 453q16 -140 128 -140q103 0 207 146
q34 64 30 158q0 140 -122 140q-125 0 -225 -183q-23 -62 -18 -121z" />
    <glyph glyph-name="afii10097" unicode="&#x44f;" horiz-adv-x="874" 
d="M292 1011l73 17q253 13 386 9l119 -1030l-299 -7l-36 354l-211 -368l-276 106l196 329q-206 51 -237 220q-15 62 -2 116q84 205 287 254zM493 805q-96 -6 -157 -29q-52 -25 -43 -76q15 -82 209 -58z" />
    <glyph glyph-name="afii10071" unicode="&#x451;" horiz-adv-x="955" 
d="M792 942q159 -129 163 -345l-574 -261q38 -44 172.5 -47t334.5 169l76 -256q-292 -292 -636 -214q-283 113 -329 449q-7 213 60 355q152 230 397 227q199 13 336 -77zM299 580l337 149q-84 100 -242 50q-109 -59 -95 -199zM155 1367l282 13l-28 -232l-270 18zM542 1365
l282 13l-28 -232l-270 18z" />
    <glyph glyph-name="zcaron" unicode="&#x17e;" horiz-adv-x="874" 
d="M837 1021l8 -17v-184q-57 -74 -386 -454v-8l17 8q355 17 394 17q0 8 9 8l8 -16q-42 -352 -59 -378q-667 -17 -806 -17l-8 17v159q0 49 -9 135l353 386h-344q-17 0 -17 17q79 272 101 302q68 8 739 25zM123 1397l259 40l61 -113l60 113l259 -40l-245 -318h-149z" />
    <glyph glyph-name="ccaron" unicode="&#x10d;" horiz-adv-x="839" 
d="M458 1028q267 11 430 -161l-203 -211q-78 68 -169 67q-146 -4 -168 -177q-11 -167 127 -194q89 -16 195 84l177 -169q-176 -273 -490 -270q-210 0 -304 203q-51 113 -51 262q4 342 169 473q99 93 287 93zM126 1397l259 40l61 -113l60 113l259 -40l-245 -318h-149z" />
    <glyph glyph-name="cacute" unicode="&#x107;" horiz-adv-x="839" 
d="M458 1028q267 11 430 -161l-203 -211q-78 68 -169 67q-146 -4 -168 -177q-11 -167 127 -194q89 -16 195 84l177 -169q-176 -273 -490 -270q-210 0 -304 203q-51 113 -51 262q4 342 169 473q99 93 287 93zM592 1414l66 7l103 -226l-399 -137l-95 80z" />
    <glyph glyph-name="dcroat" unicode="&#x111;" horiz-adv-x="1086" 
d="M980 1353q-2 -28 -6 -68l119 -17l-10 -215l-124 11q-39 -637 5 -1038l-317 -58l-8 82q-118 -57 -223 -57h-49q-243 0 -326 248q-17 68 -25 183l-6 93q-4 257 119.5 360.5t264.5 94.5q107 -4 198 -79q-2 65 6 205l-210 23q0 101 9 226l218 -15q3 66 7 112q232 -34 358 -91
zM339 533l1 -50q8 -193 153 -193l106 6l-10 334q-57 34 -161 22q-91 -24 -89 -119z" />
    <glyph glyph-name="scaron" unicode="&#x161;" horiz-adv-x="782" 
d="M380 1039q207 5 407 -231l-177 -178q-175 135 -262 135q-58 -10 -59 -49q14 -47 270 -150q243 -146 226 -351q-44 -195 -258 -219q-79 -16 -204 -7q-208 31 -363 219l160 203q167 -127 237 -127q45 0 59 34q0 54 -213 126q-209 104 -209 304q9 274 386 291zM54 1397
l259 40l61 -113l60 113l259 -40l-245 -318h-149z" />
    <glyph glyph-name="afii10107" unicode="&#x45a;" horiz-adv-x="1323" 
d="M28 1030l245 11l1 -432q102 0 222 -5l4 408l264 -21q3 -275 16 -371q169 27 297 9q240 -85 256 -272q8 -123 -53 -221q-156 -180 -773 -145l-16 357q-105 -3 -216 -3l-8 -358l-268 20zM809 218q210 25 214 118q9 51 -35 66q-84 26 -185 -18z" />
    <glyph glyph-name="afii10099" unicode="&#x452;" horiz-adv-x="1093" 
d="M1086 424q9 -300 -21 -487q-35 -188 -235 -267l-163 136q112 64 140 179q23 131 13 433q-56 279 -311 117l13 -587l-292 63l25 942l-268 -3l12 220h266l-1 100h235l5 -100h269l2 -208h-268l3 -157q563 145 576 -381z" />
    <glyph glyph-name="afii10108" unicode="&#x45b;" horiz-adv-x="1093" 
d="M1086 424q9 -300 -1 -477l-268 48q3 121 -7 423q-56 279 -291 117l13 -587l-302 63l25 942l-268 -3l12 220h266l-1 100h245l5 -100h259l2 -208h-258l3 -157q553 145 566 -381z" />
    <glyph glyph-name="afii10193" unicode="&#x45f;" horiz-adv-x="1007" 
d="M41 -66l-53 1030l313 74l43 -846l370 13l-14 817l323 -66l-44 -1023l-298 -1l-1 -230h-278l-5 232h-356z" />
    <glyph glyph-name="afii10023" unicode="&#x401;" horiz-adv-x="1085" 
d="M1080 1434l-67 -307l-585 -56l30 -231l409 13l-32 -275l-348 -29l22 -236l580 39l-61 -317q-3 -19 -895 -37l-135 1351zM197 1687l282 13l-28 -232l-270 18zM584 1685l282 13l-28 -232l-270 18z" />
    <glyph glyph-name="afii10105" unicode="&#x458;" horiz-adv-x="453" 
d="M423 1013q18 -176 16 -356q17 -922 -168 -1026q-80 -55 -233 -56q-216 4 -301 149l184 196q77 -56 144.5 -4t74 366t-13.5 673zM323 1371q116 -9 129 -103q3 -198 -257 -241h-35q-105 12 -111 129q-8 198 274 215z" />
    <glyph glyph-name="afii10110" unicode="&#x45e;" horiz-adv-x="902" 
d="M841 989l28 -376q11 -488 -240.5 -722t-429.5 -271l-140 231q285 152 449 361h-138q-320 -1 -352 322q-12 209 33 407l249 72v-80q-55 -360 59 -428q145 -24 209 19q4 267 -36 515zM109 1349l154 20q19 -80 71 -110q86 -56 183 9q50 30 69 111l154 -30
q-22 -124 -100.5 -197t-213.5 -73q-134 0 -214 73.5t-103 196.5z" />
    <glyph glyph-name="afii10103" unicode="&#x456;" horiz-adv-x="585" 
d="M379 1390q117 -3 134 -96q11 -251 -278 -256q-106 7 -118 123q-18 197 262 229zM385 882q-84 -254 -68 -494q21 -127 129 -52l170 -211q-102 -106 -281 -119q-311 -16 -330 352q-28 254 73 602z" />
    <glyph glyph-name="afii10101" unicode="&#x454;" horiz-adv-x="832" 
d="M456 1033v0v0q244 34 374 -180l-200 -116q-53 64 -150 54q-136 -23 -189 -164q133 1 240 -14q-12 -35 -14 -164q-166 -6 -217 -22q-18 -156 168 -162q94 13 149 107l225 -43q-92 -293 -412 -333q-230 -24 -369 242q-43 91 -50 176q-53 377 322 583q40 25 123 36z" />
    <glyph glyph-name="afii10104" unicode="&#x457;" horiz-adv-x="595" 
d="M422 863q-63 -153 -82 -387q-8 -122 40 -138t91 25l155 -226q-63 -141 -320 -146q-301 0 -301 369q0 325 105 597zM-17 1367l282 13l-28 -232l-270 18zM370 1365l282 13l-28 -232l-270 18z" />
    <glyph glyph-name="afii10098" unicode="&#x491;" horiz-adv-x="694" 
d="M683 803q-338 -29 -401 -58q49 -470 52 -746q-123 -29 -264 -9l-70 952q162 72 461 81q9 0 -12 250q106 3 238 -3q16 -349 -4 -467z" />
    <glyph glyph-name="gbreve" unicode="&#x11f;" horiz-adv-x="962" 
d="M966 1043q-22 -506 -26 -789.5t-48 -488t-360 -202.5q-248 13 -406 204l145 191q96 -59 229 -63q108 9 103 242q-124 -83 -316 -79q-195 0 -272 238q-28 96 -22 292q6 206 117 323q106 81 296 81q98 0 221 -63l9 76zM345 578q-15 -183 134 -210q92 0 132 38v278
q-71 16 -124 14q-129 2 -142 -120zM163 1349l194 20q19 -80 71 -110q59 -20 103 9q50 30 69 111l194 -30q-22 -124 -100.5 -197t-213.5 -73q-134 0 -214 73.5t-103 196.5z" />
    <glyph glyph-name="scedilla" unicode="&#x15f;" horiz-adv-x="782" 
d="M380 1039q207 5 407 -231l-177 -178q-175 135 -262 135q-58 -10 -59 -49q14 -47 270 -150q243 -146 226 -351q-44 -195 -258 -219q-79 -16 -204 -7q-208 31 -363 219l160 203q167 -127 237 -127q45 0 59 34q0 54 -213 126q-209 104 -209 304q9 274 386 291zM178 -247
q86 -61 144 -61q55 0 78 17t23 41q0 31 -41 47q-30 11 -103 11q-24 0 -54 -2l54 194h137l-35 -87q2 1 34 2q78 0 131.5 -45t53.5 -119q0 -78 -64 -126.5t-177 -48.5q-115 0 -221 58z" />
    <glyph glyph-name="Gbreve" unicode="&#x11e;" horiz-adv-x="1112" 
d="M666 1443q324 0 467 -237l-303 -254q-91 57 -197 57q-255 -5 -291 -290q9 -242 233 -252q78 10 124 67l-156 33l26 180l482 66q24 -129 24 -238q0 -452 -466 -573q-50 -10 -165 -8q-280 0 -426 409q-32 101 -32 262q8 512 417 729q175 49 263 49zM244 1759l194 20
q19 -80 71 -110q59 -20 103 9q50 30 69 111l194 -30q-22 -124 -100.5 -197t-213.5 -73q-134 0 -214 73.5t-103 196.5z" />
    <glyph glyph-name="Scedilla" unicode="&#x15e;" horiz-adv-x="1053" 
d="M1037 1242l-174 -318q-489 215 -479 59q30 -69 204 -114q516 -213 503 -507q5 -188 -230 -309q-94 -49 -298 -63q-236 -7 -536 170l138 306q457 -185 455 -53q-17 64 -392 214q-242 133 -238 374q-21 247 295 405q379 99 752 -164zM344 -247q86 -61 144 -61q55 0 78 17
t23 41q0 31 -41 47q-30 11 -103 11q-24 0 -54 -2l54 194h137l-35 -87q2 1 34 2q78 0 131.5 -45t53.5 -119q0 -78 -64 -126.5t-177 -48.5q-115 0 -221 58z" />
    <glyph glyph-name="abreve" unicode="&#x103;" horiz-adv-x="880" 
d="M529 1039q253 11 311 -367q47 -338 66 -589l-329 -96l-11 63q-138 -54 -294 -53q-253 45 -272 305q0 219 287 254q124 16 235 1q-8 173 -61 180q-94 3 -247 -169l-216 171q207 307 531 300zM302 284q16 -34 91 -35q62 2 149 19l-10 98l-87 -1q-150 -1 -143 -81zM137 1349
l194 20q19 -80 71 -110q59 -20 103 9q50 30 69 111l194 -30q-22 -124 -100.5 -197t-213.5 -73q-134 0 -214 73.5t-103 196.5z" />
    <glyph glyph-name="tcommaaccent" unicode="&#x163;" horiz-adv-x="674" 
d="M577 1446l-48 -357l118 -9l27 -260l-207 -7q-117 -449 13 -484q47 -4 81 24l152 -225q-137 -137 -329 -137q-221 0 -273 177q-58 245 8 648l-167 6l45 264l170 11l38 311zM137 -247q86 -61 144 -61q55 0 78 17t23 41q0 31 -41 47q-30 11 -103 11q-24 0 -54 -2l54 194h137
l-35 -87q2 1 34 2q78 0 131.5 -45t53.5 -119q0 -78 -64 -126.5t-177 -48.5q-115 0 -221 58z" />
    <glyph glyph-name="Abreve" unicode="&#x102;" horiz-adv-x="1173" 
d="M387 1434h407l418 -1194l-415 -242l-57 198h-322l-78 -190l-390 194zM491 460l225 8l-76 254h-62zM286 1759l194 20q19 -80 71 -110q59 -20 103 9q50 30 69 111l194 -30q-22 -124 -100.5 -197t-213.5 -73q-134 0 -214 73.5t-103 196.5z" />
    <glyph glyph-name="Tcommaaccent" unicode="&#x162;" horiz-adv-x="1070" 
d="M1023 1439q45 -238 72 -425q-189 8 -345 8q17 -590 0 -1020h-370q-32 258 -24 867l-2 150q-176 0 -367 -15q27 264 64 427q409 8 972 8zM345 -247q86 -61 144 -61q55 0 78 17t23 41q0 31 -41 47q-30 11 -103 11q-24 0 -54 -2l54 194h137l-35 -87q2 1 34 2q78 0 131.5 -45
t53.5 -119q0 -78 -64 -126.5t-177 -48.5q-115 0 -221 58z" />
    <glyph glyph-name="aogonek" unicode="&#x105;" horiz-adv-x="880" 
d="M529 1039q253 11 311 -367q47 -338 66 -589l-329 -96l-11 63q-138 -54 -294 -53q-253 45 -272 305q0 219 287 254q124 16 235 1q-8 173 -61 180q-94 3 -247 -169l-216 171q207 307 531 300zM302 284q16 -34 91 -35q62 2 149 19l-10 98l-87 -1q-150 -1 -143 -81zM794 67
q-75 -67 -105 -108t-37 -94q0 -47 14.5 -63.5t47.5 -16.5q62 6 113 54l59 -44q-39 -68 -99 -105t-134 -37q-81 0 -130.5 39.5t-49.5 96.5q0 76 58.5 151.5t170.5 126.5h92z" />
    <glyph glyph-name="eogonek" unicode="&#x119;" horiz-adv-x="955" 
d="M792 942q159 -129 163 -345l-574 -261q38 -44 172.5 -47t334.5 169l76 -256q-292 -292 -636 -214q-283 113 -329 449q-7 213 60 355q152 230 397 227q199 13 336 -77zM299 580l337 149q-84 100 -242 50q-109 -59 -95 -199zM842 107q-75 -67 -105 -108t-37 -94
q0 -47 14.5 -63.5t47.5 -16.5q62 6 113 54l59 -44q-39 -68 -99 -105t-134 -37q-81 0 -130.5 39.5t-49.5 96.5q0 76 58.5 151.5t170.5 126.5h92z" />
    <glyph glyph-name="zacute" unicode="&#x17a;" horiz-adv-x="874" 
d="M837 1021l8 -17v-184q-57 -74 -386 -454v-8l17 8q355 17 394 17q0 8 9 8l8 -16q-42 -352 -59 -378q-667 -17 -806 -17l-8 17v159q0 49 -9 135l353 386h-344q-17 0 -17 17q79 272 101 302q68 8 739 25zM589 1414l66 7l103 -226l-399 -137l-95 80z" />
    <glyph glyph-name="zdotaccent" unicode="&#x17c;" horiz-adv-x="874" 
d="M837 1021l8 -17v-184q-57 -74 -386 -454v-8l17 8q355 17 394 17q0 8 9 8l8 -16q-42 -352 -59 -378q-667 -17 -806 -17l-8 17v159q0 49 -9 135l353 386h-344q-17 0 -17 17q79 272 101 302q68 8 739 25zM329 1292l69 72q9 8 21 13.5t26 5.5q13 0 24.5 -5.5t20.5 -14.5
l70 -75q7 -5 9.5 -12t2.5 -15q-1 -9 -3 -15.5t-10 -14.5l-71 -76q-14 -13 -22.5 -18t-20.5 -5q-16 0 -28.5 5t-19.5 14l-74 86q-6 6 -8 12t-2 14q0 6 3.5 13.5t12.5 15.5z" />
    <glyph glyph-name="sacute" unicode="&#x15b;" horiz-adv-x="782" 
d="M380 1039q207 5 407 -231l-177 -178q-175 135 -262 135q-58 -10 -59 -49q14 -47 270 -150q243 -146 226 -351q-44 -195 -258 -219q-79 -16 -204 -7q-208 31 -363 219l160 203q167 -127 237 -127q45 0 59 34q0 54 -213 126q-209 104 -209 304q9 274 386 291zM521 1414
l66 7l103 -226l-399 -137l-95 80z" />
    <glyph glyph-name="nacute" unicode="&#x144;" horiz-adv-x="938" 
d="M315 1059l9 -77q156 46 274 47q183 -10 284 -139q62 -107 59 -265l-23 -627h-318l6 522q3 144 -90 153q-111 9 -146 -93q-20 -107 -18 -582h-336l-7 650q0 147 -19 343zM613 1414l66 7l103 -226l-399 -137l-95 80z" />
    <glyph glyph-name="lslash" unicode="&#x142;" horiz-adv-x="663" 
d="M499 1434q1 -64 6 -331l131 64l39 -379l-155 -88q-5 -321 -8 -708h-376q-8 222 -3 543l-115 -43q-14 118 -29 341l144 101q1 225 6 475z" />
    <glyph glyph-name="Sacute" unicode="&#x15a;" horiz-adv-x="1053" 
d="M1037 1242l-174 -318q-489 215 -479 59q30 -69 204 -114q516 -213 503 -507q5 -188 -230 -309q-94 -49 -298 -63q-236 -7 -536 170l138 306q457 -185 455 -53q-17 64 -392 214q-242 133 -238 374q-21 247 295 405q379 99 752 -164zM687 1824l66 7l103 -226l-399 -137
l-95 80z" />
    <glyph glyph-name="Zdotaccent" unicode="&#x17b;" horiz-adv-x="1149" 
d="M100 1430h954l7 -200l-522 -837q209 17 627 78l-61 -453l-1089 -26l-9 218l532 854h-552zM463 1702l69 72q9 8 21 13.5t26 5.5q13 0 24.5 -5.5t20.5 -14.5l70 -75q7 -5 9.5 -12t2.5 -15q-1 -9 -3 -15.5t-10 -14.5l-71 -76q-14 -13 -22.5 -18t-20.5 -5q-16 0 -28.5 5
t-19.5 14l-74 86q-6 6 -8 12t-2 14q0 6 3.5 13.5t12.5 15.5z" />
    <glyph glyph-name="Zacute" unicode="&#x179;" horiz-adv-x="1149" 
d="M100 1430h954l7 -200l-522 -837q209 17 627 78l-61 -453l-1089 -26l-9 218l532 854h-552zM724 1824l66 7l103 -226l-399 -137l-95 80z" />
    <glyph glyph-name="Zcaron" unicode="&#x17d;" horiz-adv-x="1149" 
d="M100 1430h954l7 -200l-522 -837q209 17 627 78l-61 -453l-1089 -26l-9 218l532 854h-552zM257 1807l259 40l61 -113l60 113l259 -40l-245 -318h-149z" />
    <glyph glyph-name="Ycircumflex" unicode="&#x176;" horiz-adv-x="1046" 
d="M261 1414l308 -407l200 422l321 -261l-580 -1176l-394 282l255 426l-400 462zM266 1519l245 328h149l245 -328l-249 -30l-70 116l-81 -116z" />
    <glyph glyph-name="ycircumflex" unicode="&#x177;" horiz-adv-x="902" 
d="M891 979l35 -322q4 -542 -242.5 -796t-424.5 -291l-200 281q285 152 449 361h-138q-320 -1 -362 322q-10 206 3 407l289 72v-80q0 -360 89 -410q115 -42 179 1q4 267 -36 515zM145 1109l245 328h149l245 -328l-249 -30l-70 116l-81 -116z" />
    <glyph glyph-name="Ydieresis" unicode="&#x178;" horiz-adv-x="1046" 
d="M261 1414l308 -407l200 422l321 -261l-580 -1176l-394 282l255 426l-400 462zM259 1777l282 13l-28 -232l-270 18zM646 1775l282 13l-28 -232l-270 18z" />
    <glyph glyph-name="wcircumflex" unicode="&#x175;" horiz-adv-x="1158" 
d="M327 1066q37 -118 93 -583l142 110l128 -110q76 363 127 524q326 -131 354 -161l-188 -846h-278l-133 162l-137 -162h-220l-133 517l-93 380zM261 1109l245 328h149l245 -328l-249 -30l-70 116l-81 -116z" />
    <glyph glyph-name="Wcircumflex" unicode="&#x174;" horiz-adv-x="1474" 
d="M443 1434l244 -699l147 154l113 -187l147 642l414 -227l-308 -1118h-325l-64 223l-131 -224h-276l-424 1216zM425 1519l245 328h149l245 -328l-249 -30l-70 116l-81 -116z" />
    <glyph glyph-name="uogonek" unicode="&#x173;" horiz-adv-x="845" 
d="M347 1040l-29 -405q-2 -260 104 -251q98 -19 85 369l-14 270l338 -76q45 -640 -53 -758q-127 -183 -389 -194q-171 0 -295 143q-93 154 -93 363q-7 183 17 488zM643 70q-75 -67 -105 -108t-37 -94q0 -47 14.5 -63.5t47.5 -16.5q62 6 113 54l59 -44q-39 -68 -99 -105
t-134 -37q-81 0 -130.5 39.5t-49.5 96.5q0 76 58.5 151.5t170.5 126.5h92z" />
    <glyph glyph-name="Uogonek" unicode="&#x172;" horiz-adv-x="1053" 
d="M-4 1434l414 -57q-13 -395 3 -809q29 -83 107 -63q165 -6 92 832l445 81q12 -508 -122 -1044q-123 -351 -462 -372q-464 0 -464 671zM718 88q-75 -67 -105 -108t-37 -94q0 -47 14.5 -63.5t47.5 -16.5q62 6 113 54l59 -44q-39 -68 -99 -105t-134 -37q-81 0 -130.5 39.5
t-49.5 96.5q0 76 58.5 151.5t170.5 126.5h92z" />
    <glyph glyph-name="uhungarumlaut" unicode="&#x171;" horiz-adv-x="845" 
d="M347 1040l-29 -405q-2 -260 104 -251q98 -19 85 369l-14 270l338 -76q45 -640 -53 -758q-127 -183 -389 -194q-171 0 -295 143q-93 154 -93 363q-7 183 17 488zM193 1079l139 351l201 -61l-202 -290h-138zM518 1079l139 351l201 -61l-202 -290h-138z" />
    <glyph glyph-name="Uhungarumlaut" unicode="&#x170;" horiz-adv-x="1053" 
d="M-4 1434l414 -57q-13 -395 3 -809q29 -83 107 -63q165 -6 92 832l445 81q12 -508 -122 -1044q-123 -351 -462 -372q-464 0 -464 671zM238 1489l139 351l201 -61l-202 -290h-138zM563 1489l139 351l201 -61l-202 -290h-138z" />
    <glyph glyph-name="uring" unicode="&#x16f;" horiz-adv-x="845" 
d="M347 1040l-29 -405q-2 -260 104 -251q98 -19 85 369l-14 270l338 -76q45 -640 -53 -758q-127 -183 -389 -194q-171 0 -295 143q-93 154 -93 363q-7 183 17 488zM335 1274q0 -39 27 -63t60 -24q32 0 59 24t27 63q0 38 -27.5 62t-58.5 24q-32 0 -59.5 -24t-27.5 -62z
M223 1274q0 78 55.5 136t142.5 58q89 0 145 -58.5t56 -135.5q0 -79 -56 -137t-145 -58q-87 0 -142.5 58t-55.5 137z" />
    <glyph glyph-name="Uring" unicode="&#x16e;" horiz-adv-x="1053" 
d="M-4 1434l414 -57q-13 -395 3 -809q29 -83 107 -63q165 -6 92 832l445 81q12 -508 -122 -1044q-123 -351 -462 -372q-464 0 -464 671zM439 1684q0 -39 27 -63t60 -24q32 0 59 24t27 63q0 38 -27.5 62t-58.5 24q-32 0 -59.5 -24t-27.5 -62zM327 1684q0 78 55.5 136
t142.5 58q89 0 145 -58.5t56 -135.5q0 -79 -56 -137t-145 -58q-87 0 -142.5 58t-55.5 137z" />
    <glyph glyph-name="ubreve" unicode="&#x16d;" horiz-adv-x="845" 
d="M347 1040l-29 -405q-2 -260 104 -251q98 -19 85 369l-14 270l338 -76q45 -640 -53 -758q-127 -183 -389 -194q-171 0 -295 143q-93 154 -93 363q-7 183 17 488zM107 1349l194 20q19 -80 71 -110q59 -20 103 9q50 30 69 111l194 -30q-22 -124 -100.5 -197t-213.5 -73
q-134 0 -214 73.5t-103 196.5z" />
    <glyph glyph-name="Ubreve" unicode="&#x16c;" horiz-adv-x="1053" 
d="M-4 1434l414 -57q-13 -395 3 -809q29 -83 107 -63q165 -6 92 832l445 81q12 -508 -122 -1044q-123 -351 -462 -372q-464 0 -464 671zM211 1759l194 20q19 -80 71 -110q59 -20 103 9q50 30 69 111l194 -30q-22 -124 -100.5 -197t-213.5 -73q-134 0 -214 73.5t-103 196.5z
" />
    <glyph glyph-name="umacron" unicode="&#x16b;" horiz-adv-x="845" 
d="M347 1040l-29 -405q-2 -260 104 -251q98 -19 85 369l-14 270l338 -76q45 -640 -53 -758q-127 -183 -389 -194q-171 0 -295 143q-93 154 -93 363q-7 183 17 488zM142 1145v195h560v-195h-560z" />
    <glyph glyph-name="Umacron" unicode="&#x16a;" horiz-adv-x="1053" 
d="M-4 1434l414 -57q-13 -395 3 -809q29 -83 107 -63q165 -6 92 832l445 81q12 -508 -122 -1044q-123 -351 -462 -372q-464 0 -464 671zM247 1555v195h560v-195h-560z" />
    <glyph glyph-name="utilde" unicode="&#x169;" horiz-adv-x="845" 
d="M347 1040l-29 -405q-2 -260 104 -251q98 -19 85 369l-14 270l338 -76q45 -640 -53 -758q-127 -183 -389 -194q-171 0 -295 143q-93 154 -93 363q-7 183 17 488zM792 1391l9 -78q-2 -232 -243 -232q-103 4 -175.5 72t-122.5 53q-60 -10 -110 -86l-105 97q125 165 272 165
q46 0 126.5 -58t157.5 -58q58 11 52 99z" />
    <glyph glyph-name="Utilde" unicode="&#x168;" horiz-adv-x="1053" 
d="M-4 1434l414 -57q-13 -395 3 -809q29 -83 107 -63q165 -6 92 832l445 81q12 -508 -122 -1044q-123 -351 -462 -372q-464 0 -464 671zM897 1801l9 -78q-2 -232 -243 -232q-103 4 -175.5 72t-122.5 53q-60 -10 -110 -86l-105 97q125 165 272 165q46 0 126.5 -58t157.5 -58
q58 11 52 99z" />
    <glyph glyph-name="Scaron" unicode="&#x160;" horiz-adv-x="1053" 
d="M1037 1242l-174 -318q-489 215 -479 59q30 -69 204 -114q516 -213 503 -507q5 -188 -230 -309q-94 -49 -298 -63q-236 -7 -536 170l138 306q457 -185 455 -53q-17 64 -392 214q-242 133 -238 374q-21 247 295 405q379 99 752 -164zM221 1807l259 40l61 -113l60 113
l259 -40l-245 -318h-149z" />
    <glyph glyph-name="scircumflex" unicode="&#x15d;" horiz-adv-x="782" 
d="M380 1039q207 5 407 -231l-177 -178q-175 135 -262 135q-58 -10 -59 -49q14 -47 270 -150q243 -146 226 -351q-44 -195 -258 -219q-79 -16 -204 -7q-208 31 -363 219l160 203q167 -127 237 -127q45 0 59 34q0 54 -213 126q-209 104 -209 304q9 274 386 291zM54 1109
l245 328h149l245 -328l-249 -30l-70 116l-81 -116z" />
    <glyph glyph-name="Scircumflex" unicode="&#x15c;" horiz-adv-x="1053" 
d="M1037 1242l-174 -318q-489 215 -479 59q30 -69 204 -114q516 -213 503 -507q5 -188 -230 -309q-94 -49 -298 -63q-236 -7 -536 170l138 306q457 -185 455 -53q-17 64 -392 214q-242 133 -238 374q-21 247 295 405q379 99 752 -164zM221 1519l245 328h149l245 -328
l-249 -30l-70 116l-81 -116z" />
    <glyph glyph-name="rcaron" unicode="&#x159;" horiz-adv-x="791" 
d="M392 1040l-10 -263q183 178 297 187l144 -271q-310 -81 -432 -314l11 -381h-404l37 966zM91 1397l259 40l61 -113l60 113l259 -40l-245 -318h-149z" />
    <glyph glyph-name="Rcaron" unicode="&#x158;" horiz-adv-x="1224" 
d="M684 1425q294 -19 460 -282q30 -71 25 -160q-9 -182 -243 -346q42 -37 329 -409l-337 -224l-326 468l20 -410l-436 -60l-207 1344q123 43 611 84zM538 1025l16 -152q235 19 239 97q3 49 -63 61q-77 8 -192 -6zM298 1807l259 40l61 -113l60 113l259 -40l-245 -318h-149z
" />
    <glyph glyph-name="Ccircumflex" unicode="&#x108;" horiz-adv-x="1116" 
d="M610 1433q338 47 517 -249l-296 -245q-94 89 -188 75q-248 -49 -250 -331q46 -228 224 -206q80 12 185 128l342 -147q-128 -406 -570 -461q-319 -33 -512 335q-59 126 -68 244q-74 522 445 807q56 34 171 50zM245 1519l245 328h149l245 -328l-249 -30l-70 116l-81 -116z
" />
    <glyph glyph-name="ccircumflex" unicode="&#x109;" horiz-adv-x="839" 
d="M458 1028q267 11 430 -161l-203 -211q-78 68 -169 67q-146 -4 -168 -177q-11 -167 127 -194q89 -16 195 84l177 -169q-176 -273 -490 -270q-210 0 -304 203q-51 113 -51 262q4 342 169 473q99 93 287 93zM126 1109l245 328h149l245 -328l-249 -30l-70 116l-81 -116z" />
    <glyph glyph-name="Cdotaccent" unicode="&#x10a;" horiz-adv-x="1116" 
d="M610 1433q338 47 517 -249l-296 -245q-94 89 -188 75q-248 -49 -250 -331q46 -228 224 -206q80 12 185 128l342 -147q-128 -406 -570 -461q-319 -33 -512 335q-59 126 -68 244q-74 522 445 807q56 34 171 50zM451 1702l69 72q9 8 21 13.5t26 5.5q13 0 24.5 -5.5
t20.5 -14.5l70 -75q7 -5 9.5 -12t2.5 -15q-1 -9 -3 -15.5t-10 -14.5l-71 -76q-14 -13 -22.5 -18t-20.5 -5q-16 0 -28.5 5t-19.5 14l-74 86q-6 6 -8 12t-2 14q0 6 3.5 13.5t12.5 15.5z" />
    <glyph glyph-name="cdotaccent" unicode="&#x10b;" horiz-adv-x="839" 
d="M458 1028q267 11 430 -161l-203 -211q-78 68 -169 67q-146 -4 -168 -177q-11 -167 127 -194q89 -16 195 84l177 -169q-176 -273 -490 -270q-210 0 -304 203q-51 113 -51 262q4 342 169 473q99 93 287 93zM332 1292l69 72q9 8 21 13.5t26 5.5q13 0 24.5 -5.5t20.5 -14.5
l70 -75q7 -5 9.5 -12t2.5 -15q-1 -9 -3 -15.5t-10 -14.5l-71 -76q-14 -13 -22.5 -18t-20.5 -5q-16 0 -28.5 5t-19.5 14l-74 86q-6 6 -8 12t-2 14q0 6 3.5 13.5t12.5 15.5z" />
    <glyph glyph-name="Ccaron" unicode="&#x10c;" horiz-adv-x="1116" 
d="M610 1433q338 47 517 -249l-296 -245q-94 89 -188 75q-248 -49 -250 -331q46 -228 224 -206q80 12 185 128l342 -147q-128 -406 -570 -461q-319 -33 -512 335q-59 126 -68 244q-74 522 445 807q56 34 171 50zM245 1807l259 40l61 -113l60 113l259 -40l-245 -318h-149z
" />
    <glyph glyph-name="Dcroat" unicode="&#x110;" horiz-adv-x="1289" 
d="M594 573l17 -153q228 98 282 342q27 162 -110 255q-129 63 -241 35l21 -190l126 17l21 -275zM118 798l-81 544q376 144 790 63q441 -145 486 -517q11 -114 -21 -235q-74 -333 -504 -581q-282 -110 -547 -103l-72 483l-129 -34l-82 359z" />
    <glyph glyph-name="Cacute" unicode="&#x106;" horiz-adv-x="1116" 
d="M610 1433q338 47 517 -249l-296 -245q-94 89 -188 75q-248 -49 -250 -331q46 -228 224 -206q80 12 185 128l342 -147q-128 -406 -570 -461q-319 -33 -512 335q-59 126 -68 244q-74 522 445 807q56 34 171 50zM711 1824l66 7l103 -226l-399 -137l-95 80z" />
    <glyph glyph-name="Aogonek" unicode="&#x104;" horiz-adv-x="1173" 
d="M387 1434h407l418 -1194l-415 -242l-57 198h-322l-78 -190l-390 194zM491 460l225 8l-76 254h-62zM940 90q-75 -67 -105 -108t-37 -94q0 -47 14.5 -63.5t47.5 -16.5q62 6 113 54l59 -44q-39 -68 -99 -105t-134 -37q-81 0 -130.5 39.5t-49.5 96.5q0 76 58.5 151.5
t170.5 126.5h92z" />
    <glyph glyph-name="amacron" unicode="&#x101;" horiz-adv-x="880" 
d="M529 1039q253 11 311 -367q47 -338 66 -589l-329 -96l-11 63q-138 -54 -294 -53q-253 45 -272 305q0 219 287 254q124 16 235 1q-8 173 -61 180q-94 3 -247 -169l-216 171q207 307 531 300zM302 284q16 -34 91 -35q62 2 149 19l-10 98l-87 -1q-150 -1 -143 -81zM172 1145
v195h560v-195h-560z" />
    <glyph glyph-name="Amacron" unicode="&#x100;" horiz-adv-x="1173" 
d="M387 1434h407l418 -1194l-415 -242l-57 198h-322l-78 -190l-390 194zM491 460l225 8l-76 254h-62zM321 1555v195h560v-195h-560z" />
    <glyph glyph-name="Emacron" unicode="&#x112;" horiz-adv-x="1128" 
d="M1140 1434l-47 -407l-605 -56l19 -131l420 13l-32 -275l-361 -29l15 -156l600 39l-61 -397q-3 -19 -957 -37l-133 1351zM289 1555v195h560v-195h-560z" />
    <glyph glyph-name="emacron" unicode="&#x113;" horiz-adv-x="955" 
d="M792 942q159 -129 163 -345l-574 -261q38 -44 172.5 -47t334.5 169l76 -256q-292 -292 -636 -214q-283 113 -329 449q-7 213 60 355q152 230 397 227q199 13 336 -77zM299 580l337 149q-84 100 -242 50q-109 -59 -95 -199zM201 1145v195h560v-195h-560z" />
    <glyph glyph-name="Ebreve" unicode="&#x114;" horiz-adv-x="1128" 
d="M1140 1434l-47 -407l-605 -56l19 -131l420 13l-32 -275l-361 -29l15 -156l600 39l-61 -397q-3 -19 -957 -37l-133 1351zM253 1759l194 20q19 -80 71 -110q59 -20 103 9q50 30 69 111l194 -30q-22 -124 -100.5 -197t-213.5 -73q-134 0 -214 73.5t-103 196.5z" />
    <glyph glyph-name="ebreve" unicode="&#x115;" horiz-adv-x="955" 
d="M792 942q159 -129 163 -345l-574 -261q38 -44 172.5 -47t334.5 169l76 -256q-292 -292 -636 -214q-283 113 -329 449q-7 213 60 355q152 230 397 227q199 13 336 -77zM299 580l337 149q-84 100 -242 50q-109 -59 -95 -199zM166 1349l194 20q19 -80 71 -110q59 -20 103 9
q50 30 69 111l194 -30q-22 -124 -100.5 -197t-213.5 -73q-134 0 -214 73.5t-103 196.5z" />
    <glyph glyph-name="Edotaccent" unicode="&#x116;" horiz-adv-x="1128" 
d="M1140 1434l-47 -407l-605 -56l19 -131l420 13l-32 -275l-361 -29l15 -156l600 39l-61 -397q-3 -19 -957 -37l-133 1351zM455 1702l69 72q9 8 21 13.5t26 5.5q13 0 24.5 -5.5t20.5 -14.5l70 -75q7 -5 9.5 -12t2.5 -15q-1 -9 -3 -15.5t-10 -14.5l-71 -76q-14 -13 -22.5 -18
t-20.5 -5q-16 0 -28.5 5t-19.5 14l-74 86q-6 6 -8 12t-2 14q0 6 3.5 13.5t12.5 15.5z" />
    <glyph glyph-name="edotaccent" unicode="&#x117;" horiz-adv-x="955" 
d="M792 942q159 -129 163 -345l-574 -261q38 -44 172.5 -47t334.5 169l76 -256q-292 -292 -636 -214q-283 113 -329 449q-7 213 60 355q152 230 397 227q199 13 336 -77zM299 580l337 149q-84 100 -242 50q-109 -59 -95 -199zM368 1292l69 72q9 8 21 13.5t26 5.5
q13 0 24.5 -5.5t20.5 -14.5l70 -75q7 -5 9.5 -12t2.5 -15q-1 -9 -3 -15.5t-10 -14.5l-71 -76q-14 -13 -22.5 -18t-20.5 -5q-16 0 -28.5 5t-19.5 14l-74 86q-6 6 -8 12t-2 14q0 6 3.5 13.5t12.5 15.5z" />
    <glyph glyph-name="Eogonek" unicode="&#x118;" horiz-adv-x="1128" 
d="M1140 1434l-47 -407l-605 -56l19 -131l420 13l-32 -275l-361 -29l15 -156l600 39l-61 -397q-3 -19 -957 -37l-133 1351zM1037 40q-75 -67 -105 -108t-37 -94q0 -47 14.5 -63.5t47.5 -16.5q62 6 113 54l59 -44q-39 -68 -99 -105t-134 -37q-81 0 -130.5 39.5t-49.5 96.5
q0 76 58.5 151.5t170.5 126.5h92z" />
    <glyph glyph-name="Ecaron" unicode="&#x11a;" horiz-adv-x="1128" 
d="M1140 1434l-47 -407l-605 -56l19 -131l420 13l-32 -275l-361 -29l15 -156l600 39l-61 -397q-3 -19 -957 -37l-133 1351zM249 1807l259 40l61 -113l60 113l259 -40l-245 -318h-149z" />
    <glyph glyph-name="ecaron" unicode="&#x11b;" horiz-adv-x="955" 
d="M792 942q159 -129 163 -345l-574 -261q38 -44 172.5 -47t334.5 169l76 -256q-292 -292 -636 -214q-283 113 -329 449q-7 213 60 355q152 230 397 227q199 13 336 -77zM299 580l337 149q-84 100 -242 50q-109 -59 -95 -199zM162 1397l259 40l61 -113l60 113l259 -40
l-245 -318h-149z" />
    <glyph glyph-name="Gcircumflex" unicode="&#x11c;" horiz-adv-x="1112" 
d="M666 1443q324 0 467 -237l-303 -254q-91 57 -197 57q-255 -5 -291 -290q9 -242 233 -252q78 10 124 67l-156 33l26 180l482 66q24 -129 24 -238q0 -452 -466 -573q-50 -10 -165 -8q-280 0 -426 409q-32 101 -32 262q8 512 417 729q175 49 263 49zM240 1519l245 328h149
l245 -328l-249 -30l-70 116l-81 -116z" />
    <glyph glyph-name="gcircumflex" unicode="&#x11d;" horiz-adv-x="962" 
d="M966 1043q-22 -506 -26 -789.5t-48 -488t-360 -202.5q-248 13 -406 204l145 191q96 -59 229 -63q108 9 103 242q-124 -83 -316 -79q-195 0 -272 238q-28 96 -22 292q6 206 117 323q106 81 296 81q98 0 221 -63l9 76zM345 578q-15 -183 134 -210q92 0 132 38v278
q-71 16 -124 14q-129 2 -142 -120zM159 1109l245 328h149l245 -328l-249 -30l-70 116l-81 -116z" />
    <glyph glyph-name="Gdotaccent" unicode="&#x120;" horiz-adv-x="1112" 
d="M666 1443q324 0 467 -237l-303 -254q-91 57 -197 57q-255 -5 -291 -290q9 -242 233 -252q78 10 124 67l-156 33l26 180l482 66q24 -129 24 -238q0 -452 -466 -573q-50 -10 -165 -8q-280 0 -426 409q-32 101 -32 262q8 512 417 729q175 49 263 49zM446 1702l69 72
q9 8 21 13.5t26 5.5q13 0 24.5 -5.5t20.5 -14.5l70 -75q7 -5 9.5 -12t2.5 -15q-1 -9 -3 -15.5t-10 -14.5l-71 -76q-14 -13 -22.5 -18t-20.5 -5q-16 0 -28.5 5t-19.5 14l-74 86q-6 6 -8 12t-2 14q0 6 3.5 13.5t12.5 15.5z" />
    <glyph glyph-name="gdotaccent" unicode="&#x121;" horiz-adv-x="962" 
d="M966 1043q-22 -506 -26 -789.5t-48 -488t-360 -202.5q-248 13 -406 204l145 191q96 -59 229 -63q108 9 103 242q-124 -83 -316 -79q-195 0 -272 238q-28 96 -22 292q6 206 117 323q106 81 296 81q98 0 221 -63l9 76zM345 578q-15 -183 134 -210q92 0 132 38v278
q-71 16 -124 14q-129 2 -142 -120zM365 1292l69 72q9 8 21 13.5t26 5.5q13 0 24.5 -5.5t20.5 -14.5l70 -75q7 -5 9.5 -12t2.5 -15q-1 -9 -3 -15.5t-10 -14.5l-71 -76q-14 -13 -22.5 -18t-20.5 -5q-16 0 -28.5 5t-19.5 14l-74 86q-6 6 -8 12t-2 14q0 6 3.5 13.5t12.5 15.5z
" />
    <glyph glyph-name="Gcommaaccent" unicode="&#x122;" horiz-adv-x="1112" 
d="M666 1443q324 0 467 -237l-303 -254q-91 57 -197 57q-255 -5 -291 -290q9 -242 233 -252q78 10 124 67l-156 33l26 180l482 66q24 -129 24 -238q0 -452 -466 -573q-50 -10 -165 -8q-280 0 -426 409q-32 101 -32 262q8 512 417 729q175 49 263 49zM450.599 -117.805
l225.597 -4.2002l-20 -119.995q-88.7979 -137.994 -234.396 -185.393l-27.1992 40.1982q39.1992 87.5967 43.1992 148.794z" />
    <glyph glyph-name="gcommaaccent" unicode="&#x123;" horiz-adv-x="962" 
d="M966 1043q-22 -506 -26 -789.5t-48 -488t-360 -202.5q-248 13 -406 204l145 191q96 -59 229 -63q108 9 103 242q-124 -83 -316 -79q-195 0 -272 238q-28 96 -22 292q6 206 117 323q106 81 296 81q98 0 221 -63l9 76zM345 578q-15 -183 134 -210q92 0 132 38v278
q-71 16 -124 14q-129 2 -142 -120zM464.305 1145.31q-257.604 170.803 13.2998 411.606l70.001 -31.5q-60.9004 -131.603 43.4014 -259.005z" />
    <glyph glyph-name="Hcircumflex" unicode="&#x124;" horiz-adv-x="1218" 
d="M760 1400l374 -86l90 -1140l-408 -160l-16 396h-375l-25 -404l-402 146l87 1180l395 94l-23 -604h315zM287 1519l245 328h149l245 -328l-249 -30l-70 116l-81 -116z" />
    <glyph glyph-name="hcircumflex" unicode="&#x125;" horiz-adv-x="881" 
d="M328 1448l-7 -523q252 97 394 37q197 -66 173 -397q-6 -172 -17 -566l-297 1q6 153 -1 495q-16 90 -93 80q-110 0 -130 -118l-14 -458h-306l-8 709l-8 676zM133 1377l245 328h149l245 -328l-249 -30l-70 116l-81 -116z" />
    <glyph glyph-name="Hbar" unicode="&#x126;" horiz-adv-x="1254" 
d="M820 1440l324 -56l100 -1180l-398 -190l-26 396h-375l-45 -404q-367 137 -392 166l67 1190l365 54l-3 -594h385zM-51 977l26 262l1309 30l-26 -262z" />
    <glyph glyph-name="hbar" unicode="&#x127;" horiz-adv-x="1044" 
d="M478 1448l-2 -126l269 18l15 -271l-284 -21l-5 -123q252 97 394 37q197 -66 173 -397q-6 -172 -17 -566l-297 1q6 153 -1 495q-16 90 -93 80q-110 0 -130 -118l-14 -458h-306l-8 709l-4 301l-129 -9l14 286l112 12l-1 86z" />
    <glyph glyph-name="Itilde" unicode="&#x128;" horiz-adv-x="843" 
d="M759 1434l35 -404q-107 8 -208 8l31 -659l208 -23l-41 -364h-777l-23 354l198 33v668l-181 -10l49 372zM775 1801l9 -78q-2 -232 -243 -232q-103 4 -175.5 72t-122.5 53q-60 -10 -110 -86l-105 97q125 165 272 165q46 0 126.5 -58t157.5 -58q58 11 52 99z" />
    <glyph glyph-name="itilde" unicode="&#x129;" horiz-adv-x="595" 
d="M422 863q-63 -153 -82 -387q-8 -122 40 -138t91 25l155 -226q-63 -141 -320 -146q-301 0 -301 369q0 325 105 597zM686 1391l9 -78q-2 -232 -243 -232q-103 4 -175.5 72t-122.5 53q-60 -10 -110 -86l-105 97q125 165 272 165q46 0 126.5 -58t157.5 -58q58 11 52 99z" />
    <glyph glyph-name="Imacron" unicode="&#x12a;" horiz-adv-x="843" 
d="M759 1434l35 -404q-107 8 -208 8l31 -659l208 -23l-41 -364h-777l-23 354l198 33v668l-181 -10l49 372zM125 1555v195h560v-195h-560z" />
    <glyph glyph-name="imacron" unicode="&#x12b;" horiz-adv-x="595" 
d="M422 863q-63 -153 -82 -387q-8 -122 40 -138t91 25l155 -226q-63 -141 -320 -146q-301 0 -301 369q0 325 105 597zM36 1145v195h560v-195h-560z" />
    <glyph glyph-name="Ibreve" unicode="&#x12c;" horiz-adv-x="843" 
d="M759 1434l35 -404q-107 8 -208 8l31 -659l208 -23l-41 -364h-777l-23 354l198 33v668l-181 -10l49 372zM89 1759l194 20q19 -80 71 -110q59 -20 103 9q50 30 69 111l194 -30q-22 -124 -100.5 -197t-213.5 -73q-134 0 -214 73.5t-103 196.5z" />
    <glyph glyph-name="ibreve" unicode="&#x12d;" horiz-adv-x="595" 
d="M422 863q-63 -153 -82 -387q-8 -122 40 -138t91 25l155 -226q-63 -141 -320 -146q-301 0 -301 369q0 325 105 597zM0 1349l194 20q19 -80 71 -110q59 -20 103 9q50 30 69 111l194 -30q-22 -124 -100.5 -197t-213.5 -73q-134 0 -214 73.5t-103 196.5z" />
    <glyph glyph-name="Iogonek" unicode="&#x12e;" horiz-adv-x="843" 
d="M759 1434l35 -404q-107 8 -208 8l31 -659l208 -23l-41 -364h-777l-23 354l198 33v668l-181 -10l49 372zM733 10q-75 -67 -105 -108t-37 -94q0 -47 14.5 -63.5t47.5 -16.5q62 6 113 54l59 -44q-39 -68 -99 -105t-134 -37q-81 0 -130.5 39.5t-49.5 96.5q0 76 58.5 151.5
t170.5 126.5h92z" />
    <glyph glyph-name="iogonek" unicode="&#x12f;" horiz-adv-x="570" 
d="M379 1390q117 -3 134 -96q11 -251 -278 -256q-106 7 -118 123q-18 197 262 229zM425 882q-84 -254 -68 -434q21 -127 129 -52l130 -271q-102 -106 -281 -119q-311 -16 -330 352q-28 254 73 602zM524 70q-75 -67 -105 -108t-37 -94q0 -47 14.5 -63.5t47.5 -16.5
q62 6 113 54l59 -44q-39 -68 -99 -105t-134 -37q-81 0 -130.5 39.5t-49.5 96.5q0 76 58.5 151.5t170.5 126.5h92z" />
    <glyph glyph-name="Idotaccent" unicode="&#x130;" horiz-adv-x="843" 
d="M759 1434l35 -404q-107 8 -208 8l31 -659l208 -23l-41 -364h-777l-23 354l198 33v668l-181 -10l49 372zM291 1702l69 72q9 8 21 13.5t26 5.5q13 0 24.5 -5.5t20.5 -14.5l70 -75q7 -5 9.5 -12t2.5 -15q-1 -9 -3 -15.5t-10 -14.5l-71 -76q-14 -13 -22.5 -18t-20.5 -5
q-16 0 -28.5 5t-19.5 14l-74 86q-6 6 -8 12t-2 14q0 6 3.5 13.5t12.5 15.5z" />
    <glyph glyph-name="IJ" unicode="&#x132;" horiz-adv-x="1792" 
d="M759 1434l35 -404q-107 8 -208 8l31 -659l208 -23l-41 -364h-777l-23 354l198 33v668l-181 -10l49 372zM1820 1466q-24 -843 -80 -1011q-127 -425 -488 -460q-367 -4 -419 350q-18 213 104 422l256 -192q4 -95 74 -93q130 12 110 863z" />
    <glyph glyph-name="ij" unicode="&#x133;" horiz-adv-x="1023" 
d="M379 1390q117 -3 134 -96q11 -251 -278 -256q-106 7 -118 123q-18 197 262 229zM425 882q-84 -254 -68 -434q21 -127 129 -52l130 -271q-102 -106 -281 -119q-311 -16 -330 352q-28 254 73 602zM1013 1013q18 -176 16 -356q7 -922 -215 -1047q-49 -38 -208 -41
q-234 0 -319 145l184 216q51 -46 132 1t77 356t-24 668zM893 1371q116 -9 129 -103q3 -198 -257 -241h-35q-105 12 -111 129q-8 198 274 215z" />
    <glyph glyph-name="Jcircumflex" unicode="&#x134;" horiz-adv-x="949" 
d="M967 1466q-24 -843 -80 -1011q-127 -425 -488 -460q-367 -4 -419 350q-18 213 104 422l256 -192q4 -95 74 -93q130 12 110 863zM403 1539l245 328h149l245 -328l-249 -30l-70 116l-81 -116z" />
    <glyph glyph-name="jcircumflex" unicode="&#x135;" horiz-adv-x="461" 
d="M443 1013q18 -176 16 -356q7 -922 -215 -1047q-49 -38 -208 -41q-234 0 -319 145l184 216q51 -46 132 1t77 356t-24 668zM-59 1109l245 328h149l245 -328l-229 -30l-90 136l-81 -136z" />
    <glyph glyph-name="Kcommaaccent" unicode="&#x136;" 
d="M765 1436l196 -275l-282 -336l462 -455l-360 -329l-337 423l-24 -472l-431 149l94 1216q27 0 337 63l24 -360zM455.599 -117.805l225.597 -4.2002l-20 -119.995q-88.7979 -137.994 -234.396 -185.393l-27.1992 40.1982q39.1992 87.5967 43.1992 148.794z" />
    <glyph glyph-name="kcommaaccent" unicode="&#x137;" horiz-adv-x="900" 
d="M512 1315q-49 -330 -61 -544l375 184l86 -258l-293 -181q130 -111 282 -290l-236 -221l-275 286q-32 -160 -56 -293h-327l141 1444zM350.599 -117.805l225.597 -4.2002l-20 -119.995q-88.7979 -137.994 -234.396 -185.393l-27.1992 40.1982
q39.1992 87.5967 43.1992 148.794z" />
    <glyph glyph-name="kgreenlandic" unicode="&#x138;" horiz-adv-x="900" 
d="M512 1315q-49 -330 -61 -544l375 184l86 -258l-293 -181q130 -111 282 -290l-236 -221l-275 286q-32 -160 -56 -293h-327l141 1444z" />
    <glyph glyph-name="Lacute" unicode="&#x139;" horiz-adv-x="1012" 
d="M480 1436l-76 -1013l625 8q-16 -306 -16 -387l-1020 -46l54 1382zM429 1784l66 7l103 -226l-399 -137l-95 80z" />
    <glyph glyph-name="lacute" unicode="&#x13a;" horiz-adv-x="580" 
d="M486 1354q-158 -664 -158 -877q0 -138 71 -138q52 3 87 49l151 -204q-95 -189 -333 -184q-214 0 -265 153q-40 101 -40 267q-10 436 125 910zM492 1706l51 -15l83 -196l-399 -137l-75 50z" />
    <glyph glyph-name="Lcommaaccent" unicode="&#x13b;" horiz-adv-x="1012" 
d="M480 1436l-76 -1013l625 8q-16 -306 -16 -387l-1020 -46l54 1382zM402.599 -117.805l225.597 -4.2002l-20 -119.995q-88.7979 -137.994 -234.396 -185.393l-27.1992 40.1982q39.1992 87.5967 43.1992 148.794z" />
    <glyph glyph-name="lcommaaccent" unicode="&#x13c;" horiz-adv-x="580" 
d="M506 1454q-178 -764 -178 -977q0 -138 71 -138q52 3 87 49l151 -204q-95 -189 -333 -184q-214 0 -265 153q-40 101 -40 267q-10 436 145 1010zM208.599 -117.805l225.597 -4.2002l-20 -119.995q-88.7979 -137.994 -234.396 -185.393l-27.1992 40.1982
q39.1992 87.5967 43.1992 148.794z" />
    <glyph glyph-name="Lcaron" unicode="&#x13d;" horiz-adv-x="1012" 
d="M480 1436l-76 -1013l625 8q-16 -306 -16 -387l-1020 -46l54 1382zM856 1426l51 -15l123 -166l-209 -337l-115 20z" />
    <glyph glyph-name="lcaron" unicode="&#x13e;" horiz-adv-x="1080" 
d="M506 1454q-178 -764 -178 -977q0 -138 71 -138q52 3 87 49l151 -204q-95 -189 -333 -184q-214 0 -265 153q-40 101 -40 267q-10 436 145 1010zM842 1426l51 -15l123 -166l-209 -337l-115 20z" />
    <glyph glyph-name="Ldot" unicode="&#x13f;" horiz-adv-x="1012" 
d="M480 1436l-76 -1013l625 8q-16 -306 -16 -387l-1020 -46l54 1382zM692 717q0 54 38 92t92 38t92 -38t38 -92t-38 -92t-92 -38t-92 38t-38 92z" />
    <glyph glyph-name="ldot" unicode="&#x140;" horiz-adv-x="840" 
d="M506 1454q-178 -764 -178 -977q0 -138 71 -138q52 3 87 49l151 -204q-95 -189 -333 -184q-214 0 -265 153q-40 101 -40 267q-10 436 145 1010zM637 727q0 54 38 92t92 38t92 -38t38 -92t-38 -92t-92 -38t-92 38t-38 92z" />
    <glyph glyph-name="Lslash" unicode="&#x141;" horiz-adv-x="1160" 
d="M621 1436l-33 -502l198 171l48 -260l-273 -234l-16 -188l625 8q-16 -306 -16 -387l-1020 -46l13 333l-99 -73l-49 250l161 134l28 738z" />
    <glyph glyph-name="Nacute" unicode="&#x143;" horiz-adv-x="1158" 
d="M1180 1434q-137 -1371 -162 -1436h-266l-324 568l-58 -568h-360q-4 537 52 1381h349l229 -454l133 478zM742 1824l66 7l103 -226l-399 -137l-95 80z" />
    <glyph glyph-name="Ncommaaccent" unicode="&#x145;" horiz-adv-x="1158" 
d="M1180 1434q-137 -1371 -162 -1436h-266l-324 568l-58 -568h-360q-4 537 52 1381h349l229 -454l133 478zM485.599 -117.805l225.597 -4.2002l-20 -119.995q-88.7979 -137.994 -234.396 -185.393l-27.1992 40.1982q39.1992 87.5967 43.1992 148.794z" />
    <glyph glyph-name="ncommaaccent" unicode="&#x146;" horiz-adv-x="938" 
d="M315 1059l9 -77q156 46 274 47q183 -10 284 -139q62 -107 59 -265l-23 -627h-318l6 522q3 144 -90 153q-111 9 -146 -93q-20 -107 -18 -582h-336l-7 650q0 147 -19 343zM356.599 -117.805l225.597 -4.2002l-20 -119.995q-88.7979 -137.994 -234.396 -185.393
l-27.1992 40.1982q39.1992 87.5967 43.1992 148.794z" />
    <glyph glyph-name="Ncaron" unicode="&#x147;" horiz-adv-x="1158" 
d="M1180 1434q-137 -1371 -162 -1436h-266l-324 568l-58 -568h-360q-4 537 52 1381h349l229 -454l133 478zM275 1807l259 40l61 -113l60 113l259 -40l-245 -318h-149z" />
    <glyph glyph-name="ncaron" unicode="&#x148;" horiz-adv-x="938" 
d="M315 1059l9 -77q156 46 274 47q183 -10 284 -139q62 -107 59 -265l-23 -627h-318l6 522q3 144 -90 153q-111 9 -146 -93q-20 -107 -18 -582h-336l-7 650q0 147 -19 343zM146 1397l259 40l61 -113l60 113l259 -40l-245 -318h-149z" />
    <glyph glyph-name="napostrophe" unicode="&#x149;" horiz-adv-x="1134" 
d="M213.804 1563.92q211.403 -156.803 -18.9004 -406.708l-77.002 38.501q60.9014 131.603 -44.1006 258.305zM512 1059l9 -77q156 46 274 47q183 -10 284 -139q62 -107 59 -265l-23 -627h-318l6 522q3 144 -90 153q-111 9 -146 -93q-20 -107 -18 -582h-336l-7 650
q0 147 -19 343z" />
    <glyph glyph-name="Eng" unicode="&#x14a;" horiz-adv-x="1185" 
d="M400 1431v0l12 -97q196 58 345 59q231 -12 359 -175q103 -144 84 -741q-24 -743 -410 -837l-203 275q278 67 236 847q-20 199 -159 202q-140 11 -184 -118q-26 -135 -33 -754h-424l-9 820q0 186 -24 433z" />
    <glyph glyph-name="eng" unicode="&#x14b;" horiz-adv-x="819" 
d="M315 1059v0l9 -77q156 46 274 47q183 -10 284 -139q62 -107 59 -265l-18 -646q-16 -249 -299 -339l-161 218q115 55 139 136l4 526q3 144 -90 153q-111 9 -146 -93q-20 -107 -18 -582h-336l-7 650q0 147 -19 343z" />
    <glyph glyph-name="Omacron" unicode="&#x14c;" horiz-adv-x="1216" 
d="M710 1434q352 -8 492 -314q41 -123 34 -271q0 -346 -246 -652q-199 -195 -508 -195q-360 29 -468 394q-33 118 -32 267q41 542 499 732q121 39 229 39zM380 629q22 -195 178 -195q143 0 288 204q48 89 42 220q0 195 -169 195q-175 0 -314 -255q-31 -86 -25 -169z
M329 1555v195h560v-195h-560z" />
    <glyph glyph-name="omacron" unicode="&#x14d;" horiz-adv-x="945" 
d="M550 1034q290 0 383 -250q19 -58 16 -149q0 -289 -241 -533q-120 -114 -341 -108q-332 9 -366 408q-18 360 261 542q152 90 288 90zM330 446q17 -105 105 -105q192 32 201 202q7 138 -97 142q-205 -34 -209 -239zM195 1145v195h560v-195h-560z" />
    <glyph glyph-name="Obreve" unicode="&#x14e;" horiz-adv-x="1216" 
d="M710 1434q352 -8 492 -314q41 -123 34 -271q0 -346 -246 -652q-199 -195 -508 -195q-360 29 -468 394q-33 118 -32 267q41 542 499 732q121 39 229 39zM380 629q22 -195 178 -195q143 0 288 204q48 89 42 220q0 195 -169 195q-175 0 -314 -255q-31 -86 -25 -169z
M294 1759l194 20q19 -80 71 -110q59 -20 103 9q50 30 69 111l194 -30q-22 -124 -100.5 -197t-213.5 -73q-134 0 -214 73.5t-103 196.5z" />
    <glyph glyph-name="obreve" unicode="&#x14f;" horiz-adv-x="945" 
d="M550 1034q290 0 383 -250q19 -58 16 -149q0 -289 -241 -533q-120 -114 -341 -108q-332 9 -366 408q-18 360 261 542q152 90 288 90zM330 446q17 -105 105 -105q192 32 201 202q7 138 -97 142q-205 -34 -209 -239zM159 1349l194 20q19 -80 71 -110q59 -20 103 9
q50 30 69 111l194 -30q-22 -124 -100.5 -197t-213.5 -73q-134 0 -214 73.5t-103 196.5z" />
    <glyph glyph-name="Ohungarumlaut" unicode="&#x150;" horiz-adv-x="1216" 
d="M710 1434q352 -8 492 -314q41 -123 34 -271q0 -346 -246 -652q-199 -195 -508 -195q-360 29 -468 394q-33 118 -32 267q41 542 499 732q121 39 229 39zM380 629q22 -195 178 -195q143 0 288 204q48 89 42 220q0 195 -169 195q-175 0 -314 -255q-31 -86 -25 -169z
M392 1489l139 351l201 -61l-202 -290h-138zM717 1489l139 351l201 -61l-202 -290h-138z" />
    <glyph glyph-name="ohungarumlaut" unicode="&#x151;" horiz-adv-x="945" 
d="M550 1034q290 0 383 -250q19 -58 16 -149q0 -289 -241 -533q-120 -114 -341 -108q-332 9 -366 408q-18 360 261 542q152 90 288 90zM330 446q17 -105 105 -105q192 32 201 202q7 138 -97 142q-205 -34 -209 -239zM257 1079l139 351l201 -61l-202 -290h-138zM582 1079
l139 351l201 -61l-202 -290h-138z" />
    <glyph glyph-name="OE" unicode="&#x152;" horiz-adv-x="1966" 
d="M710 1434q352 -8 492 -314q41 -123 34 -271q0 -346 -246 -652q-199 -195 -508 -195q-360 29 -468 394q-33 118 -32 267q41 542 499 732q121 39 229 39zM380 629q22 -195 178 -195q143 0 288 204q48 89 42 220q0 195 -169 195q-175 0 -314 -255q-31 -86 -25 -169z
M1979 1434l-47 -407l-605 -56l19 -131l420 13l-32 -275l-361 -29l15 -156l600 39l-61 -397q-3 -19 -957 -37l-133 1351z" />
    <glyph glyph-name="oe" unicode="&#x153;" horiz-adv-x="1713" 
d="M550 1034q290 0 383 -250q19 -58 16 -149q0 -289 -241 -533q-120 -114 -341 -108q-332 9 -366 408q-18 360 261 542q152 90 288 90zM330 446q17 -105 105 -105q192 32 201 202q7 138 -97 142q-205 -34 -209 -239zM1550 942q159 -129 163 -345l-574 -261q38 -44 172.5 -47
t334.5 169l76 -256q-292 -292 -636 -214q-283 113 -329 449q-7 213 60 355q152 230 397 227q199 13 336 -77zM1057 580l337 149q-84 100 -242 50q-109 -59 -95 -199z" />
    <glyph glyph-name="Racute" unicode="&#x154;" horiz-adv-x="1224" 
d="M684 1425q294 -19 460 -282q30 -71 25 -160q-9 -182 -243 -346q42 -37 329 -409l-337 -224l-326 468l20 -410l-436 -60l-207 1344q123 43 611 84zM538 1025l16 -152q235 19 239 97q3 49 -63 61q-77 8 -192 -6zM764 1824l66 7l103 -226l-399 -137l-95 80z" />
    <glyph glyph-name="racute" unicode="&#x155;" horiz-adv-x="791" 
d="M392 1040l-10 -263q183 178 297 187l144 -271q-310 -81 -432 -314l11 -381h-404l37 966zM558 1414l66 7l103 -226l-399 -137l-95 80z" />
    <glyph glyph-name="Rcommaaccent" unicode="&#x156;" horiz-adv-x="1224" 
d="M684 1425q294 -19 460 -282q30 -71 25 -160q-9 -182 -243 -346q42 -37 329 -409l-337 -224l-326 468l20 -410l-436 -60l-207 1344q123 43 611 84zM538 1025l16 -152q235 19 239 97q3 49 -63 61q-77 8 -192 -6zM507.599 -117.805l225.597 -4.2002l-20 -119.995
q-88.7979 -137.994 -234.396 -185.393l-27.1992 40.1982q39.1992 87.5967 43.1992 148.794z" />
    <glyph glyph-name="rcommaaccent" unicode="&#x157;" horiz-adv-x="791" 
d="M392 1040l-10 -263q183 178 297 187l144 -271q-310 -81 -432 -314l11 -381h-404l37 966zM101.599 -117.805l225.597 -4.2002l-20 -119.995q-88.7979 -137.994 -234.396 -185.393l-27.1992 40.1982q39.1992 87.5967 43.1992 148.794z" />
    <glyph glyph-name="Tcaron" unicode="&#x164;" horiz-adv-x="1070" 
d="M1023 1439q45 -238 72 -425q-189 8 -345 8q17 -590 0 -1020h-370q-32 258 -24 867l-2 150q-176 0 -367 -15q27 264 64 427q409 8 972 8zM222 1807l259 40l61 -113l60 113l259 -40l-245 -318h-149z" />
    <glyph glyph-name="tcaron" unicode="&#x165;" horiz-adv-x="1174" 
d="M577 1446l-48 -357l118 -9l27 -260l-207 -7q-117 -449 13 -484q47 -4 81 24l152 -225q-137 -137 -329 -137q-221 0 -273 177q-58 245 8 648l-167 6l45 264l170 11l38 311zM936 1426l51 -15l123 -166l-209 -337l-115 20z" />
    <glyph glyph-name="Tbar" unicode="&#x166;" horiz-adv-x="1082" 
d="M1023 1439q45 -238 72 -425q-189 8 -345 8q5 -190 7 -364l131 -4q1 -136 0 -307l-131 -8q-2 -201 -7 -337h-370q-14 111 -20 337l-151 8q-4 158 -5 297l150 11l2 214l-2 150q-176 0 -367 -15q27 264 64 427q409 8 972 8z" />
    <glyph glyph-name="tbar" unicode="&#x167;" horiz-adv-x="674" 
d="M577 1446l-48 -357l118 -9l27 -260l-207 -7q-22 -84 -35 -152l114 -12l-1 -225l-129 -16q4 -67 64 -79q47 -4 81 24l152 -225q-137 -137 -329 -137q-221 0 -273 177q-20 85 -23 201l-95 -8q-12 120 -3 275l104 11q9 70 25 169l-167 6l45 264l170 11l38 311z" />
    <glyph glyph-name="afii10050" unicode="&#x490;" horiz-adv-x="819" 
d="M912 1099q-451 -39 -536 -78q67 -648 70 -1016q-164 -38 -352 -12l-94 1292q216 96 615 108q13 0 -15 314q141 3 318 -4q21 -447 -6 -604z" />
    <glyph glyph-name="uni0326" unicode="&#x326;" horiz-adv-x="0" 
d="M-498.401 -117.805l225.597 -4.2002l-20 -119.995q-88.7979 -137.994 -234.396 -185.393l-27.1992 40.1982q39.1992 87.5967 43.1992 148.794z" />
    <glyph glyph-name="uni0315" unicode="&#x315;" horiz-adv-x="500" 
d="M262 1426l51 -15l123 -166l-209 -337l-115 20z" />
    <glyph glyph-name="uni0314" unicode="&#x314;" horiz-adv-x="500" 
d="M286 1426l150 -498l-115 -20l-209 337l123 166z" />
    <glyph glyph-name="uni0313" unicode="&#x313;" horiz-adv-x="500" 
d="M262 1426l51 -15l123 -166l-209 -337l-115 20z" />
    <glyph glyph-name="uni0312" unicode="&#x312;" horiz-adv-x="500" 
d="M296 907l-53 9l-139 153l172 357l117 -8z" />
    <glyph glyph-name="uni0307" unicode="&#x307;" horiz-adv-x="0" 
d="M-594 1292l69 72q9 8 21 13.5t26 5.5q13 0 24.5 -5.5t20.5 -14.5l70 -75q7 -5 9.5 -12t2.5 -15q-1 -9 -3 -15.5t-10 -14.5l-71 -76q-14 -13 -22.5 -18t-20.5 -5q-16 0 -28.5 5t-19.5 14l-74 86q-6 6 -8 12t-2 14q0 6 3.5 13.5t12.5 15.5z" />
    <glyph glyph-name="Dcaron" unicode="&#x10e;" horiz-adv-x="1245" 
d="M777 1405q441 -145 486 -517q11 -114 -21 -235q-74 -333 -504 -581q-282 -110 -547 -103l-204 1373q376 144 790 63zM522 1052l69 -632q228 98 282 342q27 162 -110 255q-129 63 -241 35zM307 1807l259 40l61 -113l60 113l259 -40l-245 -318h-149z" />
    <glyph glyph-name="dcaron" unicode="&#x10f;" horiz-adv-x="1521" 
d="M649 1452q359 -76 371 -99q-70 -839 -16 -1327l-347 -58l-8 82q-118 -57 -223 -57h-49q-263 0 -346 248q-17 68 -25 183l-6 93q-4 257 119.5 360.5t284.5 94.5q107 -4 198 -79q-3 128 30 551zM343 533l1 -50q8 -193 157 -193l108 6l-10 334q-59 34 -165 22
q-93 -24 -91 -119zM1283 1426l51 -15l123 -166l-209 -337l-115 20z" />
    <glyph glyph-name="uni0400" unicode="&#x400;" horiz-adv-x="1128" 
d="M1140 1434l-47 -407l-605 -56l19 -131l420 13l-32 -275l-361 -29l15 -156l600 39l-61 -397q-3 -19 -957 -37l-133 1351zM731 1560l-70 -102l-378 201l22 57l209 129z" />
    <glyph glyph-name="uni0450" unicode="&#x450;" horiz-adv-x="955" 
d="M792 942q159 -129 163 -345l-574 -261q38 -44 172.5 -47t334.5 169l76 -256q-292 -292 -636 -214q-283 113 -329 449q-7 213 60 355q152 230 397 227q199 13 336 -77zM299 580l337 149q-84 100 -242 50q-109 -59 -95 -199zM644 1150l-70 -102l-378 201l22 57l209 129z
" />
    <glyph glyph-name="afii10100" unicode="&#x453;" horiz-adv-x="694" 
d="M707 1020l-34 -237q-328 -29 -391 -58q49 -450 52 -726q-123 -29 -264 -9l-70 952q223 99 707 78zM501 1414l66 7l103 -226l-399 -137l-95 80z" />
    <glyph glyph-name="afii10102" unicode="&#x455;" horiz-adv-x="782" 
d="M380 1039q207 5 407 -231l-177 -178q-175 135 -262 135q-58 -10 -59 -49q14 -47 270 -150q243 -146 226 -351q-44 -195 -258 -219q-79 -16 -204 -7q-208 31 -363 219l160 203q167 -127 237 -127q45 0 59 34q0 54 -213 126q-209 104 -209 304q9 274 386 291z" />
    <glyph glyph-name="afii10109" unicode="&#x45c;" horiz-adv-x="819" 
d="M663 1046l124 -216q-97 -17 -170 -98l-118 -125l262 -258l79 -78l-266 -243l-87 110l-162 203l-18 -349l-318 110l69 898q20 0 249 47l18 -266l110 131q73 109 228 134zM562 1414l66 7l103 -226l-399 -137l-95 80z" />
    <glyph glyph-name="uni045D" unicode="&#x45d;" horiz-adv-x="851" 
d="M32 1028l270 -22l31 -365l286 348h236q-31 -606 -70 -991h-244l-20 407l-311 -407h-191q-19 418 13 1030zM596 1150l-70 -102l-378 201l22 57l209 129z" />
    <glyph glyph-name="afii10106" unicode="&#x459;" horiz-adv-x="1523" 
d="M197 1028q410 13 746 -24q3 -279 17 -376q171 27 300 9q244 -86 259 -275q8 -125 -53 -224q-159 -183 -752 -147l-68 828q-93 -1 -198 0l-16 -652q-18 -149 -268 -166q-122 7 -176 75q34 76 84 219q80 -46 97 10zM988 259q203 18 208 87q8 39 -36 49q-85 20 -178 -13z
" />
    <glyph glyph-name="afii57929" unicode="&#x2bc;" horiz-adv-x="528" 
d="M213.804 1563.92q211.403 -156.803 -18.9004 -406.708l-77.002 38.501q60.9014 131.603 -44.1006 258.305z" />
    <glyph glyph-name="uni02BB" unicode="&#x2bb;" horiz-adv-x="529" 
d="M327.305 1145.31q-257.604 170.803 13.2998 411.606l70.001 -31.5q-60.9004 -131.603 43.4014 -259.005z" />
    <glyph glyph-name="afii64937" unicode="&#x2bd;" horiz-adv-x="528" 
d="M158.196 1563.92q-211.403 -156.803 18.9004 -406.708l77.002 38.501q-60.9014 131.603 44.1006 258.305z" />
    <glyph glyph-name="longs" unicode="&#x17f;" horiz-adv-x="727" 
d="M864 1398l-117 -274q-87 25 -175 25q-173 0 -173 -198l-10 -306q-11 -296 -6 -587l-392 -83q33 738 100 1140q107 325 416 325q220 4 357 -42z" />
    <glyph glyph-name="uni0370" unicode="&#x370;" horiz-adv-x="939" 
d="M520 8v0v0q-173 -5 -407 -10l-135 1351l407 32l53 -541l509 13l-32 -275l-448 -29z" />
    <glyph glyph-name="uni0371" unicode="&#x371;" horiz-adv-x="1050" 
d="M729 5v0v0v0q-134 -3 -346 -7l-64 603q-14 136 -105 149l-235 3l48 304l247 -5q353 11 375 -241l16 -159l395 10l-24 -274l-348 -22z" />
    <glyph glyph-name="uni0372" unicode="&#x372;" horiz-adv-x="1278" 
d="M1233 1439v0v0l55 -582l-278 -19l-12 207l-158 -3q17 -610 0 -1040h-370q-32 258 -24 837l5 210l-174 -3l-6 -182l-281 20l31 547q529 8 1212 8z" />
    <glyph glyph-name="uni0373" unicode="&#x373;" horiz-adv-x="1278" 
d="M1223 1439v0v0v0l55 -582l-278 -19l-12 207l-158 -3q17 -610 0 -1040h-350q-32 258 -24 837l5 210l-94 1q-62 5 -66 -34t55 -105l-139 -195q-136 108 -180 179q-56 114 -22 279q45 245 259 267q286 -2 949 -2z" />
    <glyph glyph-name="uni0374" unicode="&#x374;" horiz-adv-x="500" 
d="M262 1426v0l51 -15l123 -166l-233 -244l-115 20z" />
    <glyph glyph-name="uni0375" unicode="&#x375;" horiz-adv-x="584" 
d="M14 -377v0v0l396 381l150 -61l-249 -346l-264 -21z" />
    <glyph glyph-name="uni0376" unicode="&#x376;" horiz-adv-x="1181" 
d="M30 1434l377 -31l33 -558l409 534h339q-34 -844 -78 -1381h-350l-18 608l-434 -608h-286q-27 583 8 1436z" />
    <glyph glyph-name="uni0377" unicode="&#x377;" horiz-adv-x="1102" 
d="M32 1028l360 -22l31 -345l286 328h316q-22 -422 -19 -866q17 -134 124 -207l-200 -265q-236 119 -287 361l-32 363l-311 -377h-281q-19 418 13 1030z" />
    <glyph glyph-name="uni037A" unicode="&#x37a;" horiz-adv-x="306" 
d="M62 -422l30 368l135 20l36 -260l-130 -123z" />
    <glyph glyph-name="uni037B" unicode="&#x37b;" horiz-adv-x="839" 
d="M432 1028q-267 11 -430 -161l203 -211q78 68 169 67q146 -4 168 -177q11 -167 -127 -194q-89 -16 -195 84l-177 -169q176 -273 490 -270q210 0 304 203q51 113 51 262q-4 342 -169 473q-99 93 -287 93z" />
    <glyph glyph-name="uni037C" unicode="&#x37c;" horiz-adv-x="839" 
d="M458 1028q267 11 430 -161l-203 -211q-78 68 -169 67q-146 -4 -168 -177q-11 -167 127 -194q89 -16 195 84l177 -169q-176 -273 -490 -270q-210 0 -304 203q-51 113 -51 262q4 342 169 473q99 93 287 93zM382 547l69 72q9 8 21 13.5t26 5.5q13 0 24.5 -5.5t20.5 -14.5
l70 -75q7 -5 9.5 -12t2.5 -15q-1 -9 -3 -15.5t-10 -14.5l-71 -76q-14 -13 -22.5 -18t-20.5 -5q-16 0 -28.5 5t-19.5 14l-74 86q-6 6 -8 12t-2 14q0 6 3.5 13.5t12.5 15.5z" />
    <glyph glyph-name="uni037D" unicode="&#x37d;" horiz-adv-x="839" 
d="M432 1028q-267 11 -430 -161l203 -211q78 68 169 67q146 -4 168 -177q11 -167 -127 -194q-89 -16 -195 84l-177 -169q176 -273 490 -270q210 0 304 203q51 113 51 262q-4 342 -169 473q-99 93 -287 93zM508 547l-69 72q-9 8 -21 13.5t-26 5.5q-13 0 -24.5 -5.5
t-20.5 -14.5l-70 -75q-7 -5 -9.5 -12t-2.5 -15q1 -9 3 -15.5t10 -14.5l71 -76q14 -13 22.5 -18t20.5 -5q16 0 28.5 5t19.5 14l74 86q6 6 8 12t2 14q0 6 -3.5 13.5t-12.5 15.5z" />
    <glyph glyph-name="uni037F" unicode="&#x37f;" horiz-adv-x="963" 
d="M967 1466q-24 -843 -80 -1011q-127 -425 -448 -460q-212 -38 -325 68q-161 188 -88 619l324 -97q7 -174 110 -136q124 45 104 896z" />
    <glyph glyph-name="tonos" unicode="&#x384;" horiz-adv-x="306" 
d="M102 1446l71 -15l123 -166l-129 -197l-135 20z" />
    <glyph glyph-name="dieresistonos" unicode="&#x385;" horiz-adv-x="899" 
d="M36 1222l69 72q9 8 21 13.5t26 5.5q13 0 24.5 -5.5t20.5 -14.5l70 -75q7 -5 9.5 -12t2.5 -15q-1 -9 -3 -15.5t-10 -14.5l-71 -76q-14 -13 -22.5 -18t-20.5 -5q-16 0 -28.5 5t-19.5 14l-74 86q-6 6 -8 12t-2 14q0 6 3.5 13.5t12.5 15.5zM626 1222l69 72q9 8 21 13.5
t26 5.5q13 0 24.5 -5.5t20.5 -14.5l70 -75q7 -5 9.5 -12t2.5 -15q-1 -9 -3 -15.5t-10 -14.5l-71 -76q-14 -13 -22.5 -18t-20.5 -5q-16 0 -28.5 5t-19.5 14l-74 86q-6 6 -8 12t-2 14q0 6 3.5 13.5t12.5 15.5zM382 1446l71 -15l123 -166l-149 -267l-135 20z" />
    <glyph glyph-name="Alphatonos" unicode="&#x386;" horiz-adv-x="1173" 
d="M102 1446l71 -15l123 -166l-129 -197l-135 20zM387 1434h407l418 -1194l-415 -242l-57 198h-322l-78 -190l-390 194zM491 460l225 8l-76 254h-62z" />
    <glyph glyph-name="anoteleia" unicode="&#x387;" horiz-adv-x="405" 
d="M57 1017v0v0l302 -7l-28 -232l-290 18z" />
    <glyph glyph-name="Epsilontonos" unicode="&#x388;" horiz-adv-x="1345" 
d="M102 1446l71 -15l123 -166l-129 -197l-135 20zM1366 1434l-67 -307l-585 -56l30 -231l409 13l-32 -275l-348 -29l22 -236l580 39l-61 -317q-3 -19 -895 -37l-135 1351z" />
    <glyph glyph-name="Etatonos" unicode="&#x389;" horiz-adv-x="1505" 
d="M102 1446l71 -15l123 -166l-129 -197l-135 20zM1066 1400l374 -86l90 -1140l-408 -160l-16 396h-375l-25 -404l-402 146l87 1180l395 94l-23 -604h315z" />
    <glyph glyph-name="Iotatonos" unicode="&#x38a;" horiz-adv-x="778" 
d="M102 1446l71 -15l123 -166l-129 -197l-135 20zM745 1434l12.5 -725.5t2.5 -716.5h-417q-15 387 -10 721t13 696z" />
    <glyph glyph-name="Omicrontonos" unicode="&#x38c;" horiz-adv-x="1443" 
d="M102 1446l71 -15l123 -166l-129 -197l-135 20zM896 1434q352 -8 492 -314q41 -123 34 -271q0 -346 -246 -652q-199 -195 -508 -195q-360 29 -468 394q-33 118 -32 267q41 542 499 732q121 39 229 39zM566 629q22 -195 178 -195q143 0 288 204q48 89 42 220
q0 195 -169 195q-175 0 -314 -255q-31 -86 -25 -169z" />
    <glyph glyph-name="Upsilontonos" unicode="&#x38e;" horiz-adv-x="1491" 
d="M102 1446l71 -15l123 -166l-129 -197l-135 20zM604 1434v0l308 -417l300 402l301 -221l-400 -549l-10 -637l-374 -28l-15 706l-410 542z" />
    <glyph glyph-name="Omegatonos" unicode="&#x38f;" horiz-adv-x="1762" 
d="M102 1446l71 -15l123 -166l-129 -197l-135 20zM860 8l-584 -30l-40 327l175 30q-214 277 -143 639q129 337 477 421q121 39 309 39q636 -15 682 -585q15 -284 -173 -527h216l-30 -327l-643 13l31 316q220 118 215 401q9 299 -289 328q-348 22 -433 -276
q-50 -255 212 -446z" />
    <glyph glyph-name="iotadieresistonos" unicode="&#x390;" horiz-adv-x="434" 
d="M399 1034q7 -396 12.5 -525.5t2.5 -516.5h-377q-15 387 -10 521t13 496zM-188 1222l69 72q9 8 21 13.5t26 5.5q13 0 24.5 -5.5t20.5 -14.5l70 -75q7 -5 9.5 -12t2.5 -15q-1 -9 -3 -15.5t-10 -14.5l-71 -76q-14 -13 -22.5 -18t-20.5 -5q-16 0 -28.5 5t-19.5 14l-74 86
q-6 6 -8 12t-2 14q0 6 3.5 13.5t12.5 15.5zM402 1222l69 72q9 8 21 13.5t26 5.5q13 0 24.5 -5.5t20.5 -14.5l70 -75q7 -5 9.5 -12t2.5 -15q-1 -9 -3 -15.5t-10 -14.5l-71 -76q-14 -13 -22.5 -18t-20.5 -5q-16 0 -28.5 5t-19.5 14l-74 86q-6 6 -8 12t-2 14q0 6 3.5 13.5
t12.5 15.5zM158 1446l71 -15l123 -166l-149 -267l-135 20z" />
    <glyph glyph-name="Alpha" unicode="&#x391;" horiz-adv-x="1173" 
d="M387 1434h407l418 -1194l-415 -242l-57 198h-322l-78 -190l-390 194zM491 460l225 8l-76 254h-62z" />
    <glyph glyph-name="Beta" unicode="&#x392;" horiz-adv-x="1119" 
d="M652 1408q296 -90 277 -348q-28 -116 -215 -222l82 -19q311 -110 331 -352q10 -160 -68 -287q-203 -233 -960 -177l-107 1318q289 150 660 87zM396 1082l4 -96q186 25 202 91q-5 19 -42 26q-69 9 -164 -21zM458 335q259 23 265 112q11 49 -46 63q-108 25 -227 -17z" />
    <glyph glyph-name="Gamma" unicode="&#x393;" horiz-adv-x="976" 
d="M1007 1420q-27 -138 -55 -311q-474 -40 -562 -81q69 -641 72 -1022q-170 -40 -365 -13l-97 1319q309 137 1007 108z" />
    <glyph glyph-name="Delta" unicode="&#x394;" horiz-adv-x="1206" 
d="M493 1434h241l560 -1309l-54 -99l-1189 -36l-79 65zM451 390l305 18l-135 399z" />
    <glyph glyph-name="Epsilon" unicode="&#x395;" horiz-adv-x="1039" 
d="M1060 1434l-67 -307l-585 -56l30 -231l409 13l-32 -275l-348 -29l22 -236l580 39l-61 -317q-3 -19 -895 -37l-135 1351z" />
    <glyph glyph-name="Zeta" unicode="&#x396;" horiz-adv-x="1149" 
d="M100 1430h954l7 -200l-522 -837q209 17 627 78l-61 -453l-1089 -26l-9 218l532 854h-552z" />
    <glyph glyph-name="Eta" unicode="&#x397;" horiz-adv-x="1218" 
d="M760 1400l374 -86l90 -1140l-408 -160l-16 396h-375l-25 -404l-402 146l87 1180l395 94l-23 -604h315z" />
    <glyph glyph-name="Theta" unicode="&#x398;" horiz-adv-x="819" 
d="M740 1434v0v0v0q352 -8 492 -314q41 -123 34 -271q0 -346 -246 -652q-199 -195 -528 -195q-360 29 -468 394q-33 118 -32 267q41 542 499 732q121 39 249 39zM360 618v0v0v0q24 -209 191 -209q173 0 329 219q51 95 45 236q0 209 -181 209q-208 0 -357 -274
q-33 -92 -27 -181zM426 845v0l443 30l-30 -271l-413 -10v251z" />
    <glyph glyph-name="Iota" unicode="&#x399;" horiz-adv-x="472" 
d="M439 1434l12.5 -725.5t2.5 -716.5h-417q-15 387 -10 721t13 696z" />
    <glyph glyph-name="Kappa" unicode="&#x39a;" 
d="M765 1436l196 -275l-282 -336l462 -455l-360 -329l-337 423l-24 -472l-431 149l94 1216q27 0 337 63l24 -360z" />
    <glyph glyph-name="Lambda" unicode="&#x39b;" horiz-adv-x="1219" 
d="M347 8l-377 182l477 1244h337l478 -1224l-377 -231l-225 793h-72z" />
    <glyph glyph-name="Mu" unicode="&#x39c;" horiz-adv-x="1507" 
d="M297 1433h263l174 -323l146 323h279l380 -1105l-452 -295l-213 601l-131 -189l-140 173l-156 -616l-459 246z" />
    <glyph glyph-name="Nu" unicode="&#x39d;" horiz-adv-x="1158" 
d="M1180 1434q-137 -1371 -162 -1436h-266l-324 568l-58 -568h-360q-4 537 52 1381h349l229 -454l133 478z" />
    <glyph glyph-name="Xi" unicode="&#x39e;" horiz-adv-x="1039" 
d="M83 295l986 57l-61 -317q-3 -19 -895 -37zM7 1056l-29 293l1122 85l-67 -307zM100 531l-29 288l936 34l-32 -275z" />
    <glyph glyph-name="Omicron" unicode="&#x39f;" horiz-adv-x="1216" 
d="M710 1434q352 -8 492 -314q41 -123 34 -271q0 -346 -246 -652q-199 -195 -508 -195q-360 29 -468 394q-33 118 -32 267q41 542 499 732q121 39 229 39zM380 629q22 -195 178 -195q143 0 288 204q48 89 42 220q0 195 -169 195q-175 0 -314 -255q-31 -86 -25 -169z" />
    <glyph glyph-name="Pi" unicode="&#x3a0;" horiz-adv-x="1320" 
d="M47 1413l1212 20l70 -1355l-402 -65l-22 1008l-492 17l-36 -1036l-379 96z" />
    <glyph glyph-name="Rho" unicode="&#x3a1;" horiz-adv-x="1141" 
d="M714 1422q312 -45 439 -316q25 -66 13 -155q-36 -254 -365 -364q-140 -36 -243 -34l24 -512l-449 -49l-155 1381q538 77 736 49zM520 1025l12 -157q243 20 252 86q10 67 -72 89q-93 12 -192 -18z" />
    <glyph glyph-name="Sigma" unicode="&#x3a3;" horiz-adv-x="1039" 
d="M1060 1434l-67 -307l-585 -56l430 -231l36 -297l-385 -230l580 39l-61 -317q-3 -19 -895 -37l-85 349l426 349l-489 300l34 357z" />
    <glyph glyph-name="Tau" unicode="&#x3a4;" horiz-adv-x="1070" 
d="M1023 1439q45 -238 72 -425q-189 8 -345 8q17 -590 0 -1020h-370q-32 258 -24 867l-2 150q-176 0 -367 -15q27 264 64 427q409 8 972 8z" />
    <glyph glyph-name="Upsilon" unicode="&#x3a5;" horiz-adv-x="1166" 
d="M281 1434v0l308 -417l300 402l301 -221l-400 -549l-10 -637l-374 -28l-15 706l-410 542z" />
    <glyph glyph-name="Phi" unicode="&#x3a6;" horiz-adv-x="1416" 
d="M1574 817q38 -404 -253 -561q-103 -64 -323 -88l-5 -157q-142 -34 -357 -36l-9 150q-121 -11 -258 11q-255 81 -324 333q-118 449 141 681q201 141 381 144l2 163q131 13 362 23l8 -144q560 49 635 -519zM599 503l-25 427q-127 -7 -184 -157q-32 -254 209 -270zM990 527
q216 29 225 202q-15 203 -229 205z" />
    <glyph glyph-name="Chi" unicode="&#x3a7;" horiz-adv-x="1436" 
d="M1267 1434l205 -332l-332 -356l261 -356l-380 -356l-292 379q-221 -276 -356 -411q-311 190 -406 239l524 536l-332 428l411 221l277 -356z" />
    <glyph glyph-name="Psi" unicode="&#x3a8;" horiz-adv-x="1582" 
d="M352 1370v0v0q10 -608 236 -617l-2 710l384 -39l-5 -690q246 54 242 615l363 52q84 -968 -599 -1002l19 -387l-394 -28l-15 376q-640 3 -574 1071z" />
    <glyph glyph-name="Omega" unicode="&#x3a9;" horiz-adv-x="1533" 
d="M626 8l-584 -30l-40 327l175 30q-214 277 -143 639q129 337 477 421q121 39 309 39q636 -15 682 -585q15 -284 -173 -527h216l-30 -327l-643 13l31 316q220 118 215 401q9 299 -289 328q-348 22 -433 -276q-50 -255 212 -446z" />
    <glyph glyph-name="Iotadieresis" unicode="&#x3aa;" horiz-adv-x="472" 
d="M439 1434l12.5 -725.5t2.5 -716.5h-417q-15 387 -10 721t13 696zM-86 1777l282 13l-28 -232l-270 18zM301 1775l282 13l-28 -232l-270 18z" />
    <glyph glyph-name="Upsilondieresis" unicode="&#x3ab;" horiz-adv-x="1166" 
d="M281 1434v0l308 -417l300 402l301 -221l-400 -549l-10 -637l-374 -28l-15 706l-410 542zM259 1777l282 13l-28 -232l-270 18zM646 1775l282 13l-28 -232l-270 18z" />
    <glyph glyph-name="alphatonos" unicode="&#x3ac;" horiz-adv-x="1213" 
d="M550 1034q266 0 338 -168l53 111l370 -104l-314 -438l160 -435l-333 -10l-65 137q-130 -146 -392 -133q-332 9 -366 408q-18 360 261 542q152 90 288 90zM313 441q19 -115 115 -115q211 35 221 222q8 152 -106 156q-226 -37 -230 -263zM637 1446l71 -15l123 -166
l-129 -197l-135 20z" />
    <glyph glyph-name="epsilontonos" unicode="&#x3ad;" horiz-adv-x="763" 
d="M386 1044v0v0q190 7 355 -124l-99 -252q-104 64 -196 57q-92 -11 -92 -43q0 -38 48 -62l78 -9l5 -244l-75 2q-95 -11 -95 -57q0 -36 93 -46q102 -7 249 105l100 -301q-176 -133 -371 -133q-390 0 -394 311q4 175 152 278q-115 89 -115 193q-9 101 39 198q93 127 318 127z
M357 1446l71 -15l123 -166l-129 -197l-135 20z" />
    <glyph glyph-name="etatonos" unicode="&#x3ae;" horiz-adv-x="1117" 
d="M708 -439v0v0l10 867q-11 144 -188 137q-113 -18 -108 -194l-18 -380l-400 49q40 550 -8 1048l385 74l39 -254q331 178 546 -2q115 -98 144 -292l-1 -973zM548 1446l71 -15l123 -166l-129 -197l-135 20z" />
    <glyph glyph-name="iotatonos" unicode="&#x3af;" horiz-adv-x="434" 
d="M399 1034q7 -396 12.5 -525.5t2.5 -516.5h-377q-15 387 -10 521t13 496zM202 1446l71 -15l123 -166l-129 -197l-135 20z" />
    <glyph glyph-name="upsilondieresistonos" unicode="&#x3b0;" horiz-adv-x="845" 
d="M347 1040l-29 -405q-2 -260 104 -251q98 -19 85 369l-14 270l338 -76q45 -640 -53 -758q-127 -183 -389 -194q-171 0 -295 143q-93 154 -93 363q-7 183 17 488zM14 1222l69 72q9 8 21 13.5t26 5.5q13 0 24.5 -5.5t20.5 -14.5l70 -75q7 -5 9.5 -12t2.5 -15q-1 -9 -3 -15.5
t-10 -14.5l-71 -76q-14 -13 -22.5 -18t-20.5 -5q-16 0 -28.5 5t-19.5 14l-74 86q-6 6 -8 12t-2 14q0 6 3.5 13.5t12.5 15.5zM604 1222l69 72q9 8 21 13.5t26 5.5q13 0 24.5 -5.5t20.5 -14.5l70 -75q7 -5 9.5 -12t2.5 -15q-1 -9 -3 -15.5t-10 -14.5l-71 -76
q-14 -13 -22.5 -18t-20.5 -5q-16 0 -28.5 5t-19.5 14l-74 86q-6 6 -8 12t-2 14q0 6 3.5 13.5t12.5 15.5zM360 1446l71 -15l123 -166l-149 -267l-135 20z" />
    <glyph glyph-name="alpha" unicode="&#x3b1;" horiz-adv-x="1213" 
d="M550 1034q266 0 338 -168l53 111l370 -104l-314 -438l160 -435l-333 -10l-65 137q-130 -146 -392 -133q-332 9 -366 408q-18 360 261 542q152 90 288 90zM313 441q19 -115 115 -115q211 35 221 222q8 152 -106 156q-226 -37 -230 -263z" />
    <glyph glyph-name="beta" unicode="&#x3b2;" horiz-adv-x="1032" 
d="M148 1342v0v0q99 101 391 87q196 -20 330 -203q55 -108 55 -230q0 -149 -121 -242q229 -128 229 -350q0 -413 -422 -409q-168 -4 -262 79l-24 -502l-339 83q62 513 63 1435q1 151 100 252zM348 426v0q74 -90 215 -95q153 -3 163 117q-10 151 -196 161l-73 3l8 253l82 1
q109 18 84 110q-14 104 -192 91q-92 -7 -91 -138v-503z" />
    <glyph glyph-name="gamma" unicode="&#x3b3;" horiz-adv-x="1159" 
d="M281 1034l308 -717l300 702l301 -221l-400 -849l-10 -337l-374 -28l-15 406l-410 842z" />
    <glyph glyph-name="delta" unicode="&#x3b4;" horiz-adv-x="939" 
d="M918 820v0v0q32 -92 26 -203q0 -259 -188 -488q-153 -146 -390 -146q-277 22 -359 295q-26 88 -25 200q22 285 220 465l-187 162l-19 236l842 74l-17 -223l-404 -67l149 -59q245 -17 352 -246zM305 441v0v0q14 -118 108 -118q87 0 175 124q30 54 26 134q0 118 -103 118
q-106 0 -191 -155q-18 -52 -15 -103z" />
    <glyph glyph-name="epsilon" unicode="&#x3b5;" horiz-adv-x="763" 
d="M386 1044v0v0q190 7 355 -124l-99 -252q-104 64 -196 57q-92 -11 -92 -43q0 -38 48 -62l78 -9l5 -244l-75 2q-95 -11 -95 -57q0 -36 93 -46q102 -7 249 105l100 -301q-176 -133 -371 -133q-390 0 -394 311q4 175 152 278q-115 89 -115 193q-9 101 39 198q93 127 318 127z
" />
    <glyph glyph-name="zeta" unicode="&#x3b6;" horiz-adv-x="864" 
d="M26 1457v0l855 -46l-28 -273q-448 -376 -482 -606q-2 -167 225 -235q199 -71 223 -287q7 -285 -398 -378l-77 272q101 50 96 84q22 53 -94 81q-334 91 -334 421q-24 265 326 634l-311 38z" />
    <glyph glyph-name="eta" unicode="&#x3b7;" horiz-adv-x="1117" 
d="M708 -439v0v0l10 867q-11 144 -188 137q-113 -18 -108 -194l-18 -380l-400 49q40 550 -8 1048l385 74l39 -254q331 178 546 -2q115 -98 144 -292l-1 -973z" />
    <glyph glyph-name="theta" unicode="&#x3b8;" horiz-adv-x="1213" 
d="M393 567l10 -55q98 -197 242 -137q109 40 158 192h-410zM837 876l-16 97q-65 182 -223 117q-128 -46 -180 -214h419zM469 1426q314 113 550 -127q80 -102 124 -243q119 -325 -8 -697q-120 -251 -410 -357q-329 -96 -555 210q-71 100 -121 240q-147 523 218 859
q101 78 202 115z" />
    <glyph glyph-name="iota" unicode="&#x3b9;" horiz-adv-x="434" 
d="M399 1034q7 -396 12.5 -525.5t2.5 -516.5h-377q-15 387 -10 521t13 496z" />
    <glyph glyph-name="kappa" unicode="&#x3ba;" horiz-adv-x="862" 
d="M703 1046v0l164 -316l-280 -189l214 -192l79 -78l-266 -243l-87 110l-152 203l-18 -349l-368 110l55 1005l323 55l8 -381z" />
    <glyph glyph-name="lambda" unicode="&#x3bb;" horiz-adv-x="1159" 
d="M266 -38v0v0l-300 202l410 842l-115 406l374 -28l140 -337l400 -849l-301 -221l-300 702z" />
    <glyph glyph-name="mu" unicode="&#x3bc;" horiz-adv-x="1083" 
d="M648 957l341 -80q17 -357 21 -516q11 -114 108 -159l-191 -243q-133 9 -222 168q-106 -160 -335 -102l-9 -474l-375 74q48 798 8 1348l360 49l18 -490q-5 -176 108 -194q177 -7 188 137z" />
    <glyph glyph-name="nu" unicode="&#x3bd;" horiz-adv-x="958" 
d="M324 1047l168 -545l162 520l324 -137q-253 -828 -279 -886h-409q-35 31 -290 988z" />
    <glyph glyph-name="xi" unicode="&#x3be;" horiz-adv-x="772" 
d="M406 1444v0v0v0v0v0v0q193 3 385 -64l-69 -252q-134 24 -252 22q-102 -12 -95 -88q-7 -54 77 -82l158 -9l5 -274l-155 2q-131 -35 -129 -187q-2 -127 235 -195q169 -71 193 -307q7 -296 -338 -378l-77 272q101 50 96 84q22 53 -94 81q-334 91 -334 421q-24 265 152 396
q-154 92 -137 276q33 259 379 282z" />
    <glyph glyph-name="omicron" unicode="&#x3bf;" horiz-adv-x="882" 
d="M541 1055q270 -6 377 -235q32 -92 26 -203q0 -259 -188 -488q-153 -146 -390 -146q-277 22 -359 295q-26 88 -25 200q31 406 383 548q93 29 176 29zM305 441q14 -118 108 -118q87 0 175 124q30 54 26 134q0 118 -103 118q-106 0 -191 -155q-18 -52 -15 -103z" />
    <glyph glyph-name="pi" unicode="&#x3c0;" horiz-adv-x="1246" 
d="M17 1013l1212 40l27 -416h-128l41 -569l-402 -65l-22 638l-292 -3l-36 -646l-379 96l59 576l-97 2z" />
    <glyph glyph-name="rho" unicode="&#x3c1;" horiz-adv-x="996" 
d="M60 707q84 344 551 326q267 -20 367 -278q38 -138 23 -372q0 -191 -195 -325q-179 -108 -390 8q-23 -481 -56 -481q-354 75 -366 97q56 566 54 872zM407 651l1 -260v-63q253 -74 269 100q18 277 -107.5 316.5t-162.5 -93.5z" />
    <glyph glyph-name="sigma1" unicode="&#x3c2;" horiz-adv-x="772" 
d="M797 1017l-67 -315q-111 53 -272 35q-141 -38 -147 -205q-2 -167 225 -235q199 -71 223 -287q7 -285 -338 -378l-77 272q101 50 96 84q22 53 -94 81q-344 91 -344 421q-20 357 208 516q191 96 587 11z" />
    <glyph glyph-name="sigma" unicode="&#x3c3;" horiz-adv-x="1168" 
d="M541 1055q42 -5 173 -24l484 -12l-49 -363l-217 16q41 -310 -176 -543q-153 -146 -390 -146q-277 22 -359 295q-26 88 -25 200q31 406 383 548q93 29 176 29zM305 441q14 -118 108 -118q87 0 175 124q30 54 26 134q0 118 -103 118q-106 0 -191 -155q-18 -52 -15 -103z
" />
    <glyph glyph-name="tau" unicode="&#x3c4;" horiz-adv-x="849" 
d="M824 1024q32 -169 31 -352l-255 5q12 -369 0 -675h-313q-23 183 -18 567l-1 106l-271 -10q-1 237 26 353q340 6 801 6z" />
    <glyph glyph-name="upsilon" unicode="&#x3c5;" horiz-adv-x="845" 
d="M347 1040l-29 -405q-2 -260 104 -251q98 -19 85 369l-14 270l338 -76q45 -640 -53 -758q-127 -183 -389 -194q-171 0 -295 143q-93 154 -93 363q-7 183 17 488z" />
    <glyph glyph-name="phi" unicode="&#x3c6;" horiz-adv-x="1204" 
d="M820 333q109 85 93 237q-19 129 -103 121zM500 317l-5 474q-4 205 136 245l118 -1q210 -2 358 -135q131 -137 121 -417q-13 -222 -173 -380q-64 -73 -222 -108l1 -380l-332 -23l4 402q-477 53 -511 496q-15 420 396 533l35 -368q-134 -59 -76 -249q39 -100 150 -89z" />
    <glyph glyph-name="chi" unicode="&#x3c7;" horiz-adv-x="1544" 
d="M1067 1094v0v0l255 -302l-332 -416l431 -436l-380 -356l-302 539q-261 -336 -396 -471q-271 190 -366 239q224 167 504 516l-322 488l361 141l207 -366z" />
    <glyph glyph-name="psi" unicode="&#x3c8;" horiz-adv-x="1577" 
d="M352 990v0v0v0v0q10 -598 236 -607l-2 700l384 -39l-5 -680q246 54 242 605l363 52q84 -958 -599 -992l19 -437l-394 -28l-15 426q-640 3 -574 1061z" />
    <glyph glyph-name="omega" unicode="&#x3c9;" horiz-adv-x="1608" 
d="M369 1053q29 -302 89 -552q18 -102 79 -88q36 23 37 97l17 411l336 24l81 -492q13 -70 75 -74q53 3 66 73q49 310 67 558l395 -144q-22 -390 -164 -739q-76 -140 -260 -133q-224 3 -301 94l-114 149l-85 -155q-65 -104 -231 -93q-220 -7 -315 171q-151 397 -182 757z" />
    <glyph glyph-name="iotadieresis" unicode="&#x3ca;" horiz-adv-x="434" 
d="M399 1034q7 -396 12.5 -525.5t2.5 -516.5h-377q-15 387 -10 521t13 496zM-106 1367l282 13l-28 -232l-270 18zM281 1365l282 13l-28 -232l-270 18z" />
    <glyph glyph-name="upsilondieresis" unicode="&#x3cb;" horiz-adv-x="845" 
d="M347 1040l-29 -405q-2 -260 104 -251q98 -19 85 369l-14 270l338 -76q45 -640 -53 -758q-127 -183 -389 -194q-171 0 -295 143q-93 154 -93 363q-7 183 17 488zM96 1367l282 13l-28 -232l-270 18zM483 1365l282 13l-28 -232l-270 18z" />
    <glyph glyph-name="omicrontonos" unicode="&#x3cc;" horiz-adv-x="882" 
d="M541 1055q270 -6 377 -235q32 -92 26 -203q0 -259 -188 -488q-153 -146 -390 -146q-277 22 -359 295q-26 88 -25 200q31 406 383 548q93 29 176 29zM305 441q14 -118 108 -118q87 0 175 124q30 54 26 134q0 118 -103 118q-106 0 -191 -155q-18 -52 -15 -103zM459 1446
l71 -15l123 -166l-129 -197l-135 20z" />
    <glyph glyph-name="upsilontonos" unicode="&#x3cd;" horiz-adv-x="845" 
d="M347 1040l-29 -405q-2 -260 104 -251q98 -19 85 369l-14 270l338 -76q45 -640 -53 -758q-127 -183 -389 -194q-171 0 -295 143q-93 154 -93 363q-7 183 17 488zM404 1446l71 -15l123 -166l-129 -197l-135 20z" />
    <glyph glyph-name="omegatonos" unicode="&#x3ce;" horiz-adv-x="1608" 
d="M369 1053q29 -302 89 -552q18 -102 79 -88q36 23 37 97l17 411l336 24l81 -492q13 -70 75 -74q53 3 66 73q49 310 67 558l395 -144q-22 -390 -164 -739q-76 -140 -260 -133q-224 3 -301 94l-114 149l-85 -155q-65 -104 -231 -93q-220 -7 -315 171q-151 397 -182 757z
M767 1446l71 -15l123 -166l-129 -197l-135 20z" />
    <glyph glyph-name="uni03CF" unicode="&#x3cf;" 
d="M765 1436v0l196 -275l-282 -336l604 -824l-662 -430l-245 235l409 246l-341 412l-24 -472l-431 149l94 1216q27 0 337 63l24 -360z" />
    <glyph glyph-name="uni03D0" unicode="&#x3d0;" horiz-adv-x="834" 
d="M373 1143q153 -55 188 -8q29 58 -90 51q-58 0 -98 -43zM405 291q141 -24 177 76q40 121 -90 186q-132 13 -176 -80q-29 -143 89 -182zM312 951q-28 -98 -16 -184q184 77 379 21q194 -82 197 -349q6 -236 -118 -353q-147 -117 -403 -103q-250 18 -318 245q-52 292 -34 660
q24 581 477 550q348 -49 350 -299q16 -256 -293 -252q-143 12 -221 64z" />
    <glyph glyph-name="theta1" unicode="&#x3d1;" horiz-adv-x="0" 
d="M5319 391l-204 -4l-317 21q-185 17 -328 88q-130 74 -162 194q-41 138 -19 288q32 206 228 303q132 60 311 57q247 -16 369 -292q88 -235 57 -574q-4 -117 -16 -192q-75 -466 -439 -475q-181 -12 -281 107q-48 59 -85.5 126t-80.5 45t-91 -96l-122 274q118 166 228 167
q109 1 174 -83q37 -47 86 -157q54 -83 126.5 -85t108 41t50.5 130q72 603 -36 688q-100 86 -238 10q-83 -65 -50 -172q54 -103 251 -122q179 -19 509 4z" />
    <glyph glyph-name="Upsilon1" unicode="&#x3d2;" horiz-adv-x="1308" 
d="M281 1434v0v0l308 -417l277 264q190 150 501 -108l-168 -275q-119 100 -206 18l-203 -267l-10 -637l-374 -28l-15 706l-410 542z" />
    <glyph glyph-name="uni03D3" unicode="&#x3d3;" horiz-adv-x="1614" 
d="M102 1446l71 -15l123 -166l-129 -197l-135 20zM587 1434v0v0l308 -417l277 264q190 150 501 -108l-168 -275q-119 100 -206 18l-203 -267l-10 -637l-374 -28l-15 706l-410 542z" />
    <glyph glyph-name="uni03D4" unicode="&#x3d4;" horiz-adv-x="1308" 
d="M281 1434v0v0l308 -417l277 264q190 150 501 -108l-168 -275q-119 100 -206 18l-203 -267l-10 -637l-374 -28l-15 706l-410 542zM348 1777l282 13l-28 -232l-270 18zM735 1775l282 13l-28 -232l-270 18z" />
    <glyph glyph-name="phi1" unicode="&#x3d5;" horiz-adv-x="1269" 
d="M1253 598q32 -366 -190 -522q-128 -62 -257 -66l-4 -333q-121 -30 -303 -32l-8 326q-85 -1 -192 19q-183 73 -259 293q-91 407 128 617q129 128 272 130l2 318q111 12 308 21l6 -300q433 -38 497 -471zM468 313l-21 387q-99 -5 -148 -142q-27 -230 169 -245zM800 335
q183 26 191 184q-13 183 -195 185z" />
    <glyph glyph-name="omega1" unicode="&#x3d6;" horiz-adv-x="1769" 
d="M489 1053q9 -302 69 -552q18 -102 79 -88q36 23 37 97l17 281l336 24l81 -362q13 -70 75 -74q53 3 66 73q49 310 47 558l395 -144q-2 -390 -144 -739q-76 -140 -260 -133q-224 3 -301 94l-114 149l-85 -155q-65 -104 -231 -93q-220 -7 -315 171q-151 397 -162 757z
M-3 1143l1781 13l-10 -311l-1761 17z" />
    <glyph glyph-name="uni03D7" unicode="&#x3d7;" horiz-adv-x="1296" 
d="M310 1048v0v0v0v0v0q182 -3 201 -168l16 -259l342 418h383l-178 -341l8 -302q-1 -92 77 -97l130 -5q23 -244 12 -456q6 -92 -83 -165q-79 -59 -298 -96l-152 267q285 54 245 154l-82 3q-127 -1 -168 121l-12 253l-311 -377h-373q84 172 121 308l1 356q5 99 -75 96l-94 7
l-26 313z" />
    <glyph glyph-name="uni03D8" unicode="&#x3d8;" horiz-adv-x="1216" 
d="M710 1434q352 -8 492 -314q41 -123 34 -271q0 -346 -246 -652q-100 -98 -232 -192l-12 -380l-338 -31l2 408q-288 29 -396 394q-33 118 -32 267q41 542 499 732q121 39 229 39zM380 629q22 -195 178 -195q143 0 288 204q48 89 42 220q0 195 -169 195q-175 0 -314 -255
q-31 -86 -25 -169z" />
    <glyph glyph-name="uni03D9" unicode="&#x3d9;" horiz-adv-x="882" 
d="M541 1055v0v0q270 -6 377 -235q32 -92 26 -203q0 -259 -188 -488q-64 -91 -143 -134l1 -380l-332 -23l8 398q-201 15 -283 288q-26 88 -25 200q31 406 383 548q93 29 176 29zM305 441v0v0q14 -118 108 -118q87 0 175 124q30 54 26 134q0 118 -103 118q-106 0 -191 -155
q-18 -52 -15 -103z" />
    <glyph glyph-name="uni03DA" unicode="&#x3da;" horiz-adv-x="1216" 
d="M848 5v0l-12 -380l-338 -31l2 408q-378 29 -486 394q-33 118 -32 267q41 542 499 732q121 39 229 39q352 -8 492 -314q39 -91 34 -182l-348 -80q0 195 -169 195q-175 0 -314 -255q-31 -86 -25 -169q27 -185 263 -207q118 -4 219 2z" />
    <glyph glyph-name="uni03DB" unicode="&#x3db;" horiz-adv-x="954" 
d="M756 -49v0v0q28 -164 -84 -315q-95 -108 -466 -47l24 269q118 -8 160 24q52 80 -100 108q-216 78 -283 288q-26 88 -25 200q31 406 383 548q93 29 176 29q270 -6 377 -235q32 -92 35 -185l-331 -83q-8 147 -111 147q-130 18 -181 -155q-18 -52 -15 -103q11 -125 116 -136
q321 -86 325 -354z" />
    <glyph glyph-name="uni03DC" unicode="&#x3dc;" horiz-adv-x="1069" 
d="M1053 1440v0v0l-47 -375l-581 -56l-1 -140l441 13l42 -420l-237 -5l-15 140l-204 -17l25 -519l-412 -59l-57 1357z" />
    <glyph glyph-name="uni03DD" unicode="&#x3dd;" horiz-adv-x="1070" 
d="M1063 1070v0v0v0l-47 -355l-591 -56l-1 -130l441 13l42 -420l-237 -5l-15 140l-204 -17l25 -599l-412 -59l-57 1407z" />
    <glyph glyph-name="uni03DE" unicode="&#x3de;" horiz-adv-x="1190" 
d="M1017 -152l-379 142q-89 55 -31 195l128 290l-692 -71l-53 60l172 586q26 61 -38 86l-86 28l113 305l331 -134q98 -56 83 -188l-129 -401l702 68l67 -89l-210 -517q-25 -39 26 -56l108 -46z" />
    <glyph glyph-name="uni03DF" unicode="&#x3df;" horiz-adv-x="1187" 
d="M884 -24l-314 120l165 379l-692 -71l-53 60l210 806l365 -123l-129 -401l702 68l67 -89z" />
    <glyph glyph-name="uni03E0" unicode="&#x3e0;" horiz-adv-x="1431" 
d="M517 1433v0v0v0q196 7 339 -50q498 -268 567 -891q29 -341 -90 -587q-151 -326 -512 -335q-274 -26 -582 52l186 302q331 -65 457 2q176 99 181 390l-107 6q-70 -11 -82 -101l-36 -187l-307 -16l36 387q49 196 276 209h201q-95 375 -362 444l-2 -366l-330 -15l26 371
q-93 3 -168 -87l-228 253q185 238 537 219z" />
    <glyph glyph-name="uni03E1" unicode="&#x3e1;" horiz-adv-x="1179" 
d="M288 1451q375 -85 575 -253q259 -227 329 -735q22 -390 -93 -782l-402 -114q92 345 131 639l-290 -144l-192 258l460 252q-23 94 -70 150l-461 -252l-189 248l423 282q-154 124 -503 241z" />
    <glyph glyph-name="uni03E2" unicode="&#x3e2;" horiz-adv-x="1593" 
d="M352 1330v0v0v0v0v0v0v0q10 -938 103 -954q167 -59 131 1047l384 -39q-18 -1071 119 -1042q122 76 118 967l363 52q41 -806 15 -1406q-1 -162 -119 -256q-141 -100 -452 -97l-809 11l-76 289l934 -13q212 -13 233 187q-253 -189 -481 28q-150 -123 -420 -107
q-454 -4 -388 1394z" />
    <glyph glyph-name="uni03E3" unicode="&#x3e3;" horiz-adv-x="1593" 
d="M352 940v0v0v0v0v0v0v0v0q10 -548 103 -564q167 -59 131 657l384 -39q-18 -681 119 -652q122 76 118 577l363 52q41 -416 15 -1016q-1 -162 -119 -256q-141 -100 -452 -97l-809 11l-76 289l934 -13q212 -12 233 187q-253 -189 -481 28q-150 -123 -420 -107
q-454 -4 -388 1004z" />
    <glyph glyph-name="uni03E4" unicode="&#x3e4;" horiz-adv-x="1341" 
d="M642 1111v0v0v0v0v0q-75 0 -160 -15q-145 -63 -133 -260q14 -363 450 -306q113 16 108 172l8 727l410 -44q-41 -877 8 -1559l-385 -65l-39 465q-451 -148 -666 11q-163 94 -229 440q-41 348 65 540q118 203 296 210l170 3z" />
    <glyph glyph-name="uni03E5" unicode="&#x3e5;" horiz-adv-x="1117" 
d="M572 1111v0v0v0l-101 -1q-75 -21 -74 -122l4 -337q11 -128 198 -121q113 16 108 172l8 727l410 -44q-41 -878 8 -1559l-385 -65l-39 465q-331 -158 -546 1q-115 87 -144 259q-50 550 28 741q66 178 288 200l140 3z" />
    <glyph glyph-name="uni03E6" unicode="&#x3e6;" horiz-adv-x="1117" 
d="M167 -91q329 -20 500 2q76 24 75 137l-14 380q-11 144 -198 137q-113 -18 -108 -194l-18 -380l-400 49q40 550 -8 1318l385 74l39 -524q331 178 546 -2q115 -98 144 -292q60 -620 -40 -839q-26 -127 -184 -184q-180 -53 -622 -41z" />
    <glyph glyph-name="uni03E7" unicode="&#x3e7;" horiz-adv-x="1184" 
d="M1222 827q-89 -303 -257 -438q-238 -170 -415 -172.5t-279 46.5q-101 42 -152 137.5t-29 279.5q32 206 228 303q166 74 311 57q247 -16 344 -246q113 -238 82 -520q-32 -527 -508 -520q-156 10 -280 79q-88 41 -205 -44l-91 338q183 97 317 30q145 -78 289 -56t166 105
q11 209 -25 436q-32 70 -116 86q-100 18 -181 -43q-69 -56 -20 -115t190 -14t334 397z" />
    <glyph glyph-name="uni03E8" unicode="&#x3e8;" horiz-adv-x="819" 
d="M1090 1001v0v0q4 -241 -238 -374q-375 -150 -392 -214q-1 -92 195 -66q116 55 151 168l368 -25q-64 -528 -657 -500q-204 14 -298 63q-235 121 -230 309q-13 294 489 490q205 72 218 131q0 119 -222 87q-128 -40 -157 -128l-312 100q101 283 346 361q217 76 444 3
q316 -158 295 -405z" />
    <glyph glyph-name="uni03E9" unicode="&#x3e9;" horiz-adv-x="819" 
d="M1090 1001v0v0v0v0q4 -241 -238 -374q-375 -150 -392 -224q-1 -122 230 -109q181 6 473 63l84 -344q-402 -84 -730 -63q-204 14 -298 63q-235 131 -230 329q-13 314 489 510q205 72 218 131q0 119 -222 87q-128 -40 -157 -128l-312 100q101 283 346 361q217 76 444 3
q316 -158 295 -405z" />
    <glyph glyph-name="uni03EA" unicode="&#x3ea;" horiz-adv-x="1338" 
d="M679 1017v0l187 304q190 150 501 -108l-168 -275q-119 100 -206 18l-145 -252l422 -647l-59 -71h-1127l-84 67l480 673l-125 250q-87 82 -206 -18l-168 275q311 258 501 108zM674 446l-120 -192l220 -2z" />
    <glyph glyph-name="uni03EB" unicode="&#x3eb;" horiz-adv-x="1036" 
d="M520 852v0l144 165q147 115 387 -84l-130 -262q-92 77 -159 14l-72 -145l286 -499l-45 -55h-870l-65 52l350 520l-76 142q-67 64 -159 -14l-130 263q240 199 387 83zM513 356l-72 -128h133z" />
    <glyph glyph-name="uni03EC" unicode="&#x3ec;" horiz-adv-x="1151" 
d="M1139 404v0v0q-59 -231 -208 -322q-201 -103 -403 -80q-344 22 -478 342q-91 295 -16 638q113 338 481 435q356 52 637 26l-85 -322q-560 58 -648 -53q155 58 355 28q196 -35 295 -182q123 -261 70 -510zM380 468v0v0q29 -164 165 -166q170 -9 230 111q52 100 26 217
q-49 234 -276 178q-176 -67 -145 -340z" />
    <glyph glyph-name="uni03ED" unicode="&#x3ed;" horiz-adv-x="819" 
d="M339 695q160 28 275 -15q107 -38 161 -126q74 -146 44 -284q-42 -146 -149 -212q-145 -74 -290 -57q-247 16 -344 246q-66 212 -11 459q81 243 345 313q257 37 459 18l-62 -297q-388 38 -422 -24q-100 -82 -48 -325q44 -98 95 -100q82 -5 124 49q27 49 9 88
q-29 50 -160 32z" />
    <glyph glyph-name="uni03EE" unicode="&#x3ee;" horiz-adv-x="1278" 
d="M802 1432v0v0l5 -232q116 0 200 1q213 -22 259 -267q33 -165 15 -304l-301 31v115q-4 39 -67 34l-93 -1l5 -80q8 -469 -24 -727h-321q-32 258 -24 727l5 80l-94 1q-62 5 -66 -34l-1 -100l-293 -24q-29 138 5 307q48 220 262 242q84 -1 200 -1l2 204z" />
    <glyph glyph-name="uni03EF" unicode="&#x3ef;" horiz-adv-x="1230" 
d="M1062 1438l-256 -240l1 -48q155 0 437 -14l-15 -324l-409 -3l5 -80q8 -469 -24 -702l-591 -31l258 261q-19 111 -12 472l5 80l-453 9l36 515l253 -209q98 26 177 26l2 264z" />
    <glyph glyph-name="uni03F0" unicode="&#x3f0;" horiz-adv-x="1256" 
d="M310 1048v0v0v0q182 -3 201 -168l16 -259l342 418h383l-178 -341l8 -302q-1 -92 77 -97l110 -5l-17 -297q-162 -5 -321 4q-127 -1 -168 121l-12 253l-311 -377h-373q84 172 121 308l1 356q5 99 -75 96l-94 7l-26 313z" />
    <glyph glyph-name="uni03F1" unicode="&#x3f1;" horiz-adv-x="1059" 
d="M10 707v0v0v0q84 344 601 326q267 -20 367 -278q38 -138 23 -372q0 -191 -195 -325q-179 -108 -440 68q-44 -238 375 -199q152 -12 341 -122l-253 -235q-81 78 -198 68q-121 -4 -241 7q-384 71 -379 364q-12 394 -13 545zM357 651v0v0l1 -263q303 -134 319 40
q18 277 -132 317q-151 39 -188 -94z" />
    <glyph glyph-name="uni03F2" unicode="&#x3f2;" horiz-adv-x="839" 
d="M458 1028q267 11 430 -161l-203 -211q-78 68 -169 67q-146 -4 -168 -177q-11 -167 127 -194q89 -16 195 84l177 -169q-176 -273 -490 -270q-210 0 -304 203q-51 113 -51 262q4 342 169 473q99 93 287 93z" />
    <glyph glyph-name="uni03F3" unicode="&#x3f3;" horiz-adv-x="453" 
d="M443 1013q18 -176 16 -356q7 -922 -215 -1047q-49 -38 -208 -41q-234 0 -319 145l184 216q51 -46 132 1t77 356t-24 668zM323 1371q116 -9 129 -103q3 -198 -257 -241h-35q-105 12 -111 129q-8 198 274 215z" />
    <glyph glyph-name="uni03F4" unicode="&#x3f4;" horiz-adv-x="1337" 
d="M383 567l10 -55q98 -197 382 -137q109 40 158 192h-550zM967 876l-26 97q-95 182 -353 117q-128 -46 -180 -214h559zM459 1426q454 113 690 -127q80 -102 124 -243q119 -325 -8 -697q-120 -251 -410 -357q-469 -96 -695 210q-71 100 -121 240q-147 523 218 859
q101 78 202 115z" />
    <glyph glyph-name="uni03F5" unicode="&#x3f5;" horiz-adv-x="819" 
d="M178 926q106 112 294 113q231 7 322 -94l-147 -228q-52 45 -174 45q-114 -18 -154 -120q120 3 229 -13q-12 -35 -4 -217q-140 -6 -224 -23q36 -115 164 -104q111 13 166 55l161 -216q-116 -143 -366 -144q-270 21 -377 247q-44 93 -50 180q-50 339 160 519v0v0z" />
    <glyph glyph-name="uni03F6" unicode="&#x3f6;" horiz-adv-x="819" 
d="M642 926v0v0q209 -180 160 -519q-7 -87 -50 -180q-108 -226 -378 -247q-250 1 -366 144l161 216q55 -42 167 -55q127 -11 163 104q-84 17 -224 23q8 182 -3 217q109 16 228 13q-40 102 -153 120q-123 0 -174 -45l-148 228q92 101 322 94q188 -1 295 -113z" />
    <glyph glyph-name="uni03F7" unicode="&#x3f7;" horiz-adv-x="1163" 
d="M1142 941v0v0q48 -107 34 -266q-53 -242 -322 -318q-141 -22 -366 -24l-12 -284l-383 -57l-85 1381q253 42 427 53l10 -249q185 23 340 11q251 -41 357 -247zM460 861v0l2 -233q323 -17 332 101q10 107 -72 135q-112 22 -262 -3z" />
    <glyph glyph-name="uni03F8" unicode="&#x3f8;" horiz-adv-x="1106" 
d="M1082 941q48 -107 34 -266q-53 -242 -322 -318q-141 -22 -286 16l28 -324l-383 -57l-155 1381q253 42 427 53l20 -319q125 93 280 81q251 -41 357 -247zM470 791l12 -153q243 -27 252 91q10 107 -72 135q-112 22 -192 -73z" />
    <glyph glyph-name="uni03F9" unicode="&#x3f9;" horiz-adv-x="1116" 
d="M610 1433v0v0q338 47 527 -249l-218 -223q-75 100 -269 90q-305 -86 -307 -368q25 -290 304 -276q80 12 185 128l312 -77q-128 -406 -570 -461q-319 -33 -512 335q-59 126 -68 244q-74 522 346 774q133 70 270 83z" />
    <glyph glyph-name="uni03FA" unicode="&#x3fa;" horiz-adv-x="1507" 
d="M77 1433v0l513 -30l255 -364l335 394h379l180 -1225l-419 -191l-92 887l-304 -374l-214 8l-258 382l-68 -923l-396 231z" />
    <glyph glyph-name="uni03FB" unicode="&#x3fb;" horiz-adv-x="1426" 
d="M76 1038v0l425 -25l212 -302l287 327h315l119 -936l-347 -158l-47 655l-262 -310l-177 7l-214 317l-57 -1066l-328 192z" />
    <glyph glyph-name="uni03FC" unicode="&#x3fc;" horiz-adv-x="996" 
d="M60 707q84 344 551 326q267 -20 367 -278q38 -138 23 -372q0 -191 -195 -325q-179 -108 -390 8q-23 -481 -56 -481q-354 75 -366 97q56 566 54 872zM407 651l1 -260v-63q253 -74 269 100q18 277 -107.5 316.5t-162.5 -93.5zM-79 -233l20 241l758 -84l-20 -229z" />
    <glyph glyph-name="uni03FD" unicode="&#x3fd;" horiz-adv-x="1116" 
d="M454 1433q-338 47 -517 -249l296 -245q94 89 188 75q248 -49 250 -331q-46 -228 -224 -206q-80 12 -185 128l-342 -147q128 -406 570 -461q319 -33 512 335q59 126 68 244q74 522 -445 807q-56 34 -171 50z" />
    <glyph glyph-name="uni03FE" unicode="&#x3fe;" horiz-adv-x="1116" 
d="M610 1433q338 47 517 -249l-296 -245q-94 89 -188 75q-248 -49 -250 -331q46 -228 224 -206q80 12 185 128l342 -147q-128 -406 -570 -461q-319 -33 -512 335q-59 126 -68 244q-74 522 445 807q56 34 171 50zM531 751l69 72q9 8 21 13.5t26 5.5q13 0 24.5 -5.5
t20.5 -14.5l70 -75q7 -5 9.5 -12t2.5 -15q-1 -9 -3 -15.5t-10 -14.5l-71 -76q-14 -13 -22.5 -18t-20.5 -5q-16 0 -28.5 5t-19.5 14l-74 86q-6 6 -8 12t-2 14q0 6 3.5 13.5t12.5 15.5z" />
    <glyph glyph-name="uni03FF" unicode="&#x3ff;" horiz-adv-x="1145" 
d="M534 1433q-338 47 -517 -249l296 -245q94 89 188 75q248 -49 250 -331q-46 -228 -224 -206q-80 12 -185 128l-342 -147q128 -406 570 -461q319 -33 512 335q59 126 68 244q74 522 -445 807q-56 34 -171 50zM613 751l-69 72q-9 8 -21 13.5t-26 5.5q-13 0 -24.5 -5.5
t-20.5 -14.5l-70 -75q-7 -5 -9.5 -12t-2.5 -15q1 -9 3 -15.5t10 -14.5l71 -76q14 -13 22.5 -18t20.5 -5q16 0 28.5 5t19.5 14l74 86q6 6 8 12t2 14q0 6 -3.5 13.5t-12.5 15.5z" />
    <glyph glyph-name="uni20BD" unicode="&#x20bd;" horiz-adv-x="1163" 
d="M520 1025l12 -157q243 20 252 86q10 67 -72 89q-93 12 -192 -18zM92 358l-114 1015q538 77 736 49q312 -45 439 -316q25 -66 13 -155q-36 -254 -365 -364q-140 -36 -243 -34l6 -117l165 17l43 -259l-196 -15l6 -138l-449 -49l-15 136l-114 -13l23 232z" />
    <glyph glyph-name="uni20B8" unicode="&#x20b8;" horiz-adv-x="1076" 
d="M1074 999v0v0l21 -335q-189 8 -345 8q17 -420 0 -670h-370q-32 258 -24 487l-2 180q-176 0 -367 -15l18 337q455 8 1069 8zM-14 1072l-29 316l1189 51l-67 -323z" />
    <glyph glyph-name="uni20A9" unicode="&#x20a9;" horiz-adv-x="1488" 
d="M780 170l-100 -172h-276l-62 178l-295 4l16 230h197l-38 111l-186 -1l16 230l89 2l-161 462l463 220l234 -671l37 1l120 125l73 -121l55 1l132 575l414 -227l-93 -339l97 2l-16 -250l-150 -1l-33 -119h193l-16 -250l-245 3l-45 -164h-325l-49 170z" />
    <glyph glyph-name="uni20A8" unicode="&#x20a8;" horiz-adv-x="4652" 
d="M3466 1425q294 -19 460 -282q30 -71 25 -160q-9 -182 -243 -346q42 -37 329 -409l-337 -224l-326 468l20 -410l-436 -60l-207 1344q123 43 611 84zM3320 1025l16 -152q235 19 239 97q3 49 -63 61q-77 8 -192 -6zM4250 1039q207 5 407 -231l-177 -178q-175 135 -262 135
q-58 -10 -59 -49q14 -47 270 -150q243 -146 226 -351q-44 -195 -258 -219q-79 -16 -204 -7q-208 31 -363 219l160 203q167 -127 237 -127q45 0 59 34q0 54 -213 126q-209 104 -209 304q9 274 386 291z" />
    <glyph glyph-name="uni20B2" unicode="&#x20b2;" horiz-adv-x="1102" 
d="M352 6q-213 58 -334 397q-32 101 -32 262q8 512 417 729q51 12 95 21l16 109l202 21l-6 -102q321 -1 463 -237l-303 -254q-89 75 -192 77l-50 -653h8q139 59 143 158l-96 33l26 170l422 66q24 -119 24 -228q0 -452 -466 -573q-26 -5 -91 -7l-7 -97l-246 42zM451 956
q-90 -77 -109 -237q-11 -164 58 -249z" />
    <glyph glyph-name="afii57636" unicode="&#x20aa;" horiz-adv-x="1504" 
d="M47 1103v0l1022 -60l20 -615l-272 -25l-12 378l-462 17l-36 -796l-309 46zM1450 22v0l-1002 -20v695l272 -55l12 -338l432 13l36 696l309 44z" />
    <glyph glyph-name="uni20BA" unicode="&#x20ba;" horiz-adv-x="1067" 
d="M490 650q9 -120 20 -248q242 65 355 308q129 -52 240 -158q-240 -608 -831 -657l-88 751l-221 -3l10 230l184 7l-12 101l-172 -16l10 230l136 16l-24 203l349 29q3 -91 7 -192l280 34l-10 -250l-257 -24q4 -58 7 -118l250 10l-10 -250z" />
    <glyph glyph-name="uni20AD" unicode="&#x20ad;" horiz-adv-x="1110" 
d="M67 886l36 471q27 0 337 63l24 -360l321 376l196 -275l-219 -261l251 5l-48 -215l-130 1l326 -321l-360 -329l-337 423l-24 -472l-431 149l43 555l-85 1l18 187z" />
    <glyph glyph-name="uni20B9" unicode="&#x20b9;" horiz-adv-x="1155" 
d="M1105 1455l7 -239l-113 -9q61 -32 80 -107q17 -78 -2 -152l59 10l34 -233l-188 -24q-46 -67 -120 -126l313 -347l-307 -224l-492 518l86 105l-379 -54l-40 286l587 46q106 23 111 109q-9 122 -141 136q-188 -7 -571 -52l-29 293z" />
    <glyph glyph-name="uni20BE" unicode="&#x20be;" horiz-adv-x="1358" 
d="M976 1300q95 -21 173 -61q166 -100 217 -303q41 -145 -14 -374l-275 39q9 240 -99 327l1 -328l-211 28l-28 371q-35 -1 -75 -5l28 -375l-210 -27l-34 265q-86 -122 -82 -316q18 -179 129 -232l867 -21l-39 -350q-694 41 -1283 -8l-58 325l127 39q-183 404 10 776
q109 144 277 201l-19 143l258 -16l5 -83q38 3 75 4l-5 84l265 14v-117z" />
    <glyph glyph-name="colonmonetary" unicode="&#x20a1;" horiz-adv-x="1168" 
d="M334 566l65 396q-79 -96 -86 -267q3 -73 21 -129zM476 405q48 -21 109 -26l133 700q-33 3 -68 2q-20 -2 -38 -5zM513 -6q-61 2 -116 18l-18 -89l-146 28l22 136q-108 84 -193 245q-59 126 -68 244q-74 522 346 774q66 35 132 55l30 180l205 -40l-21 -106q50 1 99 -5
l19 99l205 -40l-29 -125q116 -64 217 -184l-218 -223q-35 36 -77 61l-137 -599q66 40 117 112l312 -77q-115 -364 -522 -446l-26 -112l-146 28z" />
    <glyph glyph-name="uni058F" unicode="&#x58f;" horiz-adv-x="1535" 
d="M870 471l-2 254q6 252 -239 268q-217 -8 -239 -328l-1 -243l-392 6l-6 354q13 346 207 493q224 154 587 110q432 -92 483 -429q24 -162 30 -454l252 18l17 -290l-269 -20q0 -55 -1 -114l228 9l-32 -275l-203 -12l-4 -112l-410 -44l-1 132l-197 -11l-29 288l224 9l-1 99
l-271 -20l4 293z" />
    <glyph glyph-name="uni5143" unicode="&#x5143;" horiz-adv-x="1428" 
d="M78 955l1271 58l16 -286l-291 -40l-21 -329q-20 -122 124 -92l307 47l-157 -323l-423 -28q-257 -34 -230 259l107 447l-227 -30l-225 -676l-360 -31l302 695l-215 -21zM154 1037l-68 243l1220 164l-67 -320z" />
    <glyph glyph-name="uni20BC" unicode="&#x20bc;" horiz-adv-x="1553" 
d="M811 1277q696 -31 760 -1199l-351 -65q-64 936 -423.5 919t-450.5 -930l-348 96q117 1210 813 1179zM952 1407l-61 -1386l-283 -27l7 1410z" />
    <glyph glyph-name="uni20B5" unicode="&#x20b5;" horiz-adv-x="1102" 
d="M424 5q-217 50 -362 327q-59 126 -68 244q-74 522 346 774q113 60 229 78l15 143l212 -42l-12 -96q216 -34 353 -249l-218 -223q-58 77 -185 89l-84 -643q79 14 182 128l312 -77q-125 -395 -547 -458l-18 -137l-164 53zM526 1001q-181 -101 -183 -318q15 -177 126 -241z
" />
    <glyph glyph-name="uni20A6" unicode="&#x20a6;" horiz-adv-x="1364" 
d="M787 1023l106 380l407 31l-38 -380l124 8l-44 -255l-106 -4q-8 -70 -14 -133l126 2l-35 -251h-118q-44 -389 -57 -423h-266l-243 425h-96l-43 -425h-360q-1 193 5 427h-84l-31 221l122 2q3 55 5 112l-139 -5l-27 215l177 12q10 189 24 397h349l182 -361z" />
    <glyph glyph-name="florin" unicode="&#x192;" horiz-adv-x="819" 
d="M105 -286v0v0q-124 -6 -176 43l49 164q79 -38 129 -24.5t81 113.5l61 287l58 453l8 62q32 282 114 423q136 207 293 207q89 0 133 -28l-43 -169l-78 6q-92 -16 -121 -139l-43 -307l-75 -485q-37 -253 -121 -411q-114 -195 -269 -195zM197 608l-20 219l645 26l-22 -209z
" />
    <glyph glyph-name="uni0E3F" unicode="&#xe3f;" horiz-adv-x="819" 
d="M422 502q-21 -4 -43 -9l12 -158q23 1 46 3zM382 967l-13 144q-15 -4 -31 -9l24 -138q10 2 20 3zM521 1420q72 -1 141 -12q296 -90 277 -348q-28 -116 -155 -222l82 -19q311 -110 331 -352q10 -160 -68 -287q-137 -157 -530 -186l4 -78l-128 -19l-8 91q-142 -3 -312 8
l-176 1303q192 81 364 108l-8 97l181 14zM579 354q197 29 203 93q16 49 -68 63q-70 11 -144 9zM543 1013q74 34 86 82q-7 26 -59 36q-16 2 -33 3z" />
    <glyph glyph-name="dong" unicode="&#x20ab;" horiz-adv-x="1091" 
d="M296 675l1 -44q7 -123 143 -123l99 5l-9 248q-54 29 -151 19q-85 -21 -83 -105zM43 -96l-29 233l1122 85l-67 -267zM550 1327l9 137l362 -52l-10 -70l157 7l-29 -242l-146 2q-33 -525 6 -833l-316 -51l-8 72q-107 -50 -203 -50h-45q-240 0 -316 218q-15 60 -23 114l-5 82
q-4 226 109 317t260 83q97 -3 180 -69q-1 38 4 123l-161 3l-21 201z" />
    <glyph glyph-name="uni20B4" unicode="&#x20b4;" horiz-adv-x="819" 
d="M672 910q27 36 24 73q-60 241 -510 27l-143 232q373 263 752 164q316 -158 295 -405q-11 -47 -34 -91h78l-31 -171h-190q-40 -33 -88 -64l274 8l-40 -184l-554 1q-75 -60 -65 -102q34 -162 480 38l133 -276q-300 -177 -536 -170q-204 14 -298 63q-235 121 -230 279
q4 88 61 168h-62l-23 151l260 7q64 42 144 80h-373l-19 172h695z" />
  </font>
</defs>
</svg>
